<mxfile host="app.diagrams.net" modified="2022-07-13T19:55:43.022Z" agent="5.0 (Macintosh; Intel Mac OS X 10_15_7) AppleWebKit/537.36 (KHTML, like Gecko) Chrome/103.0.0.0 Safari/537.36" etag="ZKSBi8BiRcQ7758z2Fkd" version="20.0.4" type="github">
  <diagram id="Os6qndBz3s52mfGfjHNS" name="Page-1">
    <mxGraphModel dx="3044" dy="1002" grid="1" gridSize="10" guides="1" tooltips="1" connect="1" arrows="1" fold="1" page="1" pageScale="1" pageWidth="850" pageHeight="1100" math="0" shadow="0">
      <root>
        <mxCell id="0" />
        <mxCell id="1" parent="0" />
        <mxCell id="2-DyXFUpKXOvbhoUi8-5-51" value="" style="shape=image;verticalLabelPosition=bottom;labelBackgroundColor=default;verticalAlign=top;aspect=fixed;imageAspect=0;image=data:image/png,iVBORw0KGgoAAAANSUhEUgAAAggAAAHLCAYAAACtaGDkAAAAAXNSR0IArs4c6QAAIABJREFUeF7svUmTbNlxJnbuFDcicnoDCgABAiABokAU8AA8VjUIFKbC0Gi9MhokGk1iG9n6EZJWb9HWvZLhfwithsxoaNFkzJUW1EqmRS+56ZaIoVAgiELVq6wcYriT7Pvc/ZwTWcVtV2SmJ1h8OUTcOOe7fs/5jvvn7sUP/tt/9Qef+sSn/p/PfuYzD45PjsPQD6EoitC2Df/Ff8MwhuXBPExjCFVVhWEYQghTGMcpNE0TXnvtV//rRz7ywb+YtfPt6urq4h9/89v/ME3TOJvNfnv//vGT3/zmt389n81+OQxDWTYN3hzqoigu1+tyNqv7Zdv2Uz+VY1GMdV130xQmfEZd1+MwDEM3dsXB/GAahm2YzWb9atsVTVlOs9ls2m678Wq7GR4cH4fNZhOqqg7D0IfNBh/Th6ptQ+iHMIQ+tHUb+jCEzeUmtPh9jf+rQt9zSKGuK3l/6EO/wedXoQ8htFUd3rm6DAdtG1/LN4Qgn9UPod9swsHxcXjjjTdCVVehruoQhp7vHzb6eVXN111dXYbnnnsuvPXOFcdYYxRtxc8JdcV5cHz9EK6uNuH4/nG4vLrk3+u25d/x1Q89P6cKVei67WXbNs+aZobvw9lqVSyqChiF7XYbhnIoDtuj0cZd1/U0juM0m2He9bTdhnC2emfaXpyHcZwN9UE9taHFvZ+appkuL9+aNptiXE2rclEU48XF+OzBgxBef/314sGDB+MKn7dYTHb9w8PD6Y033ih/53de7BeLZ8X5+XmBvx0dHU1d15V9/8Hh/v3V9Nxzz03/36/e+tCDxeFqPh/OLi6m++fn/eVyOT7s+8WmLC9n9+8vfn1x8Ynp8PDnvAa+t8/53OdC+Lu/CwF/w+8/+cnV9Pd/v+DrQvi7EMLn9KV/Fz75yU/yfS+++OL4H//jfyzx/fn5i/zdK6+EiM3f/u3flq+88gqMgtcpiiL+zT7X/3UEHAFH4LYjUHztW99/8ujzXzr9zGc+Ex4+eBg22w0JwDTJhtnUdZimKXR9T3KwXCzC6mqFVTPMZg3JA8gCVtmqKkNZlKHrOr4H/w3jGGZNw/fWdc3NCr8vyyKUZckNDj+P08jPHMcxEhPZuCdeFxv3OA78XP6vKALfkP2LceP3GHddVaEHkdF54Pf8ORS8TlM3HGdRFhwbxnJ5uQrL5Zy7wjhNoe96waBpaAfnF5fh8GARFotF2Kw3oRt6Xgefu1pvwqypQ1WWIZQyRswL1wcml1ersFzItWdtQ6KBz6jKKqw36zCra/6umWFcfZgv2jB0mE8I3TDw72OYQrftQ1EBtypM4xjGKYSmrgDFtuu261LmObXtvBinceq7rnhw/940TVNxeXU1bTYd51qEYhqAQ1PjHkzbvi/6rptwX7p+mGZNPbWzBuOZQFKqqpzW6810eHRYbNbrKRTFqp01xWazDfO2nbadXBcEE/drvdlOdV0VddNM49CHw4OD8M47l6GdN2Hox6IsixGfVdfAoj8IRei322F9eLBYXK1W22mcllVV9M2srYahvyiKgjd7u+0UWbn1uK+bTR+apizKopxgR3UzCxXuQVEQo64fcdfDbNbynszns2m13hQXF6uwWMynbb8Nh8vlBFvGfdtsN0VTV1Moq7BZbUJRTFNJ25+H1WYdgOFy3oayqsN2s6WNDGEK8xnspMCNCNv1JtSzWVjO55gf/zO7gFEWMMyipA3DRmBPjZI5kDrgeHJyRLs5OjwIZ+fnYbPehnY2C2VV0nbqsuL3eKbwjIEwlkUVLler0DZG8ENYrzehgp2OI+176PowTWMYBjxbBDEAV3wBn6ad0famcQj1rAkTcKkqzg+HgqvVis8+vqqmCds1Pr/iszqMEzEBBov5PGB5qBvYRc9nkc881hR+2EhW1m23oQhlmLWzsNlu489lXYamqsPFasX1AmsRni88J3xu9Xs8C5uuD0eHy3BxcREK4Mq5BI5rvdmG5XLJuRmxxrONOfT9GObLNgzbDocP4o17Dfu5uLji79bAF4eFYQwN5jnCNOoAu4H9w2ba+SzUePZDSWxtzcRndB3WoVGvW4YC48baUdW8vq1DdVWGoqg4cDzzm806HCwPOM/FoqU9Pzs7CxXuVzfq+ln+36v1eluU5W+26/Wqbduiqsp5Pw6rMI4hlE2oy4AxlO2iGYuiHLbrbTtMwzSbtQNGvNlsm8XBsoONXp5fzReLtmuaCo8M5o4lq6/rusbf67rkmLfbvhrHYarLCgMJ44ify2E+r6f1eg07qQ4PD3hwKIpqappqWK3W86IoJzzL4ziVWB/wvqmoumkYcFgMWJk2Q98MwzQeHSw23aavp2Iqum74ne3Qf+ZgPv+/xmn8U2CK24xntipK2nY/DaEpa66POERhbd72XZiwJs3q0JR4BnruNeMQzxg8jMk9wyNahKIqxF71C5+FNRb3HHaHdWfo5R7j3nCtqXDf8fshLJct8JF1Futxj+8r7q34LKyPXA9weBwnru34PK5nJZ6jINcbsN5v+Bq8j1sdD4ayH1xdXYXFcslfws5XmDPWga7jmod7hfVgnAbaIP7FzxjnctGG88srPlM45GIfvri6DOMwhvPLi/DOs7Of/9t/8z99v/jK177z5Hc+/JHThx94yBsvGzQ2+5qGi0lyIShKLkZ4OLGh4kHGxlfVssnjfaAJeDgBMhYcvJ4bGYCvijBrZmGtp3xsTNM4hRr/4uHBYoddYhxCO2v17Bb4eVj8QFDm85YbKhdQ8TBwccZn46GGhwMPGcaMTRY3c7GY87VYDEkcsDiNY6gMGP47heOjAxrbwcEinL1zEcZhCIvlIlxdXvGmYB5YwGAUGNPRwTJsgQUXvIrznc9n3Dwwt6vVOhwcLDnHKy7yS9vROB4YyMFywcUUY8GNBe5YzPEZy+WCr8PcL6+uwgEMAZshNp6m5gI854MKY+jDwWLOewKCse1AXMQzYkYKgwUxAh7r1TrM2hb7Fe8NxoINB4swF8Q1NsUivHN+EY6PDklqMEfcFNw/zA8bBa6PMTYzuZf428nxUbymYQVcgC3GiflgnuJ9go31nA8J1YjNvaa94Z7CWLnJY9PSOWO82CSBCTATEluF9bajjeL9wBsLOWwRY8d78FBiERHSho1ZPDDYSPHAYfz4Oz8bm28l18WYQYrxLNBzBo+akiBch3asNsGHFpsxN66e9wIkCzYhZJC0gM8NHlY8Y1woSFpaEtT5Ys7Pwvz58IIBYuPtce9aIbJXa5IC4MD7UhS8PkkGNuyu498wZ2IHfDYYf8/7AJvBfcXc8KwKcVhwQ4QNAA9sQiCyuE/Y6C/Xa2KFz8WzilFxwcLihTl2HTElQasq3s9hGkMDj6M+n1i48PzygACSM4yC/RTCwXLOa/K5Brmn7QrJoy3QPkGGOlkzxjFs8D2eHdh6h7kNtGt61sqKawk+H9cFlvgsjAXf47p49vBMg9xzzeo6EEXeG65Z3PiS88hskb/HxlRjnoHPGxf9riOZ64aRz5ryEd53rE8gFtj4uSaGiXaAFwELklMQ5rJUGxEnGOYNG6jLImy5qeBgJZjghbA/ew7FAyo2y/sCwrXZ8jXcSNUexAblvmMscsgLnA+Joj5vwNbukR3c5CgoX/gskEe+D4RL1wUSYPU84zNz7DlnkmNQKcx14udj7JgXvsdrcK/ywyLIA+yeh1DYlt4XIZxyH2CDeK/cJ1s7lPTWte49cnCUwyk8r53YQicEkeQM9xPjwXVI5uVeGLZ4vkH8BFs8IyOvg0lhU+aaBux0jHIAVkzsuVbSwANZ13FMeA+ec1tfsaPKUVOIAUlnB7Ih4zEPf9cPJO943njv6ppjg11hDZQDe+D6scU6AGxgA7q380A6h7dYMP/5a78Mv/nNb//zv/3X/8Pzxde+/K1vvHnx9v/ZNLMZJoEX0GDwYbrw4KEHG8WH0EDkm4ATqH0ILi6A4q2jAi4eBluIzDDxdyyucooQTwPAF2o2cAEAW+dmrn8ns9MH1oDBvwCLRIOnEpwq5OHpYfwAoBAPgTgbxHsAyPlw84QJ1ibjVr80b4fMS70ABBPfyzW46WL8oyw4/OwByMAQxJBwDd50eidwyt3Ke3hzxPBIqsaJY+mwwWHR1Adfj8fihRn6UJV4yGHMeM0Q2qblAminDYyF88OCSy/FPGyuLkPVgNQI3ly4cd8waZubYoI5cZPEgsWFSU4o3FAxf4Q/AgjMKmw3m1DWNTeMumnxas4JBo2NiWGqUjZYYIBNhacjY8dqnPQ40IZwYgMLnoeu78LQY+Gfqa3JwiWbO6YrCyMeZp7C6kbsRu8RPouLLk9pQ5i3cyVmIHliT2Dr2IhtATfbxURxkqW943ueKDBuLM6dhI248OH02fLam/UqNDPZuHFv5m0btt2GGyu+YBtGaHEPQJKPjg+5WeAI1PcdbQMkBPfvcgUyeMDvsblV9ErV3MBBAO8dH3ExBhnD7/BggxCt19vw1rO36KkRb5M8BziFYtPExiyesIkEEF6w1eqKeCzmC25gILFvPTsLi3lLDDAObDIgMrQteB36Mdy/fxJe/9U/hKODA/UGynOG+441BCEuElLaGTb/hS5wgZ4XbibtTAhgVZLoYrO/B1xCSWJ17+SYtrBcLHld3I+Dw8PQbTbhCKS1LEhy8Dec+omXejRXl5fh4cMH3PjhMbm6WnMe//ib34YPPfeQr3vrrbe5oQETYLhawxOgm3Uv6xfww2uERA9hKsRLBEIPoouDBO43vAcXF5ecpy3IGC9IixgSTvCYi9xD3O8Pf/iD4fXXf02ssbHdv3ccvZ24n7AZeCzv3TvmQo/TPK6BsRfTFM4vrnhdkDeMFfcUzx7XlWHkfLHugHQCGxx8sKbiQ0BisC7z/qiXd3W15rqL+XBDw0amGz5DrRqG5eFmGGhv87ahHV3gEKWnaRBeYID3Yp7ABus95vP22Tvh6PCQpBj3hYQUc1MyxvUFa0uBTVNsBP/iWjjYgNBdXF7KIQMHRRwsikBbwzrCrUn+Xzg4XPL1MgfZy/A+ehrUM4z7SqLdtgFeD/yLsWHMeA3IEkO9tIuKBNw8y5gv7NAOPdh3iK/u5tyDcEhQUs2D12bDNda8b1zTxpG2/s75ZVz/gRufm8NlOD+/1MMpPAM9bR3rOObDMRwehDffepsEG96wdy4uxIvQD/R2Yx3C550B+6MDPmfAAc+5kQLYDeYKDHCo/dWv/zH8p//0//7nf/Ov/8fni29/79W/+NnPfvrvTk7u6YYlbmtjLbRM7p6yueEvsh7Lxm4bDTcSeivF44CdFzcRG5e8Wn8dCai8VyIEdOpL2ECZkt1sCSWk3ds2VyMJxmY5FmEgXNhltwfXTCcA2ep2qYCdEmTc9jcZpLkkzQ2M18g8hSzwIAp3Ixmd3LCcYdv7scmId8XmJ4ZsJwj9tIyiyHab48bPzF/B8SrhYcgACMo17dTFBw+nBh1jjMjEUyy2EdxH8lHbZ+McBVvBjNAqiZDQgHgxYOBG9HhSxLjUPrCZSEhI77W6LPCTnQ7SQy3EE5so/yNJkZMOFrL8vhuuWLgYlkJoSckMxkgyqSckkhA9MdAixI+nXis5CWKMGBrGT77O/5N/4z0scUoRAmikifPAaRteLIyd919PntH7YfYnBJebEImR2ruSThIl3mNx6/CEnYXbMHY7kdhJlhiNGsYyws0Xqq0pORYPRM952xMgdg9SqS5xvY4avmKSngl53sQexM6FsEWWpcQZeERDUtviiiCLA1+fz0vCZPLs0laNtelJ2fRO8uyk9UHGL1jaEiFjkXtv9z2tSfLAwjMiIYq0nhneeE44TxwyGK5UQq/rGL0Aev8xJVng4SmQUCfeL9+LDfBExrBmWv9kaVQCasEyxUWeI9iFzA3vwqEhrTuyjvCApadbWY/kvvLkHkm9zUO9q3xQ9HnU99JO9PVyi4RUYjjmfcT18axjs+M6Qm+HhH6xbsvQ5aTL51RP73Kv9MilIWQ7TGL8OBQYgYzrIj9bvGucs272cpyS8eXXJJ3HvdI1WfaKnRU4YmfrNk7/3N903OnAJnuX/d7wMNM1s7RDpI0nrgVqA+Y9tGcgjkmfc3284+fYISwdxmS2xIpniGTzNn/dRhQPsbm079p71MtgPhBd02yftvnZdizbZcFDEK7Vtu3f//d/8T//YfHt7/2Lv/jpT3/+746PjnkT5ASbbVnKVORXstjZKdY2ECyMdIfoyO0mSOhAYjN0Kw8ShpCN2x6btKEIAeFI42fxYVPSYQuLGZr8jA1Q3HP5TX3XdeSv8hDRtYf4nGyeAI1uUxgmPptzlhO5zZHGaPYeryFz5kamJEGIkXgmcI/hHjRXPjdLXTwEZiEX8sDr+IzYxPVUNnDxYCg50XkgniRj1fAOHxiJYcXFwhY9DSdYyCFu0EqEiKnuHmZaukfqQy+/RczaTvLm9uWir4sE7x69OILzFLDxyWZnDrMIq3pR4sMEu+A4hXRgfoZh1HQo+6MehbYId624zCKBUpsVcqGkLZOriE0K8d190NMiZwswNy7uMnJ/sDjSQ6TPCD0tnGeyFPEOSXwSvxdtgIS+hPhkCyqNQw+aU+CJxMgvN0y4XHkdsQPagHrJBIqM0OgYzNK58aqtCoFWEIx92Y2Iq5/Zu9mmbtjZ621DpkscBETJDi1OPTcW/uM9V5u1jYf3AxtMFrq0BT53yTLWa5xfMTJ7w72HRwRzJ/7cnCQsJM+jkBDTIYlHT+6jkVl7nY2ZU6SFKmEyAm+rhm48kZzlm5ERSd0ESKAU00RUsoVeN7toM6qVwc8Yszwrak9qy9G+6cESzy1eJ2utHNzil3q/iHW+ecbdzQ4Fak92cDGXuLCgSJCEFKrXl7ur/D03KfvstGRK+CQ+FbouKkdRUxTDN6Jpy7IsAqpts42VNoD/jIDaawwZW/XsUCjkVtbiHB+EbLgXRoKSyAzWEdl7jIAq5ZTDAvYKrm/p4CAkKR2ybBT2qKX7ojbB51fCbJE22u/wZtXZEZcY3rDnWDzTds1IznIodg7wst/YgTbtZ8bhxeqpe6FNggzC81SGdrF46zvf+O5XI0E4OjqK7m1KqJTl0nXNCZlbOsWFEwhy4rJTsp3GZVGymJMZg57jdaEz9mmnYVsMZaPJTxSZ/acdJm3ucvaKD6ZMXRd3EnMxlmSw4vHYjfPILpo26+yhEwuJXhE5DaabKIYop4f0MAuZss0o3Sy8Tm52IkpgfiauspOQPGNizGoWkYiIUAoCwHjjeXoHIdE4r50m9ERt7NrmZ2xfTstpo7HrpU1XxmWbd2T8ireIRtNiYwZJe1eSyPuhC5/E4O0EvfveSBJ5QSWWmQckncUMezvlZqcM3ajSaVTuupEFiynKRqphMSOndiKLhE1ezZgyCJI9C/SM6DU1DJOfcCz8ZvO2kJoiGSDPsw3eni17+Lnwa5waN95IjGEGoi2kZXfTseU4j5umE4ycFiM5ilJPJSd6Asa9wdht4zcSIKRG12glnTzpaDw4noCyU2jyHQlOjDHDq2QMJm5Yen/ogdJf6gZM4sE/66yyk5r9Vl09cVO1+Lq5r/lx0AHo82peECOQJGTZ0stTsgohiQcJjQqPVU9BIbedcEn6EQYTN7cN3a4fV66MZESylh/GOE7dWHU9ETMUTMyW8HMM58ZN+NpmHz2dQjbSDGUtiezYyErc7ZOHLN/czIvH+xD3W70zkxxeZPmyU3zyMMS5RhJjm6M+u0Z0sflnoU+77+a5VL+rbMjcn+DVE0+WPHvi4eNhjfORU7F4rZL2SAic0kEuMznJwPuUYSlZzMlXOoEnizESJl6VfJ/KOJIeoNNrzZNkXmm7w/p+jNE8mTvHD7t+InBymFHeZodXfU/cf0zYnxEMGwu1Pmq4ZVlz7WkX87e+963vf7V45btP/vKnP/3pj46Pj8R9yhO1na74ix3Wbe40mpiiYe7Y6OKLG7uglW8YsgGnhU2YkngC+DeN9fOUQO1AQjy5gExkY6d8uVl28pL3pN/ZiTdn3TqyuPzwJEoPQr4FqZuL4NLa4jKS3HH68MZDpp309cSiwzfHF7Mcog2ohkINK55OZEVTtmwuxszLYLaUpiluc7ipEdPTBxGbGdyg/MzsxBMJBZ+sLCykpEzIlTxgeC0IB9S/jMHzIdTTqHqTbE23RSQnEGYTRh7NPcolyzZh3QDycI9cK9mYLYpyykw7i6wBKtrShV7clEr0GL6S75nlovjbIi7uzoQZbxdIlp5sbOGR9UZ9IErYqExXpTJszhZeEzcZ/vGZVE8b/QhxzPRNKQFPU7suTkrPm9z0RLCUeOvYgI+NyU49ttnLQituZvPMAR0JDekiYydWLpwIm6TQAMYgYmDMVbNA853VFmElg8ltmsI3CMeYMNO8MrmXIT8UGFlgOEZZcu4pEF2K2oM9fxCKqTAyX61jerbZCMMIciq2505O4+ZRlIXb8BTSJt5Q2/B2ToHxUCW2Ge+DrScZOaA3Bf9Tr2C+NcRFW9PJcbUYBlBylGu9Il5GzHiTxEDNqysHfmEuNq7o5ci9StnmlhYpirRkk43PpHiGIr48BMlKLl8xKBCJjXls5O/56ps9yyAZ+mzJOUgOptHRRds1ii1PY1pP9BBFj3Nag+W5EY+wqKvs84UIyPohpDh9CYHBnmDmjfcnT4OSD93b4lpjB63rHp20AKjtaOgqC1mLzZimTz5bQoA2F1sj7PCYHQ4I0DW2bSPnjbEDnuBAD756Fux+0WxUFIzMsvl88eyVb3wHBOH7f/mzn/3iRwcHEAgBcFGm6+ocTy9xU9OTuJ3IxVDS+KIbz06XcfDqKrf4l04A76crVq9hG28yUHHJ2AlVHiA7advivnt6ldjkLgkxomOnvMwJYVQiM5Bk5vJwZPibfUWA5QYaQcnphWyCiZ3lH8DFSDM/BDMhHzZuWUTk9GAMOZ5MdCGjWexssuKeJz6MwyaCxc3XTrp6OrFQjZ2g5LOSFsC8IWn+4moUD0AiZMIl8HBbfFofQz7wtsEoKzdSSQ+KphYpKaS3JHomZRFB/DOKXON7JayTPAwa1tHPM7exrX3yNqFoO16e+PCoyz+ATCWvDHCkql/d/kZGgIuJEGUTE1zEpQ8vg2w6fOh1nBaysiXUNgIjwCQq1B0ojva8q9FgkbfrC5GWDcw8fTtuRzsx0uklJ3bYAhe7zMOVr1v0LmXaC/OO5ToZExcbmngNtA2WJmweGonl6zOki29+SueY8vAOiYg+ZkZk4wlY4/t2b/lM6L2Pz4fE2XFNCTlIuAz3hBlW3NhkgY12q+/lXDLvYpwjvdnqVtfnJpK6PFyRk9iMrPL+a+hAPsri+xbmUHF0PGTZjRZqiLfH59VCIxyrjClatHlzcu+EERQbg5JHhqlUcyPEUAizhe9sfYp+0bgeJO+xPEqJSVBjpnoofeqjZ030T2nVs3g/fxPDMmorpl3TNU2WVKqq9FnKQt+ZtspO7UY5snN9DOFKkgYyS+Q+iImZ79gOIRYq2D24yGHZNln1OvN6tg+l/c+0IjsbhoY4c++iEa3dg7PZQ05U0sYunhuIgNWzzgdItGpFKeJrPERGmCxsYGOJh3nD3TJoYmjetFsQhTehnc+ffeeb3/tq8Y1Xvv8vf/HaL/491M+EER4ELirqLrHYi662eVyEC3omnlOvsNx/Ff0lF0fy4aUHUl1BclTUzTDzBKiahBudunjFZZpYrYCc4mO5FiFuDJnXwuzbYvrmZDZn/+6GK2dpeU0KocjnywYnC12K9dhmYd4M2zxtkYgPYWQoSRyoS6rqEpQ9pudLPSxCWHgfNDZrLiZumJlgUhZlFb0oaRCSK+GQncyQdHu42NqCJoRF43k6FptvCg+pG5wLs9hNOv2L4EYMWOzLNlVjsRaTjyRQ94Bcv5ILDePph4uHpCeaZyb3TiVeJ4zZ4uA2DiNc0aOy4xUz0iMPqS3WtsFY9ky+2HET0gXOTuZiByoIVIyjG12vyw1cY+di35nQioJFIXrxtGybgW74FobITYXXpELcXJG6hGY2YffENknL1Imbj56uhCja0mthr7Thpr/LOy2ERCzSYStuarYhJZJkQmhlFdkGZKJj4EJPR4y5S+p17mEUgisCuHhtPa1G1VOGrWzioojKiRsIj2hc0vqUD4m2ZIFsDSmYh47rp603+ZoWn51kVybwNfuzA0HaqO2AoGui2k9OEuy1OzgokTDCme6cbuH5ZIxF7xAdnUM8ldr7VDid6UrSWmjibWXE143RHgxbOy1kreQprf92MFIPKhfOzHOjYnbCH0VhSfNhz3lkqJyDreOiLzCikA5zu6EAWddsXVf0lJTb+m57S77eywEnZ/YqIs/IsjwE9nybN0DFxlHgmQnm483LxM6ZD0a2EbFeEfurg9AOLsbE9enLPQ120LZ1mAciPA+oebI4ePadb373q8U3X/n+n//il6/9eLkAQQA5MPehfK64TvVUox82XYvZMbVPGS/ccNe/IiPWQLp5ATgHbmqygL77K21uFpu2jRc3A6kllj8sBUqSsNA2Rovn2iIIw7GNiGYzqZufBptEcraIT6Z4l6VP7I43WFyE8mNalPIH1lijnGjT4kVXEtxXKYyst0+vz1QldTepfiCp/iXya94G2ezVbay2gqI2ZN/0ItSh0II0ZmtWJMo2VZgXvodhJPGiCjf1BCqLpgj+LMbLPGLm84qLXtyDJnDKsi4sNRBpRiq646bLa+OUfu20pDYn8X4Rz8gmC5xVeKh6BmzKEE5GgZvOxeaRmLN6N7QmQq6kz19rrlDz8NjjR5qEkM1gBVRkc8oFS4KREEor/CXeMYsDa2qwZnoUoQojSiwZrnqa2/VCpewFWQRESW73PCd7ScSX64T0nqkqmuEGDbXYqR5pryYE1mUx5plb7N5kc5a7jhtjXqmdDY1nGhUzq6jTah6Yi94Io7nGR2FmAAAgAElEQVRUYRN2n3Zi69FdnBZV5nbncWrd7Oz9Fkow0S31GhpaibnpSsLoxg1DzHoyzxgwYG4+7mfUJFkITwu2aXogswwwHl0X8IyYcDLHJyeuUntAsh/kgGPZDxIesTUXf5N1CMRTMIr2TAYods97iroRKsa010Xim5GAPMSQHwKNIZlXSrwUFlNPUXqzO2KFMSG9m2nqGIt5NG2cKaPK1r/c+4vnhPUZzNurHtdp1IwbOzjqZm0haNtkuYaoB5qp+eodw7dMd2fxI9s0RYcgIm75PnriVCQeFWGmj4obkm367+1KFqJtyiYLyydtFLOHojtzpEgSREVCfyaQNx9IIg8S9pbflwXsKgnV016ZvBqynyTSbIfdZGeSUi73NScyGkpm8ULUf5jC8vD42bchUrQQw3J5EONMTD2yVClTTxs1UQZkp1YhMCk9yNyWxrBMn2CD3GGzRtt3x5rdFnu1pIhF97nFsPQUnghxuoHyebuUI6ULpZCEaC4sxSpPtUwneyMbAoGqbi1rQ+dgeKf4lzDXeJq4NubkYUmD5OKvIRjJprCL2zHFPj+5tcTuEumJcd9MWIqYUk4i8BlUV2sYIwostViKpc6ZydumYSGINGJ5IrnoKGMVUaIp82WBs807F1ulTUJSueLmp1khLGyklS/tVAqXqBxE1DOi1c9kIUwuv7TopuyPRNxMjmGsW2pwmIBSTvBmH/KuaFVmUFyoM/vQg6Z9hmQ2aPqVPI7m9I8n1biaxZOU6h7i6yU2auTBHj95sNPYba7mTYpeAQ2rcAEFIdHgroURjJzb4mYnOHP9mqDPnhnTkFhGSnwyY8hQZp8/KzlZjhuQChvNFtJmJrMS7YfOT9eW3G7sUG/hMW6mKupMGhaNtduzqgk6IJwWGrJ7intl2SYyFmPZOhfdgMw+hSBLiE3mm4SqMXtHJ57qq8ic7DnhGTuGLewqil9c0xLRtnVHdCdCDuNzoPgzdBbXJ32dknXz8OQhKn1xHP/uSmlu9+RJkCyaFKpJhEfwEo8j/o2xohgOMUzNQxXDYrDL/HATvVR6d8wDo94ce86vP8sSWrI7aptKtsbrnZL7m8hzDB1ozZ8Yu4rj2F2bRfGf6ZVyIajqJ+QpltCIrUlyAJHxpRCt7TVZdprZXs5DEpxZZMc8D+o9N09PHK48nbY3XD8kycHW1kzZp/B6PB88ELDA4OGz73zreyJS/MUvfv4jKTdpBiEPq7nLcuPBqVQIgV1Wf6YnSD+YA03uOXG9yv/yPduMjO5jMPFMTHPdYHESlnhXqgClu4rGZZQZaZqIubmFyGQPfhYOsMU2nfCTcYk3IU/1yeabBW8l1mMngNwVq6V+LUUx5viKQt3WvuSS2mWHsoArJdc6EVxAVa9hsTFxP0ehsyzRkWTgJomh8jRu7rwM3NytLHqBdO9EeS+YcJN5D1e7LZzictc4Xlyo5H7npyfDyzwBuLyRAeYQaxphWlSkypwtflZMShZ2STe0uyYnGXPHJzEsCYp5vbhQp1Sl6N6lWl0zQhg3RzU+OS3aSZLzVze3PXxSMU90MlTpa8GwmHGARVOfDanAKJVDMWY7LeK64lmR6oM2L3lu5fRoX5aiK89nwsW8K7Z5xUVB1fsmRBQPmpIgex4t1rzz0F0nNfazPMHMwjACjGFeS63jBm7MPSNWUQNgAj27f/QIKim8xuzFJFWQltW7yE+7+F7EiZJWS72A2pKEJiQkCK+NfMEO5NRtm7V5JyNWurEwL/9d6vokjqX9WRjGtByES3L6Yx0USxfMak9YaEJsKBeT7VZtwd9lHlKVMZKNqOBPGyI3JEsNtVoaiiEJvaab7xzedCNKGTXiGZVNbvc5k2dOxaEawhpHy6Yy/URMIMjMQJ/UGJZVImj1GOS2aOjWdgqxcdOVyYHLvBuiDeDzpJurEWYRIKb1XMJOImqVEHeeaijU1OwiaiUyXQTSK0WppHukxf31YIL5Y4+K4W8jVHy2TBwom3HKJLLxSehDCIR67uHZUjJiB2MbV7IVySgRsatlhQk50eiiaqCSbeWe+JQSLzOnbalQcT5fPvv2N7/3MjwI//LnP3/t3xtBwAjh9rATgg2dD6hyjXSuz8SBtkho3BEnlnR6TitP/rsdb0K2OMlNFraWn1RkM3oPfYPe32hSMS3OUh914Hw/QNDrxBiwnAqiQU0o1iNPjJqwnlrtZ11kdfNL7ipNzdM8WakDYLm1iZXnMdI0bdlc46k9U1vn6+yut0RAl43fNmJljnqjafiqXMU9Sa5k9fzkBYZylbtuapZjLgYkD6ZpBmzscTPiOCSFMYZoVL+BSoqiFE6lYs2LkJ8G00N6nVi8256iCzUjJPmJMoVLkucludvUNaqFU+ycb+5fc10aMWFpVz0xSIVMqeJmBW3SwhVXuXcp4mGfuefG3PYkNkp25N3pHG4hpLQJqQ3qiSl6U2gFmsevZJzXMgGe1XMwAqnVImVBygrsZGTByF3ySuRPrBzL6Ziw3Phrrv90cpEd1A4g/DytoKd7a/RmRW8BN9pMpW5qbhXY4lkFaY0u5vyZz8gg8dOyvkacU8reroaK48vTqy1l8dqJP/fi2ElMYMy0AlyoJCzB07WSMZGV6TlTFXz2zNtcBG/FWh9u2RSKKDKUzzLiJJ7H6GGwGPruySFbYXUh1TWbXior3LVDFvVIlxVmipoWzMJqnWQF9GyzNlL8rvVKSZdcWXYXrtKqN5PDmuyz3Myid9BS7XWF0BO7ZLKgHofgL/qoLCso7hmyp5ifSmwz04vo/ZOr2+Eu9mvTQw6q8kqhrfx18YD4Hp4HWVcs4yPb1+z+6rMuhxgLcdseZ5oPXVftHnGsWGM1NGt6g5him2cKpsNjFGirQNFO+bIuSchbMt5CWCwPn33jq98SDcJrv3ztx/P5XJglU7GMTKV4CIHP3B3v5QmwFBWLT1q8Oi2ZuY3KFXI9QPxF/HydXFb5LhWrSK5IW8RzY8w3DzsxpjRFpWlctOQ6EuMxMHMlq1V+S/qD6GaKRIbbp960lOKTEx0aJKsnSY1vfuV4ZrEjy4TkEqFpZsljk2O46+pOvnBNjaLrVU6sUZAS2ZHGL1WQyEdLF6MofiRJsDzd/I7bcyuLEk9PepKJnFgJpZ3OiD09MuJliUxfPTo5ccw3cabs8QPk4bJNh/BpHFywVEe+LnB0J+vrZbFKlQnt+te1B7hM1DJktRTsxJITDrM5I0smlLXjkp1CY7hDlqMdxbil1QETCi21mFIMydgyZK5y2qjohPj50VUoxhQ9dZkoF3NHSW6rsGkbcjyFRe+aEjI9BaijUDU2mUBXs+jMCsW1nOreCzmEt0oWV3x+dMfrhi9mps+/Ltn2OmLBuHRWij0zealymApjGbmJhwMN0xn5pCZB+yKY5gZ42OmZ1qU2YyEK+1c2iqzWhVWT3E3cUvOze5KeFwoZ8VBej3Wa69yyfOzgbBoDnaMV5DJvUe6JM4ExbVY9sLIBWGEgCz1mmUXmITavKj6XPRoqkigZb0Z0YjkBqdkRwy+JX8jJl7iIkNzWc8PO/K4SfohWo8+upSdrqEEXsOi7yvQZvK56YdO+gXsjJ2072VtKpt4NXRfsaCv/5muIHMF1/ZbESY0piqYthRLFkyIkN0uNZnw6Ya5Bp8xrKk+cPCdShjp90er5uyTC1poNVsUzvj4VHZO9xvA0PUE6Vux6bOMTL2TMsoKVVGCyYktGECScv1gcPPvW17/+shCE1177sTUishtpm2USc6Esrbj4LS5pG50I5wUEq7BmDDKZhDDiqIBXhbQBnm97+N4WCBN9odmTPGtpozK3EwgABYtZ6dh0SrcVyFyU4uZJsShdXLPrpnNS9J9krFLjcHE3NteQpihGW7TUGEufsRla2CIVgpJToHzJ5mwuMzv56maQuWoTS9bPURebLb7xgVLXmqTspfK6UkBEZgoSYWZkOoM8BXLH67Pz0CaSF2PVcXOS+yWhBE21s7xfK2Sis5YwS4qZ8XHNiEk8eV4zkvxBT4RDXpR7J3JXfHrP7ufll5ZNOPWi4Alfm/6IQFM2XDT5kipqaQESN7WKbrPTWDwNGZGKSnATsKpgzRqPabxX5iJNzBCikPLSmSZFey6YW9lc+3LP1JsjKtCdojGox54TJLENdf8p08bvpDmbLGr0fmjp4Nw+TL8hO4gS7lj9URYgdrTLanTkp6q04Kf3xxMoh2T2oQcWjR9amMfc5rkGwQpNWdiS9qB58wxTMalGXL9GtOz9uG6sM6GGYcJcC8nRptW+oy4jLrr6/iwkl2suZL4W6kmO8BS+end82qpxXl8nd2m7eTj1+hnhjfoh88RkF2KBQiWdlsGGDQNF2CQ0Z5tqqkOQMsnEZswDEfcLNrRKojh8nJXGNjd3LpQz20oHNdN66RpoazuzEGT7N6+JeUWt1Lt4bUUDlOsKjPRyxY+ZJkJwUpgieYctlCJrmx1WpRSAkfFdUaDcjejGj5lvSWNlXqyU/yneQvE2yXBjSEEFz6lehh2/xG5N5CiemOs6NcsMspVdC1yZp5FDNZU8PCNSbwePKDu3tstnL39DCcIvXvvFj6UVboorkrXGgEgWs7FqgtqdLp5MleGpxzKan8SMd+sS2M2T/U6FG1n8Leb/2ukybV9yUlJFe3TG6t2zEztJXR7iiIxfijLJA7obI7Xc37QZys2QU6rkmUZvh7rz+TBkMf90K8zIEjmwucqUZcFLMabErm0OIna0hUTzuvM6pYpNPDFYWmm8vtEcOk3VCHXetnHpQiuxKCEpYsDyleLzZvjWxIrIJBGMnozjHO36urgYSzVRZHQj54uk2rcs0uLhycmgbYoSp07FU8zQEmu2B9TugTFyCyLYyVWXVsKk95pPZ4rrJ4/UbvqSdXXURzvzBusxK+sfkU7iydvC/GUemqRMsLmP7aQRPU9oHIXTb2KssoCYgFjj3QyPZR4Ps2E7JdvpJGk8xCvD7AVbxPivpRDLmCSTY1fsmxMxWSO03a6uHTHH2yivAiDhNrUsO0FnAjUjbjxp6bViCnVcJ7JUOvUY2fvSa5OyP6/VQftg4zPpnSFAyn219EkjohyDZXooPuahsroepiMRnEzXkDxZlsmAv1sWWNyIUIZbCWf0sGWlpeNyp1U046arC4wty3KYUEyveyn0+Y1er0zDYJudPP5arjp6+WUDTGuAZczoaxFrryB61lLnSiSIbyQapg2QhTepAdJmmGrYmj7MDnLyDFmw1TwBESf1WNj5jORfi3tkgTldYkwgrT4J2pF+XpZqyLAzzUHsn+TIeghRz5FVvY36B1Ie5cSWbZJpAWxh4kfbKT+l8+Zi3iQSN0JjBCZLd8z0FBipJRHIQTDnQdmBUcNSMQQeZQJ2UJe9geszPQjIohEPwnx+gEJJLxdf++a3/7vXX/+H/w0aBJ6ctJCGMD5VjZuxqTHiQliUcGpHZ7N//PWvxTjYIUyFiGqweZlg+5udcsU9KOrXuNDrBhcXjLjh6TOd6SO4btoCpBumuGuThkJ2dRNxpwVK2oWmFBMjVGrlPE0xRGLEJcpI7FQfAz6pLjpbRw+SlET3IdphS2dKECVboPFZUmtA3HpYLPA6aRmqgsLMTYy/8UFGdckaLUllgxTbU7ci7ULyWCUsEELd4BSQTiPyEMuigpQv/Mx2pejAx/bBLTcNi8Mj+yGdSZTYKGlhD3F0VdNTii2Cdk2kP+ILrUet0BFKQ2OBxWev0WWwkbrfuNdMvYNdMQWsJ0PHz9KxsebrgI+4jE1sNLJT4epqFTE0oVskmepOpYvdUg4Z7ZEW0uiuhy+meWp3STsV2KZi5W/zioPWNvx6G10+N3rKlpbi6CWP07qIGa0kL+dtXU3NtaybibVdN/f51dVFWC4PoxI+qvYtnFLXYXV1FXC/kLbXYAE3db+OAeMyjBOZkkJCbH/LdsUiNLMuqn23ZddKbIZ4pngvO2mxbKxIBG8a/6WnRapt2mYrneXQjRTpqCKUpcdB584mUvqMo4snbAS/q2fYhIQQ9NstTzV26jYyv+sZknBatCNtuW2CYOvimoeaEqFXsm69JLIiZZKVI029zB640asGIk8ZjQeKvLJnpqey7ANxUWcpxblHyNKaY4EeWWtzb1lsTqZiRDuk5botawbGjY5ZWqlc/oiusLohyEYv7nTiQTG4xeq1sVj0lKk3Xncl285S0a50wiXJ0pAD00lj9oDpPuS1kuoqQmuMQUS2tsYa5rYKibBUwodiNoal1TcQXYwJF827K/0GcgKYr2uRZKq3dcR8eei3Q6J8L4RbUzcn9FfB+irdeBE+yMrzZFkq6rnNwk2RwDMuC9tCy3cts82PSkJznaV6LPK1XDx6bDymVX7Nawz7lANy0l0IqUwaCLnZ6SAGfLB3sJ12WbGS4stf+ebLxcvf+N6f/frXr/9Vg7bAo7YCtvLKumtHZaud1PWBprp7GMNvf/sGH3ozxrTbJ2FZNHAlDrlrzHhMJAnZKTZeS7+xw1Q8zWuRE1k8bKHaDUXoVpqGZfPKfE52sjdGLVPU8et8czHXDoGxv9snmPtYLFjOUnatLJwg7qTEGuPc8kkbE8g0ueK1sPfKMmcZIjLmNGOaODUC6XNiPCM9zzvyGv5avQvmWUgnCj20ZKdau5d8HLNJxCzNeGN1gclpR3YAShLNjEmr+y265GD8PLnqvHAtdZ/HBVznLCuIYmGD1J+56OtJ1R5Cc0eyJbb6XWIOgdqt3S87sEVvmI3T7DQWF8puZu7jtEU2D5tdPwXGmvA6j1zEam7SjLxHj4/+zWCI5ct35rv7jGSmILCph1Dafwt4diK3jc7IpsIcK2mmGeuCpB472mgmILT3xefDCK89n3owyt3z5imQtVs9ChnE5mkSG8mKdF1bP/jjtec/e0IiBvlnizBMY8jX1gY54Zpn0KolCnnPvS528qW3LhMF52tEEvjKoA0zm2aqS5OepxjgjwcGLSwcXViplLZdZ2fDzN5nRIwIWwaQuGU1li4EzzJAOEb8LXpLrBNj0gVFvLWBV3Jvq6cw1xDZgTh3dcQ15JrXJIYKTH8hp8Gd/SVbEO1watU+xXunpaSvdU/NzCo36eTBi96xWHtSw38WvsrFgtah0Q50JixVH8m1Zz93GuY2EA/gar87e4btLUXBNtWLxZLLOAm5eZrMyLP1HWAxxVHrbuCwAA3Cy3/89ZeLL3/163/6xhtv/cRikkxgycUsQu0iQObKBPOBMn29Wodnz95CjPTp6vzZD98TVP+lI+AIOAKOgCPgCPwXQeDhhz463b93nx7AWIQQjRMz5kTimrWLN486vAjL5fLtL3/1q0YQ3vwJ3JpWjSoquS1GqPnW4lpTRluWoS7KsFqtSBCGYXy6unSC8F/k7vuHOAKOgCPgCDgC/wQCJw8+ND148DAgO9E8oyKvoihEBepWmh97uoTZ4FkFQVgsD97+4xeVIPz2jTd/ghCDeA4k3xvfizJaRSrZQOiKAEGo63B5cRXOzp6BpTy9dA+CG6wj4Ag4Ao6AI/C+IgCC8PDhBxhmMP1TUjvnbgQhDdjToeGxXgyLxfLtP35JCcKbv332Ewi2IFaSaIKIjKIYJgs5iABCUiLqsgyXV5fh7O23ITR8enn+pocY3lez8A93BBwBR8ARuOsIgCDcv38/HBwcJQ2C7u2WigyMUD5A5SXSt4dEoYAo+u0vv/iVl4uX/vjl//rNt97+36FQRjwCoiQraUyBl9bZp3dCRRmWzwyFMDQIbz97yz0Id90iff6OgCPgCDgCe4EACcK9B2F5IEJFiwpIKnuWFcPENlEuYj/HFo/MpvlyKSGGxy997Qdnbz/762bW0GPAJldaRhMzvV5tLq8XDg/Car0J75y9Hfq+8xDDXpiGD8IRcAQcAUfgLiNwcv+D0/37D8PyYCEp+1pbBknJFfsH2ZeUGpAMePSTQapjhSyGtx+/9CIIwld+cHb2zl8jVxs58GzQxNzZLAc0rymTiRSRGoH863feOYN24en5mYcY7rJR+twdAUfAEXAE3n8EhCA8CIvlMi/aKOmOlhpqaZoojqQ9LKgtrMowXyyFILz0la/94NlbbwtBGAaWdGU0YRwZbmBRH5SXtXxRbWyAC+G/i4uLsLq8ZIjBCcL7bxg+AkfAEXAEHIG7jQAIwr37D8JycRCrAEsSglR4sXoe4j2QSkQp+QCVFJUgMMRw9vZfIyMB4QTpuIcviBSlK5/UmZDCDsIe5F9UioMH4eL8HK9/evbsDRcp3m279Nk7Ao6AI+AIvM8IQINw7+Qe6hlIRUUrC819HMW+UlhAKvtKOTRU2JQ0x+Xbjx+9+HLxhZe+8oOLd87/GiJFZDHkNRCut8u1SoJSI3gMVdNQpAgNQjGFp2dnThDeZ7vwj3cEHAFHwBG44wgYQUCIQdIb5ZAfyzzroZ8VMPXAj/LMKLOMLIb5Ynn2zx4/frn44he//CfnVxf/B+q4W417qyV/nSCwvgJ7uVfKNlBJceUehDtujD59R8ARcAQcgf1BACGG45N74eAAIQatbU+egH5JWkofUYBKUhutUBJrIZRCEF784ktfKz7/xS//yRUJQi0EgT0VpKOd/WsdzPA7a1wChoD3rFbrcHH+jocY9sc2fCSOgCPgCDgCdxgBEoTje+Hw8EhqGqGtOfHQjsbaPQG1D7ivV5L+yPpGdRWWy4O3v/Toj3IPAgiCdMuCByFvv2ouCMM7drmr67BRD4KLFO+wNfrUHQFHwBFwBPYGAYoU790Pi+VCuzpKdiK6H1sTaTnwS2qjOQFAGBBiWCwOzv7oi1/4WvH884+edONwikqKSHFEe92U4igxC7Y8tpiFdiejHqGqhCBcXLgHYW9MwwfiCDgCjoAjcJcROL73HAkC28Rrq2pkMCCTIXat1aJJ0CFgi5deDCJSnC+XZy9+4SUhCP00nLIH/DAyzdF6yeceA2tnKgUVpGkTCiqsVptwdfEOBuFZDHfZIn3ujoAj4Ag4AnuBADwIR8cn4fDwkCJF9FjifzjgZ220ISaoy1pDDNLyGSGGxXJ59kdf+MLXik89/+jJOA2nM81iMB0CZgmPgmU2VmjaZCJFK7lcV2G73oRzT3PcC6PwQTgCjoAj4Ag4AqJBOGEvBsleQPFD/h/LFKD0AZIbpM5RFZD5KLWNLM3x4OyPvvDoa8XzLzx60nXDKQolQXuAOgjWpMnqNyM+Qa8BCi1oJUXEMUJVh+1mHc7fcZGim6Qj4Ag4Ao6AI7APCCDEkLIYJKzATs124rdBTogESOEkKZokIsXFEgThxZwg1KEbeqnZjEwGLccY8ybVayAfVbAtJAIXyGK4unQNwj4YhY/BEXAEHAFHwBGAB+GEhZIOmcFgSQfWcJElCyhYROYCCiRJPQSQBUgHJM0RIsUXHj3pO9EgdH0vdQ5AEBRjkAH837uKJmkJ5s1mGy4uvJKim6Qj4Ag4Ao6AI7APCFCDcHTMNEf0WJLgAnfzHbKA+omsgwCCUBah4n9VaOfLs5ce/zP1IGz7UymUpJUU1YOAmIQxj+hJ0BiG/bzddqyDUBTBRYr7YBk+BkfAEXAEHIE7jQAIwuHRUTg8OEKRZbRz1FwGowqx2LJkL7DV8xSqqmGhpMXB4dmL1CAgzXEaTpuqCj2IwSC9GHKPgSFt9Q8oclBOslmvw9XVlac53mlz9Mk7Ao6AI+AI7AsCEmKQOghINlB5IodniY4WbqjKOrZ8RiXFGqWWlwdnX/zc46+LSHHbnzYNujmOYRj6WEHRCiSZt0AaN01J6DBNYdt14dLrIOyLXfg4HAFHwBFwBO44AlJq+X6YL+bS3lk1B+zIwOxEq6uo9Q8qFEySXgwkCIvDdx596dHX6UHYDt3prJlJDQT1ICDdUTwGwjkQozCikHsU1vAgXF66B+GOG6RP3xFwBBwBR2A/ELA0x/likQaUZzDoQV/SHKE/kPqK9CDUJTQI73zx8ReFIFihpK7rJJVR/8OVLb0xL7cc2z6HENbbbbhyD8J+WIWPwhFwBBwBR+DOIyAhhpPQLpYSVtCsRO7pWq6Af1C5QOrkKKWW5/ODd77wuS9oiAFZDBXaPUuZZTRsMg9CnuYYyy7rhfEPNQjuQbjzBukAOAKOgCPgCOwHAlJJ8Tgs5guWI2D7BIsISCqDkgOEHxBa0CyGqiFBoAfhcy9kGoS6YYjBGjXFTo7vEVrIIdhsNmHlIsX9sAofhSPgCDgCjsCdR0A0CCdhDoJgB3r2YdBODHAEFIF1ECBQQDXFslINQl2Ftl2888XPI8TwwqMnm0132s5mwUIM6pNgsSTzGoB0WPEk+xAwEhAE9yDceXt0ABwBR8ARcAT2BAGGGI7vhdmi1eoHmr3wrkqKaMZY8TVFFQIyGlBJcT5fvPP5zz76hogUx/501jRSKGlEU4ekQ2ARBdMi6OQtxRF/W69WYbVauUhxTwzDh+EIOAKOgCNwtxEQD8K90M7n3L/tS3IOkIDA9o1kDfhH+jDAg2AixcX5o8+aBoGFkmrqDtiHIQR+z2tNUDZWUheB1ZXL6FkAQdjCg+AhhrttjT57R8ARcAQcgb1BwLo5LhcLVkUmSchLFGB/Z+YCwguopvjuEMNnP//C19nNcRh7NmvqhyFM2u75egVFXsj0CJpTiQ/1Qkl7YxM+EEfAEXAEHAFHIEia470gaY6mPZBmi9LVUX8HTwL6LiLMUEofBvRjWCyWGmJgoSR0c0QlxSmMaNg0TTvFksg+LHah6RKW5QAPgocY3CIdAUfAEXAEHIH9QCCKFJHmyC6OJQ//KlGMgyzKirICZDEyzFChUFIVFov5+ee+oCGG7bY/ndUNuzmikyM2/zxvkmEFDTEIVyiiYBEeBCcI+2EUPgpHwBFwBBwBRyAnCIwGWHgBoQXpv0jSYDqEStMcWUmRIsX5+aMXNIvBSi0jxJD3YrBrIkaBDAb7ss/tV1sAACAASURBVOJJ+Hmz3YT11Qr1np+en73xQ781joAj4Ag4Ao6AI/D+IRDrICwOkH+oYQWLL6AycsXBWV8GEIaqRpEk/Fcii+H80Qt/KGmO8CBIL4YhjP3A+IRpEKxBk6U45pUV8ZrNdhvWLlJ8/yzBP9kRcAQcAUfAEcgQIEE4OYGWQIofThMqHgQGGTTkwL2dmQyTahAKJQhFWCwPzz//h5/fbdaENEeEGOgtUPcBQgtRnMiURzRsgptCGjehDgJSHUOYvN2zm6gj4Ag4Ao6AI/A+I2BZDAsVKWLPxt4tuYgT+y/kXR1ZCYEahFI0CMuD889/Fs2azINQ1yyUBFYBTwJIAf7FF+ITsXmTTtw8DN126xqE99kY/OMdAUfAEXAEHAFDQHox3Att2zKdcae2EV7E2geVdnqUCorY+1FNERqExXxx/sIffuYbkSCYSBGKxut1EFLb5zyZQTQJ3WYbrlZXcDi4BsHt0xFwBBwBR8AReJ8RiB6E+VxSGs1dYHmOiAaoDkE6OoIgBM1iKJEeefGZz/7hN4UgbLrTppmFcRxEh6BFkmyOiDagytL135MgqAdhHIen52dvukjxfTYM/3hHwBFwBByBu42AEQTWQVBJAGUD2slRSiuLUBHaBBRKKlhJER6EGiLFixc+8+lvkSAwi6GuQw/9AXQI1/ou8OdrpMHKLaMOwnq9dg3C3bZHn70j4Ag4Ao7AniAQRYqtehC0zXM89LN6oqQ5spWCahCQwWAE4dORIHQolFRLLwawDNRB0CtR/ZilOZr2AH/Ghbddx26OYz88PT93D8Ke2IcPwxFwBBwBR+COInB87zn2YoBIkUkF+IqllplqgHiC/l50htjQkeZIDcJicfEHz3/6W7HUctvMWCjJ2j0brvAc4M1WByEnCHBNbEAQLi9DP4xPL50g3FFz9Gk7Ao6AI+AI7AsCUmr5OLTzBcWHlnUoZKEIJUINpWQl4gtJCfAowHuAMAMIwqc/83wWYmAdhDEMQ8+3jCi7zK5PcoFYF0GLK4AcTKGQQkme5rgvduHjcAQcAUfAEbjjCEQNwryVUILWQogtExhi0D6P2j4BJAG9GJDmCJHipz+ZEwTVIFi7Z0txjBdRD4U1fmCIQbs5eqnlO26NPn1HwBFwBByBvUEgVlJs5/QejEhhnFQ6AEJQ1THsUFKEAIFiSTlB3czCfLG8+PTzf6AhhgFZDOJBQCYDwhPwHlz/kmrLWcllllre0oPgWQx7Yxs+EEfAEXAEHIE7jICEGE5C284UhRRmgP6gKEEQ0l7ONEdkMaAOQlWHxXJ5+ak/+FQiCGANCC+YK8KyFq6LEg1zS6t0gnCHrdCn7gg4Ao6AI7B3CESCMG9TamNszgTpgDVqwk4+hbKspVBSGUJdz0I7b0EQXimef/7Rk25EmmMT0KyJLSHR7lmnzC6OWawicQ7JYmCpZU9z3DsD8QE5Ao6AI+AI3E0EYohhPpfOy4CBfReC1D+I9RBkHwdhQKllvAQ1kebz+eUnP/HJV1gHYbPpTtvZTAjCMEhZZXVA5B4EfsaOYyIE1EEASZiG8emZd3O8m9bos3YEHAFHwBHYGwSMILTtXFIatXcSMxhQeln3cgyYhZJQahkaBBUqzuft5Sd3PAiNeBDyds/wHFiowbo4Wk2E64WSXIOwN7bhA3EEHAFHwBG4wwiQIBwdh3Yx11bP0s0xILRAwsCf1Hsgu3lVN2zihDoITTO7/MTvf+IVqYMwdKezzIPAqISmReBfIweGtyZH8EeEF+BB6PvB6yDcYYP0qTsCjoAj4AjsBwKRIMyRxSApiBJmSASB3yGmgI7NFTQIKJSENMc6tO388mMf/ZgQhHEcTpumzrIYUANh2vEe4NrXayHg5w4ahM3GSy3vh134KBwBR8ARcATuOAIgCIfwIKBQkoYYeNCnplA1B0h7LCrp7MjujtAgFNQgNLPZ5Sc++gnRIKBZEzwIwziFoe92vAfvVh3Ib+wL3gPUQSiK8PTs2RverOmOG6ZP3xFwBBwBR+D9RcA0CLN2EcqA+gdlKJB6ADFiFmKwwkn4HVo+I8xQl2WYte3lx3/v41kWA+ogoFkThIqZ98CmyVCDChQLDTvgbyuIFNfr0Pfd08vzZ04Q3l+78E93BBwBR8ARuOMI0INweBjaxYFqDkKoVHcQoWFWg+QlQnuAP6OtQt20YTZrrn7vY7/7bfEgbPvTmYoUWUlxHEkW7Ms0CJEg6B/w89V6zUwGJwh33CJ9+o6AI+AIOAJ7gUDKYpBmTchQABdg1UQc8NmcKZVaZiZDVQXp5tiE2WyWCELXDacQJgyjZDHkAkXMdkekaKJF/GGawhaVFN2DsBdG4YNwBBwBR8ARcARSiAFpjloCgckLIkpkoSSSBnRrFrwqFEsqUQehDU1TXf3u73xcPAggCE1VhR4NmlBNkc2axINgWQxWMAlMw3wL+H6lWQye5uhG6Qg4Ao6AI+AIvP8IMMSg3RwljCAsgPoD6A2KkhkM2oqRPRhQCwGdHFFJcd42Vx/58MeEIPT0IFRhgPYAhZKGIZIDm+r1VEemSEwTMxgQYuhcg/D+W4WPwBFwBBwBR+DOI0APwslJmM1akgKIFCFW5OG/kKZMKdlACAPCDkhzrKo6zNvZ1Uc+rBoEEgR0c9RCSeYtwL90QagrIs9esO8RXgBJcA/CnbdJB8ARcAQcAUdgDxCwNMfFckkiIJpC6bVAjwL+U68BNQma5lhVTagrZjFcfdQIQrft2c3RCAIuiO+jODETM4ibItVEADlAqqMThD2wCh+CI+AIOAKOwJ1HQAolHYXZfMmQgvVTiimOJAiym5tGgRoE7eY4n8/Xv//x3/82mzX103ja1NAgjOzFEIskIeQwTaEqKzopLNXRUiNAO65Wq9Btt04Q7rxJOgCOgCPgCDgC+4CAiBRPQrtYMCuR3gOtg8CyyuzNIJUUrZASOjpCg9DUaPd8EH73d3/vVdEg9ONpXVZSB2EUDYJ5D2KzJnVJ4KqIX+BLNAhrZjIMw/D0/OxNr4OwD9bhY3AEHAFHwBG4swikLIYW/gPVIYAkSEqDFlxOnoWioP5AmjXVYbGYh9/7/U8qQbA0x2kMQ99HkaKhG0MNWlQhtn/2LIY7a4A+cUfAEXAEHIH9RAAE4eDoCG2bU99GeAusBgK8CtQgSNMmpjoWJaMFaLuA933sYzlBUJEiCILVQZAIhTCOvA+DaRDwu23XsQ6CaxD201B8VI6AI+AIOAJ3C4Hje89Nx8hiaFtOnHUPVJ9YFxAMSG5D3tURngMUSoInYb6Yh49/7BN5iKGkBgEEQS4kJRgRUtDvojjRQgzIcmChJBcp3i3r89k6Ao6AI+AI7C0CksVwFNrFkt2dKVSEtwCawjCFUcWJsbsjfm8EoRYPwsc//ikLMYynSG0AQch7MSCUgP+gTSApeI/yyxuvpLi3RuIDcwQcAUfAEbh7CJgGoWnnJAUQH2q7pqg7MAcAiANCD2jWJJUUZ+9BEJDFgCJJMcSgpZqVfVjmQl4wCb6FbdeH9WoV+n54ennuIsW7Z4o+Y0fAEXAEHIF9QiB6EKBBYCHFgod8qaMo0gHWN2LZZU111EJJaLswn7fh45LF8PjJ0G1O0eaxH3oSBCuzzNiFhhlwEaQ8pnxKCUOYB8E1CPtkHj4WR8ARcAQcgbuKgHRzPAqzxVzKKmc6AezbSHOkSNEiA0ogqrpisyYJMXzi1eKFFx4/2fTbUwgTes1goP4g1x4oMQBBiF+a9ogiSV4o6a6aoc/bEXAEHAFHYN8QyD0IECSa98B6L0gkQLMXrFhSiVRHCBWrsFgswkc+qgRhO3SncDd0CC+gm+O1Zk3UHyg5YLGkzDWBZk0QKnq7530zER+PI+AIOAKOwF1EwAgCshhMS8gowKjNmpDFoEWSkOEgWY5SC8HqIHz8oxpi6LsNmzVZFoOlOebhhZjVcA1tDzHcRfPzOTsCjoAj4AjsKwKsg3B4GObIYmBCI3QGLFAgQ0aEgdUVtRc0CiVByFiWgRqExTx8xAjC0G9JEDqUWYYXQT0IRhDANJDBgDdbIycjDCAIHmLYVzPxcTkCjoAj4AjcNQRyDwK1BlpNEWkKrKs4qTiRVZERIRhDqTUQoEFo23n46O/+blZJsa4lxMByy9IWMu/6lFQOu1BfrdfsxeBZDHfNBH2+joAj4Ag4AvuIgIgUD8N8eaA1jaBDQD8lyV7ADl+OA+UCqIkATwLSHKtKdAjtfB4++uGPaRbD0J1C1TiMUxgGzWIwzYGmQZAvpKKNyh9SFkMxjU/PvBfDPtqKj8kRcAQcAUfgDiGASopHJyehbdGLQQ771BJqRgMrLHNvLyWbgRoEVFG0XgwqUmSaIwhCWcY6CLieeRFQQMG+LIdSWkrL773U8h2yOp+qI+AIOAKOwN4jsFMHgaOV/AWrhwDCwEwG/EozFqVZUxHTHOlBYJojCEIoQj9JJUUjB9fbO/Nn6+SoH7nabMLWSy3vvcH4AB0BR8ARcATuBgJRg4BCSfAUlBXDC8hUUKqQVVScJMRQSbtntH1ezNvwgQ9+SEIM49Cf4g+opIg0R5RWJhnIujeax2Anm6EoWChp482a7obV+SwdAUfAEXAE9h4BKbV8ws6MIAfpC8WR5Cd0cJRyRpLdUJWogVAEFE1EaOID9z8oHgSpgyCllseh57tAEkSYKAkS+LJYhngq5HdWB2Hsh6fnXmp57w3HB+gIOAKOgCNwuxEQD8IxxYb8MlZwrRqykQMpvVxpJoOUWv7Acx/KQgxZoSRWTOT/SUVF8otxChNzJ+3z5DtkMfTbLgxj//TcRYq32+p8do6AI+AIOAJ7j8D1Qkmyc4ungD0YNDpg3yPEgPADaiCUVRVms1l4+PADrxYvPHr8ZNv1FCkizdE0CHaBHZFiFnKgR2GaWEVx03Vh6DsnCHtvNj5AR8ARcAQcgduOgHVznLFZk+QfSu2DKhQF4wqxdBKdANAmFKWKFGehbZvw4MGHE0FAQ4eu23LTp0jRejGoB4GEAP8b4YrAh6Ushu12E7bb3rs53nar8/k5Ao6AI+AI7D0CIAjHJyehmc2i58CqKTLbEfs5GjTpTMSDoO2e6ybM2pkQhEePXmKzJsQikLI4aSVFa9hkSKCwQl562X7vpZb33lZ8gI6AI+AIOAJ3CAHWQTiGBmGRyitnYQbUPMBXQa+CeA7whQyGuq7DbFaHhw+fUw/CVpo1QaSIds/0HmhHR8M0hhzYBcpcFCGs0awJIYbBNQh3yP58qo6AI+AIOAJ7igA9CMcnoZ7Noj4x+yaO2noxVNAbliAKaPeMSopteHD/IQjCS096eBBCEbZ9Rw2CEQSUXSbLsNoHVl2RKRLCONabddhstmEcB9cg7Kmx+LAcAUfAEXAE7g4CEmK4F2qkOXKvZnlDcgQ0dMTvbA9nt0fVIaDMMoSKEmIAQXjh8ZNu7BliMJFi7OaYV1HU76FPgLdB+klPYb3ZsBfD4ATh7lifz9QRcAQcAUdgbxFAiAEEoZk1ulenDo6W2ihtmzItAts9o1hSxTRHIQiPHj/pu/4U1KLve4YYKD9U74FVT9wtkCRhDXyQaxD21kZ8YI6AI+AIOAJ3EAF4EE7gQZg1UvQQPRf0S5IdpSoy/8P/IFxEy+cKDZtQKMk8CI8ePxn64RTvFQ/CGKZx4KWuV080r4HGHfh3tHqGB2EaB2/WdAcN0afsCDgCjoAjsF8IxDRHZDFYkSQ6EayYkYoStR8DmjXiTzX6MaCbY5t5EDp4EEKIpZYtzdGmzHqKVjAp6+iI34MgDH0HcuEahP2yER+NI+AIOAKOwB1EAATh/oMH4iHQjAUyAGnIIBmJ6jWwEkr4mRoEpjk24eEJCyW99GToOxKEbbcNA/oxWO2DTIOAv7P8ciZQZGrkdhvQsGn0LIY7aIY+ZUfAEXAEHIF9Q4Ahhnv3GDJAEaRUA1kO+6h7RC0CxIrY51koCcLFOjRNFeqmDUdH90yDMJyCPUSRYuzDkKYNcmCCBrgjJNVRPAjIYgjj9PTs7I0f7htQPh5HwBFwBBwBR+AuIUAPwv0H7K3AryzMYBkN2L/Vl8CMBhAJqYNQhtlsHk7uKUEYuuEUfRZAEKybo5VYzsWJUrBx9wtllkESxq73Zk13yQJ9ro6AI+AIOAJ7iYB1c0S6Ir7Ea1Cw9SJKLiNTQZlDKCUtQRs1VSQJ0CBEgoAsBqgcEWKA/gC1EHIiwPLL2gUq/z1cEkhzRJhhGMan5+5B2Etj8UE5Ao6AI+AI3B0EYrtnpDnmHgR6/oUcsP+CdGmgeJHVFIuKLaKbug73rA7CduhZSbHr0XSpf88UR1xgAPPQ8IIVT0KaI/5zDcLdMT6fqSPgCDgCjsD+IiAixYeRBND7r2EG7ekoUQctkoT9H8mPFUMMFQslPbyHUssvPH4yhPEUXoZu6EPfdayqZMWScggsm4EXUwEjwhKr9doJwv7aio/MEXAEHAFH4A4hwEqK9+4xbZFMwDoxa6tnhBiku6OIFSslC3h9wRDDLJzcu68iRa2DwEJJyGLIRIpGFHL9AdMmjCB0HcMM3ovhDlmfT9URcAQcAUdgbxEAQbh3/74WQmIXJu7ZsUmTeRNQQGmagtRBKKhDkFLLUaQoaY6orIRmTSNIAjIWTHeA9EZjH9dSHKFX6Ic+rFZr78Wwt6biA3MEHAFHwBG4SwgIQdAsBm2uiIN/CY+C5CNCdaApkMhmmNhCARoEhBjaWRNOpFnT4yddN5yCQLDdMzwIQHIcGWZg5YOseyNZSJYyYRqEMPVPz5696WmOd8kKfa6OgCPgCDgCe4eAVVKE2BD7OTwDVtYo7t8aXrAqCdAXgkCgWJIQhAe7BIHtnrsuhg/gIcDFkcGAr7zcgtVxRngBJCFM49OzZ14HYe8sxQfkCDgCjoAjcKcQAEE4PDqm2NAO+HmIwcCwdEdIFJHVgD4MyGaQNEfTIHS7hZJADChUxP8m7cmgQgfRMkiyI2hDpxoEz2K4U/bnk3UEHAFHwBHYUwRiFoOKD2XDZodFbdyE3R0FFEWkyGKLIYS6lm6OuwTBmjV1HWsgiDARIYYQiglZkgg1TOwobZ4DK6CEGgjr7Tb0Xf/08txDDHtqLz4sR8ARcAQcgTuCANo9P3z4MB7kRXUgXxZukIM+6h9IPUWQhLJqJM2xyUIMvWUxDEPo0ZkRb6MHIXV0pFcBKRIjciWlbjO+qEFAR8ehf3p55gThjtifT9MRcAQcAUdgTxFgmuPJCdMcjRjI/m1CRa2uCHJQlIGvIlFAH4braY4IMaCb4ziwDgKbNVktBNUggCAkpiHkAALGrbZ7Hvru6fn5Mxcp7qnB+LAcAUfAEXAE7gYC1ouBTZjyKTPEYL+R7xliQC1FehAqkopmNgv3TKS440FQgoAsBvvCd7gkxIogCg2KKRQFf0aIgb0YxsHbPd8N2/NZOgKOgCPgCOwxArGbI7IYcLhXDeG00/4ZkgFp5sSoAPwHtfRimM/bcHxi3RwRYtBKiqiDAPEBdQiZSFG6N6LikrIPfJCGGNaopOgEYY/NxYfmCDgCjoAjcFcQAEF48OAB92xGBLLEAmAgpZXFa0AvArQI8CTUdagoUmzCyT1Nc4QHARdBJUX8RwowTSyYVJUlvQYolkQWYkJFFT24B+GumJzP0xFwBBwBR+AmIMBCSffuUTdIH4HqD5jFwHLLMosKGgXd202kWFVlnsXw0pO+25zijVYHgd4C9SKAXbCyIkIK6qogG1FZJHsxrFagC14H4SZYjo/REXAEHAFH4FYjEEMMqJxolRStIzO9Bzzqy/9XEiEEAZUUZ2E2q5MHoWO75yJgs0eIgb0YNIPBFJD4HeIXuQcBPzHN0TUIt9rYfHKOgCPgCDgCNwcBEylSemBUIKuALId8qYkgBEF2elRRRPihnbfh3uFxatbEokdo2wxykBEEXMQ8B7gAhIl520iUZ4YGoe8Hr4Nwc+zHR+oIOAKOgCNwSxHImzVhijHMYFWRM4LAv8N7AA1CWYaqnrGb4+HhkRIETXPc9h09CDFAoeBZTwamPqo40RIlQBA263Xo+u7ppac53lJz82k5Ao6AI+AI3BQETu49N53cv08NITMQVTtogkXp6pgiAtLNUcSLCDHsEoR+ZDdH9GGASNEaMsFzAI8BmAU+AJdkXwb8TuMY5kEYx+np+Zn3YrgpBuTjdAQcAUfAEbidCBydfGC6j3bPDB9g/5aWzix+yGqKFasmI6TA1yDUEFAMEXUQSrZ7XhxpiAEaBMCEvgp4E/WHWaEkg5BRChM6sOEj2j0PFClO0+h1EG6nrfmsHAFHwBFwBG4QAii1fHLvHrMU7GCPg74RBPEgSIqjNWyyWgh1k3kQnn/h8ZMwDvQg5N0czRUh9RDkS/ovSPqCpTziPVdXV6Hfdk8vL72S4g2yIR+qI+AIOAKOwC1EAATh/v0H9AZg30aZAvMgIOUxNW6SSooVCiZlIYZZU4XFgWkQtBcDMhLgQTANgjVkQniBuZLXOjmCKsDrsPJCSbfQxHxKjoAj4Ag4AjcRAYYYHjzg5s+9G1oE9f5LNUX8PjVflK6O8nPTzMKsmYXFwUHKYmCIoe+pQ7AaCGAUwyjeAiMLUnVJvkAc+q4P6/XKKyneRCvyMTsCjoAj4AjcOgRAEB4+/IAoDjQTUdo6S5gBIYaYjRh7MSDcgHLLDUWKi+Xhq8ULLzx+MkzDKcSHCBf8U3UQWCxJSzRa5SWmRmqao5davnU25hNyBBwBR8ARuIEIWIiBcgANKVjCQSQIzHCQegiS4ihH/7quQztrw+IABOHR4yfbrj/FC7DZD+9RKMnaPvMimtFgmCHrYb1yD8INtCEfsiPgCDgCjsAtRECyGESDYF95DSMruWwEQXQIkupIgoAshuXBqwVEisXYnyIuYQQhhhj0yiAIZB+qQUD2gtRzFq8DCYK3e76FZuZTcgQcAUfAEbhpCJgGwQ7118fPqsix9bMc/CWjoQg1QwwgCEvxIAzdcDoV1zQI2skx1kGwfgyxsYO0e44Ewbs53jQb8vE6Ao6AI+AI3EIEQBDu3X8QmqpMNYw0B1HbKLGBEzWFRUWBolRTRCXFKoUYHj166Uk39qfwCjCLAT0XUAtBQwlWD4GChqzpA0MNIAiqQRiG3isp3kJD8yk5Ao6AI+AI3CwEUGr5+Pg4VHVNnaLKC+IkWLpAOzuiHwO+EGJAdkPdNKFtmizNEaWWC2m8RIKg1RL5fY6L/p6tIzVlAhoElFoe++Hp+fmbP7xZMPpoHQFHwBFwBByB24UAsxg+8IGYcUg+kE0xJwihQCXFQiQEyGKo6jBHFoPVQei64RQOAqY5otSyNmtC5sJukST5hLxZU9+jWdPG0xxvl335bBwBR8ARcARuKAJHxw9ZBwGVFPHF8so5QdjRIJTUHiABUnox1KyDsLRmTUM/appjIgion0iewMjCpPUThRyYhwEuChAKKbUcvBfDDTUmH7Yj4Ag4Ao7A7UEAHoQHDx/GGkaQA9RaXpmE4bpIkQQha9Y0q3crKWLThwdhQoOmYZBeDIqXFUmKFRbVi4ALMs2R7Z69m+PtMS+fiSPgCDgCjsBNRQAeBIgUy0rCB9Zfybz/3NujSFHEihVeVBShrqrQzpHFcCKFkvppOLWURRRKYrlldUtAh4A35ZUU5Y8TLzposyYnCDfVlHzcjoAj4Ag4ArcJgVhqGZOy+kXaj+G9PAhVhVLM6PJYMiwxm6Fh0+LdpZbpPVCCALeEEYNhGqVtJD5ERYr4IKQ5QqToBOE2mZfPxRFwBBwBR+CmIiBpjvfFM1CWUscIYYXscB+oT9D6BxQpTmz3jDRHEISliRSHYYwehG67pZjB0hvRBYrdoIaBrgemRuB36lWABmGzcZHiTTUkH7cj4Ag4Ao7A7UIABAHtniE4tC/s29y/9ReTahLQ7plFkhB1eG8PwngKnSM0CPAgsFKiEgOQA2gVrae0qSEpclDiAA1CCNPTs2dveJrj7bIzn40j4Ag4Ao7ADUPACEJT1/QekBQoOYjpjprhgDRHChS13TNCDPP5IsxmLUIMLz0Zug1LLaMOAkSK/A/EYByZ9mAkwUSKLLukXgYQChKEcXp6duYE4YbZkQ/XEXAEHAFH4JYhIBqEh9LCOUtzjCLF2AZaogLY50EQ8HdJc2xCO7dSyxpi6PoOBY/oGbAiSXkGgzVtYqojP7gIwziE9ZU3a7pl9uXTcQQcAUfAEbihCCCL4eTefeoJpL+zRAGsTIFVSpa2z6iDUMZCSTU1CPPQtuzm+NKToe9OkdTIQkldH8KEAkkgCSnVMXoP0LgJZRn1X3gbUAfB2z3fUEvyYTsCjoAj4AjcKgTgQTg+Pgl1U0sHZm22KJEGadRkZQyKqmICAtMcUSiJWQzzsDxUgtCDIKAOQpdCDLgQKini4hAqssMjSIH+jkwEP1uIwTUIt8rAfDKOgCPgCDgCNxMBIQjHoWkakgP7ErUBShTAc4CTfh2maWR55RpuASUIUgeBBOHxE1RSxAU2282uBgG/1IsbOcjhAnlgLwbPYriZVuSjdgQcAUfAEbh1CIAgHB0dhbZtNRIAoaK0c4YzIKY8IpOBZAEeBGnWBJEi2j237VwJgmoQIFJEOiMzFlBRUYWIIBrGQsA2mMlQILcSnR9HEgTPYrh1NuYTcgQcAUfAEbiBCIgGQdIcUasIGgMLL0QtgpZcRpojyAE7PlovBtRBQKGkR1966dXNZvs3eDNaN+Ni0BXADTEyspD6MLCqIj9FZZH4ZxyZxTCOk/diuIGG5EN2BBwBR8ARuF0IMM3x5ITegLxlAogCyAADA+i/QOKQFUsyD8KslWZNjx699GTTb0/xImgQ4EHgu2MmA7QGk5AGiB1QI8EqMmUahGkan56febvn22VmPhtHwBFwBByBm4YAPAgHx8ehVQ2CZS+AMLDlAvZuhBT4hsJqCgAAIABJREFUX+rXgEJJ70pz7LvhFO/ouo7dGcWDIF8WarCfEWIAJQETYSnm6EEYnCDcNCvy8ToCjoAj4AjcOgRMpFiCEGR1i1B2OeoP4F3QnkqQDNSofZi1e27n2ouh63qKFCE4hAcBVRRJDKyjowkV8XsIHJA7ac2cPIvh1hmXT8gRcAQcAUfg5iJAkeLx8W6pZa1+DJLAL9YzEg8CBIyzuqTuUDwIbVjOVaTYM4thov5g6LpYSTHPXMhkB5F1WLVFL7V8cw3JR+4IOAKOgCNwuxCIaY6zWRgGyAKk/gH/U68BtQnMXJAshhpEAe2hyzLMmlmYL7SSYt8P4kG4RhDgLbA6ziAIqIfAWIaWYGYvBg8x3C7L8tk4Ao6AI+AI3GgEoEE4OjkJ7WzGfd3CDPAUWPllfsOQQ0mSwEJJsdTyLLTzo9TuGd4ACzEE68WgWQqs1KjuiRw1EohxZLtnr6R4o+3JB+8IOAKOgCNwSxCgB+HkXmhqyWKw5ALr2pj3ZAA5YKqjiAtZSbGZtWjYpAShG6Td8ziEUUWK1B9k2gO6I9SDQK8C8yalUJKkObpI8ZbYlk/DEXAEHAFH4AYjAA/C4TE8CA29/HnmIfZttlu02ggsliSFkpgGCYLQNGGxOBCC0ClB2G5R8Ih0Qy6aF0jSokkMW2jsghqEYfBCSTfYkHzojoAj4Ag4ArcLARMpoivjuzwIRhCMJFCHIP0YwBUgUgRBmFs3R4gUkb5o7Z7Zd4H/oYKiZjOo18BgtLxKvG7tzZpul3X5bBwBR8ARcARuLAIgCIdHR2zbLF2YGQKIGYh5qWVkMliaIxo3wYOw0+4ZdRBABFADAZ4D0yDQQ8BUx4nsoidJQPVE+SB+5DCElVdSvLGG5AN3BBwBR8ARuF0I5B4E7ummI9R/WU3R2j+zUFKQXgwgCMhiaKFBQBbDC4+fdONwCoqx1W6O5kEwHYIwkKRJQEMH0SOUsZujaxBul4H5bBwBR8ARcARuJgLSrAndHNGj8d1fOzoETX+sjSBUSHNsQy1pji896fvtKbwCIAhUO7JC4hQGVE3UgkjUI8ReDFQhUPgAr4N0c/ReDDfTlHzUjoAj4Ag4ArcJgbxQklVL5MGf2kTpx2BfLJYEzwH+piGGTKQoBGEcp9Ch3bP2YcC/cE1EBaRWSgIpIFFQoYOVWvZujrfJvHwujoAj4Ag4AjcVAauDgI3eUhwjUQiBYQRu6SoVgEcBqY5oB12VVZjNZuZBePxk6MfTYRzYiwEbPv6zVs95qqO4E4SF2BdKM3fbLdSMT8/O3vjhTQXUx+0IOAKOgCPgCNwGBJjmeHQU6qaJ3n4jCKymyGaOUmrZqilW0CJoN0eIFOtZLLU80IMwDD3rIFgfBlwZOgQjBRZmYAaDfgCqNG03SI+cnp49c4JwG4zL5+AIOAKOgCNwcxGIWQyzWZQGWLFDCzMwzUAJQlU3QX4OmsUwC81S6yBYFgM9CMMggkQlB8hukPcVTHkswBcUN4YbvA7CzbUiH7kj4Ag4Ao7ArUOAIYbjkzCbNZKJqEUPrYZRLL1s/RnKOlRlEWokIJQl6yAsl4dZqWWIFKFBsDLLekF6EEyoqGmP8ChA6EAS4QTh1hmXT8gRcAQcAUfg5iIAD8LB4SG1BHkEgKmNAToDadxEgSJ1CPIzfi91EGZh0c5fLZ5/4fGTaexPQQTQyREbfqp/IOmN+AD4EZDdYF/yQYHtoVFgyUMMN9eYfOSOgCPgCDgCtwcBeBBIENpWDvi6j0vfhVLKFOAP9n1VsVhSVZUUMNbNLMzavNQy2j0rQWCXRm3EhGADGAc8C6Y9MA8CtQpo1uRpjrfHsnwmjoAj4Ag4AjcaARCE5YERBBQ6DHLIt5CC7Oqyp2smAzwHIAcgEA0JgooUh64/xZuhQaAHARt/FmIACQADQe4kfg/1o30Y6iC4B+FG25IP3hFwBBwBR+AWIZB7EJi9YDIBrX9AooA93ggDyAE8CEhq0F4Ms3aRQgzABhs9CEKqpAhBoroirJriKGEGpEPgO4QY4EHwEMMtsi6fiiPgCDgCjsCNRYAahIOD0M7nLHooO7l9oeaBVEOGx4ByAXgOGGKoQslKirPQ5BoEkIlOSy2LB0EyIOg90Ovi94xnZK4KtHv2NMcba0c+cEfAEXAEHIFbhsAh6iAcHoYGIkXVC9q+jZ9jJUVNc0RYAUEHeBbqBt0cZ2FpaY5d15++y4OgpZXzPgzWAcrCDLjYtuukUJLXQbhlJubTcQQcAUfAEbiJCIgG4SDMFwtKBuLBnmwB3Rut1DKyGCSTgdkNEClWVWjqWZjNs0JJ1ouBF7MujpbBYHmUuLCKHYyFdN6L4Sbaj4/ZEXAEHAFH4JYiQIJweBhaZDFoXSMKEtlkUTwFwhWUHChpgGehrOvQotSyVVKEBwEvhJYAhZLwhcqKCCYwxGD9F7R6omEKFtKh3fPVFWIaXknxlhqbT8sRcAQcAUfg5iBAkeLREQkCdIWWgWjEgHWMVLxI74F6EOoa/RjKMJu1YTFrXy0ePXrpyUabNfW9ZDGYSBEOBFRPzPsxsExj1lsaIsW1pzneHMvxkToCjoAj4AjcagQOjx6wDgJFilbzQL0G7MGgs2d5ZQQX6koLKJXs6IgCSzHNse+HU4QWoCewEAOLJWUCResIReWihhwQq4BIcb1ee7OmW21uPjlHwBFwBByBm4IACAL0B9AhBO2+rDGFGFpgPSNr1lRVoSjKMKtKpDSEZtYEpjm+8OjxE4oUkcUw9mHYdiQA+EKxpIBeDCJ/fJcnweo6I8TgIsWbYjo+TkfAEXAEHIHbjACyGEAOFplI0eYLIsDyBSitrN6EggQBvRjEg7BbKGkYT+EhQB2E3IOATo2s05z1YLAYhhEGllpmiGF4en72prd7vs1W53NzBBwBR8AR2HsEoEFYLFEHoZXChggzaGEk27uZ2kjtgdZBCEWoqzKALOwQhDzNMc9isLbPbPNscYwMGnE0TGG1WoFDPD0/83bPe285PkBHwBFwBByBW40APQjLg7CYt1L12OoXYdZZBoOFGPA7K7PMNMemRR+HFGIAAWAvBvRcQC8G1R/gZ1wEP5NpmMBB2Qh7MUCD4HUQbrXB+eQcAUfAEXAEbgYCqKQ4n88D/rOaB0w20L4LwhOkbAGjAqU0aUJ44V29GCBSRFpj322FCGhIwUSKuHCeP2mdocR/EMJ6tXKCcDPsxkfpCDgCjoAjcMsRYIhhsQjtYkESwL36WojBNAj4G4hBLLdco1BSE2bzTKSIN0NzMPZ9mKYxDNpzASEH1EHA78hETLCo3R1BLFarK/zdNQi33Oh8eo6AI+AIOAL7jwAIwny5DIv5fCe8QFVAHmKwn7WLIxQJddOEpkEWw/zV4tGX/vjV9frqb7Dxb7UXA9s9a0fHnTbPWijJmAiYSd+jDsLaRYr7bzM+QkfAEXAEHIE7gABCDMvlknUQKE7U1gkWYmB4wQSKdCGIYJEdHeFBSBqEl5503eYUl0BPBXoMQA7gktAaztAnWIgBpIBOBAUZr7u6vHQPwh0wOp+iI+AIOAKOwP4jICLFJTUIFChqeEGoAkotyxys7DLDC9rREdUUYxbD8y88fjKOqIMwMc2RRZDMe6DEwDQHEqMoKGTEF7UJRUGC4KWW999ofISOgCPgCDgCtx8BhBjgPYAOIVZO1P3aiAH2b5IC7OXIYqjr9/IgSKEkbPpD37PUMqsogl1cEytaFkNs/qDpjxQpFsF7Mdx+u/MZOgKOgCPgCOw5AkfHD6ZZOw8HBwdRg7BTcvk9Uh2ZwVCUIXkQ6leLzz760qvbTf83CBxYmqMVRkJogWmPGlYQ50TKqZTQRRkuLy/R3MnrIOy50fjwHAFHwBFwBG4/AvQgLBb0IJgGQWMKUilZmzVh/2Y1RXZ11BRH1EFgL4b61eKrX33lv3njrTf/AzMX+j6gMqKJFHFBCyewUFLsIa3xC/UwoFCShxhuv9H5DB0BR8ARcAT2HwFmMShBsESDGFrI2iYYQeCMqjo0ECuyWROyGBoQhG/96W/feusn6NqIxkto90zPAfswiDiR/2XCxNxVAQKBEEMRiqdnXklx/y3HR+gIOAKOgCNwqxEAQZi1LUMM1lvJCAL+hceAEQALNWh4ATrDJnoQ5kIQ3njrzZ9g0zcPAlIceRGIFbUTlGUxyB+mpIwsy4BmTYVrEG61wfnkHAFHwBFwBG4GAv8UQYjdmBFSMJIArwFDDJbmWEu75wohhq9/60/feOPNn4AIwIPA6onwIKgnwcosQ+lI4aK2ezZdAj0ILLVcuAbhZtiOj9IRcAQcAUfgFiNADUI7D8vlIs5SUhzFa2B7uZEEVlVUL4LUQZiFdo4Qw9e/86e/feMNhhi6rmOIAReiF0FDC7goPQmqQ2B6hHaIslLLJXoxeDfHW2xyPjVHwBFwBByBm4AA6iDAC3B4eLizbxshyAkC9nOkOELMWFV1qJs61HUTWpRafvkb3/uzf/zNr/8Km78RBFZR1GZNeSfHWHDBCi+oEhLtnr1Z000wGx+jI+AIOAKOwG1H4AAixbYNKJZkRQ1tztZwEYd7iBTtix6Esgx11YRmBoLQvFp849v/4s9+/Q+/+iuEFBBiQBYD2zwrQYiCxAxRq6yI9IhhmmI3x3P3INx2u/P5OQKOgCPgCOw5AtGDAJFi9mW9GEgasloIECaObPlcMdSAXgz0IIAg/MOvXv8ra/cMYSKaNuUdG00FGbtBQdCoYYbUzdE1CHtuMz48R8ARcAQcgTuAADQI8AIcHBy+pwcBEFgmAwWK8CbUdajLmu0akAExaxfvFikaQYBHAQyDegMTKPKqInUAQbALex2EO2BxPkVHwBFwBByBG4FAzGJAiCGrexAHD++BeRCUHIAmVFWZeRBmKc0RIQVoEEAA2PbZRIk5OVCCAIrA+IV+2hVKLQdUUnzzhzcCPR+kI+AIOAKOgCNwSxE4PHogWQyHB7uVFHW+rJx4LdURhAEhBim13IS2nr1avPLdJ3/++uuv/3gYBzZrKhBiMA2C1jswoSLDFvYBWetnEASvpHhLLc2n5Qg4Ao6AI3CjEMibNb2XSJFnfW7oShS0FgLbPVdlALmY1SpShAYB4kSrpIiwAkiCpTkyxGDVFLVtJEmDEgYPMdwo2/HBOgKOgCPgCNxiBGIvhrZ9V4sE4QVCG8yTgO/RrKlGsaS6pgehjh6EX/6SHgSEGGI3R0tzVM1BrKiooQWQgzzE4B6EW2xtPjVHwBFwBByBG4NArkF4r0FLqiN0CEIWkN6ISoqob4QsBtRQiAThtV++9uNpnMJ2u5HyytMYxkHKLZsrwtwUbNqU95UOIWw2G+/meGNMxwfqCDgCjoAjcJsRsBDDEt0cUdQQXZlVrJhrDyQKUISyKkkS2LyJBKGVNMfvfvfJn//89V/+GMSg225ZB4FVFPM6CHbhGFaQ1k3mpri6unINwm22Np+bI+AIOAKOwI1BgGmObRsOl0tmIr6rEzM9CNAhFKHE6d9KLbNQklRTnDftq8V3v//kL3/+89d+BFKAZk0otWx1EEgD0JdBKyfC/cBaCPolOoQprFfoxeBZDDfGenygjoAj4Ag4ArcWAamDMAuH1wol5ROeCjRpEg8C/g8aBBQ/rKFBsBDDd7//J3/5s5//7Eds1oQ0R4YYJNURGgM2blKBIjUH2oOBpEPrIWy8WdOtNTSfmCPgCDgCjsDNQgAEoW6anV4M+Qys3LJs6dLJkQ2b4EFoGunmiEJJkub4yx8jtIAQAzZ9ehBADlAsSdMhQBJ4MUuPUJEiCiahF0MxhadnZ294HYSbZUc+WkfAEXAEHIFbhoB5EA4O0Ishef7zUEMkCRApah+GEnUQyjLMWhCE5tXilVee/Pkv/+G1H8dCSdAiWKlla8qk/5rXAKkRVmERZILNmqbx6fn5MycIt8zQfDqOgCPgCDgCNwsB8yAcoZtj9mV6hChYrCo5+GtlRRRKauqaBKGqmleLf/5f/eBf/eynf/+/QIOAEAPSHPE9/QUQK6rHgD9n4QbEKqBJgOdhg+yHyTUIN8uEfLSOgCPgCDgCtxGBnCCI81+1gxoCYGaDhhTYPsG8CBAowoMw0zoIECn+4ue//FE/9BQpspMjSi0bQTDNgeoQJH9B/ysKFlfadl0Yhv7ppXsQbqOt+ZwcAUfAEXAEbhAC/z97bwJuWVWdi87V7H36U6cKqopOoBpARUCQvhFQQAG7JEYTUaIYFdGgIiKlEolXjV4SNV4NiS+oJCbmXdO+vCQvubk3mE6JXiXedNdIJ1A91Z9mt+t9/z/GmHvuDekux7jPOWMbUuecvfdac/5rNv8czT+sWNP42DhTFy25YDCbgUqKqn+An2tljQf/2ojqIFgWA10MzWasxWCVG5H+GK0IyKUUe4TUYjALQqPhaY5LaPB4Ux0BR8ARcASWLwJGECYnJvszD1VB0fZ000Tgob8sJUgRioq1eqjV6pLm+Mh3H/tCqw0rQCd0keqo1gL8bq6FCCUYh75vlR3nFxZCt9txC8LyHW/eM0fAEXAEHIElggCKNcEKMDE+wYM8CYElGujvFEkyFUWr6JjlocwzpjnWauVV2WUveNG1Dz700N2W5giLAf5DdgJrMSQWBMYgKEBkHHlOdwSUFF1qeYmMHG+mI+AIOAKOwLJGYDDNMe2sWQ1oCNBiTYg7wM9FWQso2FQfQQxCcVV25ZUvvfbbD9x/Nzb6tFgTYxGSAk0We2A3Yi0GuBi6XWYxFFnYsnevpzku61HnnXMEHAFHwBEYegSMIExMTMQKzGy0CSNZD3KpqEQNhLIMuVZzrNfqoRyrX5W94AUvuvaBBx+6u90dqOZoGgga4QgiUGgEJFkHRRpF43nBLQhDP2C8gY6AI+AIOAIrA4EnE0oalFw2FwPdDBaDoEQhFmt6wQteeu13Hrr/bos/YNyBuhhM64BuBctiqCpaDiSIEZmQIpQUQrbloAslrYzR5710BBwBR8ARGFoEQBBgEZicnOy3ICSlnvuEknDcLwut5lgyzbGGWgywIHznwYfuRrnnLtMVO5LqqJYDBiQO1GMgX1BoTIHRazEM7VjxhjkCjoAj4AisIASMIJhQUlrJMXoXspy1lKiBYEJJqMeAao61WhgdH1WC8NCDd6O8M4s1gRzAgqApjYxDsIBFcVbQHGEFnEAg4GJwC8IKGn3eVUfAEXAEHIGhRSAlCGn84D8ntUw3g4olFUUZ6jUUbBq9Krviipf82P0P3//5TqcrFgQoKrbbEl+gdgKQAHshu4FFnCx1ottlFoNbEIZ2rHjDHAFHwBFwBFYQAoMWhLTrTxBLQqGmEGg5CHkeagXIgboYrrjyJdfdf//9d8FVAGIAeWUr92yFmexfkAfLqbRKjohNYJpjyLxY0woagN5VR8ARcAQcgeFEYHJ6TVWr1YNlMaRWBMYWavYCnQJ5IeWeQRRIEArVQYgxCA/ejc0fFgSLP8DvJoSEi5h4kv0sAQ5VCB2xIORFvmW/pzkO52jxVjkCjoAj4AisGAQglIQgxenpKQYMwvKP+klpsSazJJg3ABYE/AeigCwGCiUNBimCIOAiLNikxZlAFJi5kMCLn2FpgMDCwvy8E4QVM/S8o46AI+AIOALDjAAIQlmrhampKe7b2NdBEGgxSOWWNfYAlgPs8yAVqOjILAbGIFz5kuseeOCBu+BegMxyakGw2AMEKkYGYjRBshz5ecYgZGHLwf2Pe7nnYR413jZHwBFwBByBZY/AxORqtSBM04KQcIJ+sSRVUmTygboYUIuhVquFOghCtCB02jEGAZYDWAcsNcI0nIFql8Sg4nsIbKwqLfLkBGHZDzrvoCPgCDgCjsDwI8AgxaII49BBoLChShOoN8CsCNzjlSTAS5CBHChBoAUBQkn3P3T/3a1WK1SqgQBrASwDaVGmDjCpoJ4oL0otqwWBQklOEIZ/1HgLHQFHwBFwBJY9AiAIeVGIi0GzEC3BIHUzpOQgtSDAPdGzIDz00N3QQDAXQ1u1ENIsBvwNL6Y4GlkA+4CLAWWiQ+UuhmU/7LyDjoAj4Ag4AsOOAAlCnoeJqSk2FXt5zEBM/Q0qkGQ6CLAgwMXwhCDFbqdNoSQqKVpwIqwIGpzIgEUELlqggwY7oMhT0wnCsI8Xb58j4Ag4Ao7ACkHAshimpqdChbiAhCCkFoT4c56TQEQXg2UxoJrjdx544O5WuxUtCC3UY1B3AgkBfjbSkGUkEFa4idUcnSCskGHn3XQEHAFHwBEYdgRgQUBmwvTUFMMB7IVMhkGhJP4OgjAYpFjUtJrjQw/d3VIXg9VisBRHM0vQepDUYIh3VBdDt9vZMntwr2cxDPvI8fY5Ao6AI+AILGsExIJQC+MT45EQPFmaI0DAvo54Bb6vQYr4vbRiTSj33KKLAcWaulKPQQMb7F/zY7A2g/o0LM2x1WrC4uAxCMt6yHnnHAFHwBFwBJYCAhakODE5Gd0LlmAw6GJgDiTKPMO6UJaMQZA0R7MggCC0W6HZalFqmaqJSgSszHNKFIwg8F8PUlwK48Xb6Ag4Ao6AI7BCECBBKEtKLXerLmsrQdQwVVI0osAIBQom5SEvJUiRBAEuhiuuuPq6+x96KAolwcUQCYKWfAY5kOyFijoI6QvWBo9BWCGjzrvpCDgCjoAjMPQIiAUhD5OTU/QGMABxQEUxWhI0EYEyy3At5KjFYARBizVBSbGjtRiMINA/oa4GCiNpFkPUR8D7qqSYuQ7C0A8ab6Aj4Ag4Ao7A8keAMQhFwTRH28NZi+HJ0h1ToaSyFso8Cyj0lJewIFz5kusefODBu5rIYrBiTYNuBiooiunADAhRMKkLJUWUe3ap5eU/7LyHjoAj4Ag4AsOOACwIyEyAUBJjBZF5qBUcU8Gk1M2A958Qg3D5C1/82gcfeOBzSG0EQZAsBslXYJEHS3dMrAnmx4DfAuqLdDF0qy0HD3othmEfON4+R8ARcAQcgeWNgKU5IkgROzkcDCAGVnRx0N0A/QOKKSVBirmkOb7kDfc/9OBnkIkAJUXUYIArwQo19VVwhBaCqiniYpBfBkGATLMrKS7vAee9cwQcAUfAEVgaCBhBGJ+cCDm2/jQGATEJak1gbzSLgXEKeR7KkhkMksXwwhe+7I3fefA7v9hqNkOn3QmdTrtX5lnTGSm0oFkNaUwCsxiqEBoLC/jB0xyXxtjxVjoCjoAj4AgsYwRSC0J0I6ibgeEB4AxWWYnqyFlAUGMvSLEe6vXyquyyK66+7qGHH74LVgBaENpCEGKao7oZ0tRGIwuUYXYLwjIeZt41R8ARcAQcgaWGwOTU6irLizCJGAQrj6CqyE+oyWA6CBaDkBe0IoyU5VXZ5Ze/+E0PPvzgL5jUshEEGg007gD8oq2xCHQtIGBRzRSIWWi7i2GpjR9vryPgCDgCjsAyRcCKNY1NTPRJK6dSy1FyOXUxaLEm6CCMlPWrsiuef/UN9z/y0KexyVuxptSCYLEGIAT2SstHgiDQ+uBSy8t0qHm3HAFHwBFwBJYSAn0uBpZTkkBFIwj4PcYhJEqKkFouclRzNIJwxYtveODhBz+NGARYD1Cd0dwLltpoaRIs/2wKi2q2MBeDE4SlNHy8rY6AI+AIOALLFQEShCwL45OT0YIQ0xuRzaAdpxXB9BFQsIm1GEoRSkKQ4vOff9WNDz/y3Z9rIosBKY5Mc1S55YQQ4EJS0dECHMQJkWV5mJubC1XV9WJNy3W0eb8cAUfAEXAElgwC1EEAQTAXAwo2gghUIRRZrokLSXUGxB+gHkNZUi+hXq+HvMiEIDz0yMM/12q2qIrYbreilcBKPiP+wKQa0yqP1EmAi6HZhN6zE4QlM3y8oY6AI+AIOALLFQEoKcKFMDk9HZUUhSD0BJOeLAYBOgggCIhBKEKeEATEESDgEC6GrlaQTtQTEZgoyRAh1pemy8GEklxqebmONe+XI+AIOAKOwBJCAAQBBIAEAfs5XQmBmgimqGgEgU4BuBfgekgIAoMUL7nkspsf2brtDuogdLsMVIzqiYn2AXwWoA2W7giscAMEKKKGQ6i6Ww4e3PuRJYShN9URcAQcAUfAEVh2CExMzlQ50hynp9k3SzyolSUP+X1BitjLUagJH2QWQ0kXQ70or8qed8llN3932/Y7bKNH/AH/k6sKWVDTBP+kVgQhCIHiSgxw7HS3zM86QVh2I8075Ag4Ao6AI7CkEJiYXB0tCHaYp+QyAxRFImlQTZFhBFFquR7qI+XViEF428OPfvcTqKcAd4HUYpAgRbw6FSwTIrGMl1kSTMsZFgdPc1xSY8cb6wg4Ao6AI7CMEZhEkGII0cVgZEBklyVg0YiDbOy5pEDCxYBMhrIM4yNjV2cXXnjJu7fv3P0RCCVZuWdaEFQMiYGIKZAai8CL51m0IHiQ4jIebd41R8ARcAQcgSWDwIQGKaJYUx8RgBdByzvb32FVwB5f5kUIRU5ywFLRo+NXRxcDLAhpmiMIAq0IA+4FXjSBCZ9BLYasCl7NcckMH2+oI+AIOAKOwHJFYHwCMQiSxYBXGnNAV4IWb4rkAWmOWs2xgA5CWYZVM1MvyZ773Oe9+7EdOz/SZrGmNl0MqZKiyC13GcAIhSV7ma6iZTFknsWwXMea98sRcAQcAUdgCSHALIY8Dyz3rHGEVuq5zAopAU2NJDnuV4hNgJsBQYxZFuq1WpicnH4JXAy3btu166ehg4BiTRakaHoHJAhJ7IEpMOGidD10u6HRaITMsxiW0PDxpjoCjoAj4AgsVwTGx2eqolaGyclJCRfQrEOYCQot/5zGITARIctCWauFPBMdBFoQzrvwklt37gRBEBdDakEw7QNcHBYEMBJzL1RdCC5kodVph3arDRrh5Z6X62jzfjkCjoAj4AgsGQQGXQxGDDpVl+rH1DxIAhVNchl7PCo51soiHHfc8a/Kzjrrgtt8sCvjAAAgAElEQVQe37/vA3AxwHqAok0MTLQYBI05aHe7Ic8lRSJWeURwgxdrWjKDxhvqCDgCjoAjsPwRGFcdhKmpqZiRCJ+CcAIRS7LDfiQHkFqGgqJKLm/cePyrsnPOuei23fv2fqDVaNBKADdDjEGADoJiSSMFSYPWYlAGAlLRbDTAKDxIcfmPO++hI+AIOAKOwJAjIBaELExMTYsCshVl0ngE1l0YyGYwFwP+DlfDhg3HvSo788zzb997YP/7EYPQ6fSqOWLjFwUExBrIz8IRRHIZf8eFmMXQWID1wWsxDPmg8eY5Ao6AI+AILH8EQBCwUU+vmuHBXk0H1DGygETGE1IWQbIa8Hf8W6vVmcWwcdPG12TPOf2cD+ydPXQbYhCQkZAGKSIGweiA6Tn3VBWlkiMqPCJI0cs9L/9B5z10BBwBR8ARGH4EQBCwV0+tWtU72FvcAawJWrTJshi4r2tNBhCEsizC8YhBOPXU53x4dqGxpdVqhqrdCZ2ukgSTWVZrgaU1mo5zrATlBGH4R4u30BFwBBwBR2DFIDA+saqCnsFEEoOQkgELUoz7OJBBmmNR8L8SFoSNx1+bnXzK6T8932jeyiwGjT9AJoNlMFhAIk0UtChoEAKiIXMp8DA/Pw+tBHcxrJjh5x11BBwBR8ARGFYEUKwJe/bU9KoYpEhxJIQIFAX3cpNfthgFy1JEoCLSHE/YuPFauhj2wcWgVRnNxYCOM5MhyWgQjoALF1F8ATeCkqIThGEdKt4uR8ARcAQcgZWEAIo1CUGY7mUxaLAiYgcRVUgrQipdgMBFWg9AEMqwecOGngWh02yFNoIUUagJZZ+1FkO3smBFsRwgryHPCn4OF6867UCRJbcgrKTx5311BBwBR8ARGFIEpJojijX1LAhoKuWUNaMhSi736SHkoahDB6GEBeF1dDEsNJq3Qv8AVgRYBEwsKS3S1Kk6IasQ6VjxX5aNjFkMHqQ4pOPEm+UIOAKOgCOwwhCYmj6sgrUfQYqSkSgviz2gBUFLPg/KLZfMYijC5s0bfqyPIIAkpOQgTWmERoIkN8oLGQw0VUAHoQkdhO6Wgwf3fmSFPQfvriPgCDgCjoAjMFQIiAVBshiMIIhGEpIaRRcB/4NWQgxU1EN/Ua+HWlGEzSeccF0MUgQ5QJBiWwMVLf7Aeo3sBlyQUQkxdzKXAk+s4dDxIMWhGiLeGEfAEXAEHIGViMA/F4NAK0Ke03oAsmBuBvxaZXkooZZcq4U6XAybNr0+O/nk0356vtW+ldUcoYOQVHNsR7llxDuItcBUkshAMsQgdMQ14bUYVuI49D47Ao6AI+AIDBkC1EHI8zC1ajpUHezbInQYQwOSnxmXgHjCEEJZFMxyQBbDiSAIZ5x9/l379+2/rt1ssfASCAIzGUwxsQKzkN6j7LO4GfRmtCkEZjEEL/c8ZEPEm+MIOAKOgCOwEhGIBGF6mvt5qoEgssuioJgWbaL7AcWakOZYlkIQTj/jnLsOHDp0HdwEcDPAxQByQIJQhdBRmeVu1WEZSMQlCBVBwAMsCIhBaHqa40ochd5nR8ARcAQcgaFDAEJJ2Ownp6btdN+TW0Zqo9ZisON+KrUsQYplOGHzpjdmZ5114Wcf37/3dQxQRDyBWhBYsEm7TS2ETkcMByqYhB+LvODnpVR0d8vsrAcpDt1I8QY5Ao6AI+AIrCgEJqfWVDjkQwfBaicZAJbmiN9LJQv0EJA05KzoKDoIm9+QnXf+xb+2Y/fuHyVBwH/QQIAWQlKUCQQBRKDIe6WecUEKJqkOQqg8i2FFjUDvrCPgCDgCjsBQIjA5fViFQ/30zAx1jcTqL6EBJAhWcFEJAiUL1KpQaC2GkzZsfn12wQWXfGHbrl3XWJAiLQhwMehFKa5s6sqIQaCAEvwLqOZY0OpAt4RnMQzlQPFGOQKOgCPgCKwsBKSaoygpQl6Z3oA+QaSelpERBstqkCyGWjhh0wlvyi644OJf3bZr96usmqMRBBABZDGk5olutyMhijHAIadlAeTClRRX1gD03joCjoAj4AgMJwKsxRBUapkJBhIwYMGKVofBUh75d01/zGv1MAKhpE0nvim78OLnf2nrtu0vh4vBUhbpUoCbARdGBGTOrMnQ6bQlMBFqihKQwO/AguBpjsM5ULxVjoAj4Ag4AisLAQYpZnmYVAsCgxBhSRiwIpgOQp/8clmGERRrAkG4+JLLv/TI1q0vhwUBMQjdLmlBaJuLQSs4gg6wwiOYSJbHSlCBSopNJwgra/x5bx0BR8ARcASGFAEIJcGxMI1aDDjKc99WvYIBTYQolmRKirVaKAsIJW3+ieziS6747Ucee/RlsAIwnqCDmgsVLQim1wxiUIQQ2qjHkKGSoxRwovsBrggSC1dSHNKx4s1yBBwBR8ARWEEImNTyxNQU4waVGvTFITDmQN0Koo2QhQJBi1rR8cRNm9+eXXTJZb/z2NZtL2UGw4DUMvAEFUBFRyMDpuUMQoKLIZiRaY5OEFbQ8POuOgKOgCPgCAwrAuOTM+JiGCAIdDHQCSCUgYQglV7Gz6qkeMLGzW/PLr30it95+LHHXtppNimZ3OmCbYiLgfoHXRVIYjaD1WGQmASmRnQ6oelSy8M6TrxdjoAj4Ag4AisMAWQxYP9GFgNeEjGo5RZZJkGzGEAQrAw0Yg3zPBRFEeq1eti8cdPb4WL4f7772KMv7kJFsdOhFQFEAG4F00IQgWWkOJrQckUNBLoZqio0Gg2PQVhhA9C76wg4Ao6AIzCcCIyNr6ryIg8Tk1NSmEmFkPhvVYWykNoLso9L6WeSBpVaLqGkCAvCxZde/vuPPPrYVSy4BHcBrAhKDlKCAGpQdREFGUKuAQ9QUsRnSBC61ZaDBx/3cs/DOV68VY6AI+AIOAIrBAEhCEWfi8EyGGhRSK0IGpxIoqAxCCP1kXDSSSe9L7v40it+/5FHH72q3UKQIoINu/yPuQyJ3DKDF/vtFH0xCE4QVsjI8246Ao6AI+AIDDUCcDFgs4cFAYf71L0QXQ5JTYZYzKkouK/X6vVwxunnfCF77sVX/NEjWx+9woIUIXzUczFIBUeYHRCLoIYKzWAQcwR0EjxIcajHijfOEXAEHAFHYAUhQCVFjUGIGQxiOiAKZkGwny3VERkMiEEoy1o444wzv5Bd+NzL/3jb9q2XUwchKdaEL8KOgHRH1lyANQEkAaSgqgJCGyz6cWFhwbMYVtDg8646Ao6AI+AIDC8CLPcMqWVkMTzJi+KHcDNoHAISE0xNEQShVquFU089/XPZhc99/v94bOvWS0EOuiAI6mJgPQa6GbRwk1oL4r208hMsCBBK8jTH4R0s3jJHwBFwBByBlYOAEQRTUjRLgWQiiuZBlF22jAaVWxaCUA+nnnbGF7KLLnr+nz+2beuFEEpi0SWUdYYoEuMQKtVAkOADXBByyyaqACsCbkgXQ7vj5Z5XzvjznjoCjoAj4AgMKQJGECCUhExDIwPqX9AMBslvKFQwiSSCMQhiQTgNBOHCiy7788e2PXYhiAEzGBCMSP2DrhRrgq4CvRlS0hGX7KiSIgs+uAVhSIeIN8sRcAQcAUdgJSLQczFAB0EKNeFFDWR1LVhaI+MPrJAT0hxBEspaOO3U0xGDcNk9j23bejGCFCm3jBoMqoNAyWWqKGa0JJBt5IUShIrlnvHZBmIQOl23IKzEkeh9dgQcAUfAERgqBKKLYXKyZz3IsI9XFDgUFwNtBsxasJLPsCDg4I8shlOf9ewvZueff8lXtu/edS6UFOlmgItBCQL+xRdbIA1WwRFiSbg+pJaLgkqKDXcxDNXg8MY4Ao6AI+AIrFwEoothcjJu/n06COQGGd+j9oFZFjTNsUQMwinP/mJ23nkX37t9966zY5ojYg9UKAlsw6o4Mt0xy0ke6GwgCcnpcmAWg8cgrNzR6D13BBwBR8ARGBoEmOZoWQwWg2DVHK2VIAfYy9WCkGYxlLVaeNbJp8KCcPG923buPJsSy6qkCAJAV4NqNEvBJsQm5Ax4QPgiXA10OWRZmJufd4IwNEPDG+IIOAKOgCOwkhFANUcQhAlYEDT2QEISM3oA8MLvUFsEMUhdDHA5FCAIzzxFLQi7dp5t5Z5BEpjqmKgoMjWCxZq0gqMGKYIc4LUwvwCfw5aD+11qeSUPSu+7I+AIOAKOwPcfAboYoKQ4MRE3f+EHUDwYCFQ0iWXEJVgMQq0eTn7ms76YXXjBpV99bNvWc0AKqIWA7AUlCFGeUS0IEgIpF4ejAVYEeC/m5+e9WNP3f0x4CxwBR8ARcAQcgWAuBpR7htXfyAEtCCqKZLEHIA047Jt8QVGWoVYbCU8/6RlfzC644JK/2rp9+3m0IHQ61EGgSJJeFBfDj3AsiMcCDgatJY0YhDwP83NzThB8UDoCjoAj4Ag4AkOAQCq1jA081lrQTAYTSjKJZfuX5Z6RxVCrh6c//ZlwMTz3q9t27KAFAUqKLPncBRnQ7MlKKIHILEMUwcgIkh/Fd4EgxRDcxTAE48Kb4Ag4Ao6AI7DCEWCxJo1BMCjE8i9buMUc0HowEKSIQ38dBOFEEoSL7925a+fZLVgQVAeBqY6JvILEIMhfRKqRxaVDrSjo04AFIc+zLfv37vJyzyt8YHr3HQFHwBFwBL6/CJgFAVLLEpzYeyHd0Qo4ZTlcC3l0MeA9uhjKWjgRBOH88y+9d9vO7cxisGJNMc2RsQeW6tizKgj7EL9FWZbh0KFDbkH4/o4Hv7sj4Ag4Ao6AI0AEQBBwrJ9GDAL+kKQ49ukhaOxBqaWf4WKABaEs4WI46Tezc8+96N7tu3adzdgDTXOk1oEWa4KCIuIQ8qxgqiPvFVDRUao8lnkR5uZmnSD4wHQEHAFHwBFwBIYAActimJqc7LceKFmwEAKp5ggLQh5gTSBBQLGmsgwnbj7hNxCDcO82EAS1IJiSIsMSK9RdkHoMDFpMRJLgyEAWA/wXc3AxhGzL/v3uYhiCseFNcAQcAUfAEVjBCIyNT1dwHaDcc1+hJgsdUIsCyEFfoKIShJIuhhN/iwRh644dZ1MkqdmkWBJMEyjUxMJMCFjMM9RaiCUfLFYRFoS8qsJCo+ExCCt4MHrXHQFHwBFwBIYHgV6xpqkntSDAQwDigAM+gxZpRdDsxFqNoQNPP/Gk38rOO/eir2/ftes5SHFst1ois5wIJUH6gH9DmqNKMInYslgQwD6gg+BBisMzOLwljoAj4Ag4AisXgZGxaWYxTK9aFQMSgQZ37iQegRWZuZfn/HMO6YKiCJBaPuGEE38rO/fc5/719l07z6KComohMP5ALQmWFoGYA3zGUh2Z4qgBDchi6HarLbMHXUlx5Q5J77kj4Ag4Ao7AMCAwNr6KsQEQSjLLANolBRRE7BAvIwj43QIV87JkJsPmTZtBEDRIEQSh1aJYEgmCBiriJhaomJSV5o+wIOA2C/Pz+JhLLQ/DyPA2OAKOgCPgCKxoBJjFUFVhenq6LwYBBAGWBRMuYJAiKjiakiJ+L0taEDZv3EwXwze27dp1OogBCAIsB3hROEmLNXVYqCkjcbD8SZZ81uJNjUbDCcKKHo7eeUfAEXAEHIFhQWB0DEGKWSQIrL/wZC4GEAMLVLSaDHAxlLXw9JNO+u3s3HMuunfH47v7dBCMINhFO5rqGDsf7yZmCS/3PCzDwtvhCDgCjoAjsNIRQAwCvAirplc9IYtBfQzma5BgxQKVmqF/KNpGzGI46aTfZRYDdBBMKAkWhG4XbgYJaMB/dDGo9cBME+K/QLEmcTF0O90ts7N7XUlxpY9M778j4Ag4Ao7A9xUBxCBg40cMQpRVthZZRUeLRWCxJugg4A95KNSCsHnzpj/Izjv/4nt37NhBqWWIJaUxCEhsBGFAPiWyGOL14V9AyWfoIIAgoBaDxyB8XweE39wRcAQcAUfAEQAC0EHAAX58cpLVHBGMaKmNZkGwss/wPYAggEgw8QAxCWUZNmzc9AfZOedccN+OXbtPYwwCAhRpQZD4A6vBwIBFTXMEaQDRwHsMUkSxJrcg+Kh0BBwBR8ARcASGAgETSgJBSAMQ0Tgr2mREwfQQGLyotRjgZthw/MY/QAzCfdt27TwNpKDdbPI7KUEA++hokSbkSMLdwFKRrMUQKKDUxPeq7paDB93FMBSjwxvhCDgCjoAjsGIREAtCHsYnJqlxMPiyegz4DAgC1RSFPYjUcq0WNmyAi+G8i7++deeO5yAGAXLLsAwwg0GVFPGdNjQRMmQwqKuhK1JJRVGG0OmEJrIf2h2PQVixw9E77gg4Ao6AIzAsCCBIEcRgwnQQWIXZchAlGBEvkgclCJb+yBiEWi1s2rDp/8vOOfvCb27fvfvZ3Y7EIKAWA9MhQBS09kJVdViXoXf5EHIEMeLiVTc0G83Q6bS3zM/u9yDFYRkh3g5HwBFwBByBFYlAfWy6Kos8TE5KNUe6FVReGYBYyWekOOLF2APGKCJYMQ9lrR5O2HzCH2XnnnPBfdt3P34aLQgWh6BlnmlFqKrQRvwBdBBgN4hpDBBqKljAqdlohKrT3jLrBGFFDkbvtCPgCDgCjsDwIGBpjpNT02IlSMgByEJUVMzhXtCCTepiQIBiUdbCCZs3/VF29tkX3LdztwQpxloMIAWa1iiKinK5SBL4G4IVc5IKZEBUnuY4PKPDW+IIOAKOgCOwYhGg1HII0cWQVnQ0+QKTWY4VHY0gwMVQr8PFAIJw4X27du8+rd1pM4OhbXEI8FnoS7QQOj2w+R6kFLOQdavQQJCiE4QVOxi9446AI+AIOALDgwCCFBEWMDU9HWsxGEmw+AN4A/JCXAzMZNC4hKwowsjISNi06YQ/yp7znHP/bvfevc+kewFuBgQkWi0GjUVg5kJMj6jAFvg70hzx+RaDFFvuYhie8eEtcQQcAUfAEVihCCAGARt+DFJMCjQBEsYgaHAiEw70d/wNBIFBihs3fzk788xz/3733n3P6LQ7AYGKFqQI14LoH8B9QVUEqivypQYECDFUcDE0m0h/3DLraY4rdDh6tx0BR8ARcASGBYGUIMQUxoQkUFIZ4km6nT+BIJRlOP64jX+WnX762f+0Z//+zdGCQI1lkAEhCLhCV9IaVHI5VnymBQFuCRRrqpwgDMvY8HY4Ao6AI+AIrGAE+oIUzXWQVHFkeECS6mhyzNGCUJZh4/EgCGec29y3b28NsQf4z8o8gyCIwSALnaodsxdMnhHvl0XJCpDy3ZanOa7gAelddwQcAUfAERgOBGBBgH1gcnpVTwSJ27nEDtoLmgc45CNQMQoq5Xmo1eph4waxIFSP79uPNEVKLUMkiRYETXXEpUAaOl0p+ZyKIYiLoR2azZZnMQzHuPBWOAKOgCPgCKxwBMTFEML41HTUQYAbwbQQePhP4g5SF0MAQajXw4bjNvxldvqzz6r2HDhAFUXKLXc6JAiW5ojrgC7wgup+QPEmkAYwDnyPhZ5cSXGFD0nvviPgCDgCjsAwIEChpDwLo5BaVqtBn+ByYkmg9SAhCyAICFI87tjj7s1OPeX0at+hWQYbghwgFsFePSXFilUbWxUqO+q7SJHIC5FaRpCipzkOw7jwNjgCjoAj4AiscAQsSJHFmp5EKEkMCGJRYD2GohAlRWQ2lCXrMRx/7HFfy0499Yxq/6FZEgMGKqqLgbEHXSEL5m6ItgTNZoAlAcWcGgsLoepWXothhQ9K774j4Ag4Ao7A9x8BBCki8HBMqzmmQYjWOtNDYDaD6iAwcFEtCMc+7divZc84+dnVHMo1q4uBcQiaxYALsbRzgA4SqjhKjQYQA6Q+UgcBaY6ug/D9HxHeAkfAEXAEHAFHIIQwaEGwegwpOFaPgWmQsBxoZUe4CaCk+DQShGeeVs0tLPQsCJ1Ov1CSiiXRJNGTQGBkJP5DBoO4GLwWg49MR8ARcAQcAUfg+41AqoOAtkSVxCSDgd4Bq+SYuBiiBeGYp30tO/GkZ1WNFrMQkKrIQEW8qKiIf5UgwHIAXwYsDKbhjN9hPcB/Xovh+z0k/P6OgCPgCDgCjoBYEFBecVrTHA2TwZoMLPWslgM79FN2uV4PRx1xxH3ZSU8/hQSBpZ7x7wBBMKuBiidSZRn5lV2YJUAgNEjRCYIPS0fAEXAEHAFH4PuPwMjoZJUXZZiemmJjBss9U8oAe7iWe8b7iEUwV0NeK8OR69bfl23c/IwK8QUxSFGzGBCHgABEWBCQ0ihEQRQWeRGoIugNGvPz4djjN4R9+/bxU92OWCHyHCQCPMbcE5YuKXWneS11W+AHKzsp9xGJZ7QLMQ9gOagJwY4qicFnyIii7yNJscDnOt0AIQhLvcD1LH5CrCDogzxMXAsWEbQV7WaGhtbHBrOytE6hRfiQlMmUD8GEI99llUt8V+M1hJ0BLVWoZuSoxG/ok1MhC5TgBB7ySfa32w0lIkrzTNJPg7h15GFr3/WuxgItKhW/w/3DXNdkvFr/+eyynPjgPj3LkzBKCmVRYlsiXdGO+Ozt2SUKXfIQILiB68kYwdv4Dgp/QG0T18V14JKq1Wqh1Wrz/p1OWzAaqFmOfks/A7+HcZXxb3J93JNtx+MoMEZwb7jI5DngfXwPVi/rj9xHM3B0PEt/pa1pH9EuaZ+MO5loSNzBmJRr4/6Cn7yPPqG/hqGMLRkZZnnjc8z1ejp+Op2K9wLmFueD+1ttFPm7XatXSM2uZeOVldnMl6j3ROlWwAHs+DltDzXYMT9UJdXGc4oBxpCNRfYDz5S1WAQrYpvMeWtnUcDaiO8Cvw7vbaXiTZSl00WfgWGH7UjHI/Eqcs71FGNqr7D9+Lu0R2rCdPg7bqOlYmxq8qFx7tOkmofQbfNfy9iKmvTAGCsbxpjWpJHnL+OHyrH8jKyFEp8l41DahHkrv8vaKWsBvi8jUpRpbazYOJJDWW/OwyJrY1Ky0TDOMebxs9zVxqrNd9w+nccyZntjT75fBYaS6VgFZjbn0D583561jHNZP4GHrcMyv+T+Np7t+chQxnpv8whrmFiccX/5jmAlY0nV/ICVWqxFtEfWJO4lyZwUHPDcZY7HvUA6yjGB54Hx2VtLbJm1+wIAGfPyGZlX0nZrlyUE6u86dzTXP66/Nh9krUv2Jbsax5zgYd+Vu8jL1ldbI2R/knVBnqfsfTa27BpWG0mGPzDR+RVQcKkI06umwxHrjwr/8xv3sgyC7RnJNhDxiS4GrBtJLEJeq4Wj1q//VrbphGdW2HxQqAkPJw7mpBaDlXy2RVnWNqn+VB8ZCc865dmh2WqFXTt36Pd7A4SLjU44eY69DSg1d8gAxWCSjbOqIMyUqzATNuhOKPKS76FmBBd6XWS5MCSbVm/gyyBKJ4ZNAANLFuXegJJBL4GYeJSyRcpDQ51s2wwwYfCgR+r1sLAwH9sDdUlsgOkEwjU56VXqEhuLVc1MF/NmqxnqtRHeH4urEaWyKHhNkCr2zUiVDg7U0eBGjw29kg0MaSqdNhYawVOul4UiR3YKCIoQJHyB6a260eKzZVkLrXaT15INVj+fZbqZZ7qZVTEGBRu+LTAVsl80gBXfxYXKAgQPC02bObb27LEpYVy0Op2AfqLtvJbii4lCka4KZKmmi31vceIGUlWhXquHRrPBzbkOfDGmFQdgDPyAEe7dbWOB6YZ6fSR0qi7VQElYO13+jnZwQVTyZGMEfRkbG41zpNVohqJWk4muCx7xAr7Ev81njg7iu2WtDHhWRkCNANjmhs+M1KWP2OXQFo49EGUsrlkeWu0W+0C3XrcKtbLgSSAuiko48H3czwgGxvPI6Ai/V0PbsLm3WgxGarfQzsCfsaDgnjYPzATJIGXdNIFtvV6X8Yjn1MHCXMmYUyJLMyW7gcVfF1pdB9jEuKgH4g0tFWAHgsU+YWwrrpx3wBJkAuQapEZ23AAiAp8pnxesmyWIhpyMIqHUdnP+6QZLUqmbN54HCD7wltozgrVtbrgWN3NpuG4ueWhjvo6MSP0aEvEsNJsNrhNyYBDZeiFRQgrxc6vZCrVaqYeRIrRaTVm/uiJnDyLC54y1CdeNNXF6G7MdkrgecqPAOivksOcGNpKOIaRttBOjndqMwGrgeeyjkkteSzPaTEXXdjDBSjdWPGMl+NzYucFjA+6AmcY1C+sO1j62VQ8pgBQY4j3cv4PniLFD4q0Hw7jmyU3t5Iuf+Vz1RIy0e5u3fI/rotC43rOTA58ddDF/ZU3E2ljJXLJ9gCdGmYPoh52kcD2cuKMUgB5aU5VCa6cd+oxE4Dtc94Qtcv3geLPTkDIWjAX8WNPDGfqJ7+KPXL8HDlQmcCh7D0hQl3t6j3TYwapHFYCVrV1YFwgTnk1ZhqPWr/377LgNJ1b4A2WWNZNBBp2yVGO+OpC4mar1gNGOeRHqWPiUAfIcaY1KSkbbNa1pcYFIFgoBLrU44KbCCo3TDZIKGaRYQGUA5Gr16D1Iaa+xNlohdMPHNWkp0VgLKk1hPddTKwaqrbdiEegTkrQ1qi94E7/g+/JFndx2+rQBoG+bxcHIFgeIbtu9gdajA1xEes9WNwU7K8cDmpxSeFqSyWQpLvxunMT6GeuTnlSMWZs1IyU6PBspi4+LPBdjbPyySUQbiE5ATkz92SYAcMfyYe2ya1n/079zfiZ4pe+lk9UWCNuQbQzyWZgJZSBAxyZwShBtktmCn5pfjACxOXIUEzuFjmFZS2QSC/RqOVALFL4WT+NKyHgK1w0stfbYAhZPOoqBWLPEQmenUeKpbTALAmmtWSnMHWgLa0KII07Wl4ExanjEYWd9TRZdbla2qCkuQmj6rSQytnv2LEuzwgao3ZG5aBYimw9KsrTXMh6SdsqmUvHAYpinJ+PBMW99sflgLZK1rTdHZF3QU7/Op3ja1GnJa5jybLIYy5+1X3r6t7+l37FTqC4YsrFi0HZ7FjgZwskpVA9DhqedzGkl4DPXWWMWn0gg5DBkmWk2Hq2d2vXkRK3DjNwIxF4AACAASURBVEZaeXJtnPDtlKuz3Z4152B8kP3ien3kQg9ghgefla4fnKx6v2hx0UMmpx2weMIY1XbammPGKls8uKnqU48ET6yTvReIgVjZdCsh80qXD37WjBWDYNmF9PCM74Hm2lBNv2v4cY1F08wIbsRI9zv8nV1V6xtd+2alMWuSbUpKUGWNxr17e17PmtI/9ziPQAZ0XYp7q6Y5rj/s8H/Mjt94Em1XOE1gcIIxGuMydsQHE09JWLBzMZ+piV0xiRuomfmsihRUGY3lGY5SCEqYkA1pIwhyP/sOR0Q8Idn4wxMHCBILIQPA0jbs5G1kQwauthdkQimHbVTRdKQTj8EaOs1ssUrHkrXX4M55e2HQcfPTjcMWA3QShIMcbcDszz4pmZC3VS9bJwI2kNRCEhe/ONh79NrayUlvC63dzzZqmyvJYhxVttRUxqVSO0gcdZHjaU5PTHHC6u3TDZHvKavmSQjqnPq7sV8wVpwcOajVpYITYdUFUdNniues7hy7Hk/7eq3BwW/vxcU/IWlGBCJ+mrKbkoDYBz1pmRnYvpuSinRhrZW10O60baVSgtabkOliSHKRBALz+WIO6gaTji+eCPX522pjRCSuPgk54KmoViOBwenAFgzGDim5s0XP+obxODE6FhZa7dDttOKaiWdOM7/GGtHapWMGmzF6YRZHTv50fCXuwx4/E1OsPUdbnCwQuk/pTTfYwdNPSjy4XiQLM1eCuEn0yIJ95MncPn3PJdku2E6eLGVGWX9pRUn6YGsMr2OnyPS0qztEShjxp1SEjhOt2+ZijRNwRZx1/qmFzFwLXOdweIyHFS2oR3euvDKEp3EN0cMKN0x5PvIB2oh6Y1VNyx1YbbGm2wFDdice0uzEbusK5ieugWdpFjbBxg5GZsq39TZxBbMNAhKtS20JdEe7cFCFFRZSv0W9VEagHdPnTTKsfYM1EPODVlseUqVGEN18sFom9+L4wPckkE72DBD0tqTqm/topD5Cy1R0jyuwHBOwiOqGTYyhPtxqKckXLLAWBGQFqEvFxpgOBZm2JOTixs9gMVILp+0NcossVPZc7dHhy2JeEdegutna7Q4tcHybVjTd+HWeWhaDDXEr92zuEdqTNSQA6wbW+bVrDvunbMOmp/PWMIcaQcAfBGwZyOILMnOnsqh4rtflRmaA7rX9pox48lZmaGYVA6zUTgiD11MoTqWqvZBOfDVoySk9WUkj+5cZEDe33plWZ60+7N5JwwiKmX0ScpIsGOh/STOk9k3vP0h84gkyYapyEpEm9W8ZNqN7VhMbz8Qm6aI1JZ5w+rvfb1lQ/2B0GyQnOTmxaICpLuKc/HbaoUKm+vZ1k4yn2MQqwIHJjVtaHE99urALqeidsjFAU30NEkMjBUBFT7u9DVr8rrgu3RNyqZ5p+klIli1+HLF2grVFUe8lplyNZTEyFi0jMtbF3CefSa0Dtjmi3Wb2TSe/bWY2LONmhYUwLgZyf+tnrJiqT9Ce7yAJtfvYhpTijc+a/5BtLoowNlIPr3jFqzR2pwoLCws0a3/pS78eWh3x6+M7zUYjXHzJ88Jlz78i/N3f/W24++67wuT0NNt4/RvfFPbs3R8OHjwQfvu3fyOMjIzymT3t6KeFc867gKbwj//sh8MRRx3T2/STcWvEp8/qk8wpG4eRaCXPNI59tQjaAhfNxel1+qd2NKmmH6HFavA7tjCpP9vai4+RiCSEaJB480DAxVlmtG2cTzD7JqTB5jTX1cTKysOXWbc0dsCeL6/OddWsm3oatgGSHkQ4jcXywE0wPe3qydjiJnrxPUqkaKnV/sRjs8Q8WT+NZPS7cyU2Qj6TWC51fVD/R7Qd2T24pne7YWF+gfhNTIxzUzs0Oyvzo9uhK60+MhoXzXQuism4orsG4xWbNOKcSDQIWZckAUTDDqNi4leXN9YsuF27VTjyqKPD1kcfkfVJ3dd4Jrg3rVI6v+IhQUsPtNqdMFKrhanp6bBr1051pYlbBPcaGaknZt3o4Yj9wYERCsZYC5vtllgs1MoHN2vPzdc7REdyAvIKUgAiUuRh7tBsVEQEfkKQ5IAQLXmJBVWsJOIqFk6nMYX4DKSXSRDW/FO28YRnVrggXQwxmKsXBNOzIqQkQXz0Moh7+7T5ScUQYmYp2WzILMnELehCvic0RN6En5ksmo/ebC/i/xFma0Zsi/noTVB+3wYzP2rGbvxdhJ3w4uJvhhrdxCwgSN7vbdaD5lfpkzD0Lhm0gm8+woQExJNPeppQvPoNrT0iEPtgJMT6pAtEaiG3B9zXRr1+PCjogpiayfo2lmRxiy6fgQXcKn2li7ltsNHkq/46Bhdp7ICd0gXP3mIaN0Dzn0WDqAbzJJuEnOL0lKift40wNSXHBV2fnWFjY5A+/CRIsD+QKg16lM4na2+05qS+PIMotoEBdaiKpmRayXUcT8nJjeMyESKjjz5xRaSkMLpWEjdcPLHqKdbwNJlUZVFh84Zjw8/c8YlQ1gqOedwX1hpMq9e/4fXh8b17w5rVq8OHP/zRMD46Gh7bujV88pMfY9Dg/EIj7H58d/jjP/zDcP8D3w07d+4IW95zSxgZHSMeZ595VnjNa17HU9ZLXnJFOPqY4yXgT8dTtP4lhNhIcrSA63O2Rdf6nboGjAz0uwt0Pg9uvKm1LHWDJNY4bvLJ3IokDWRJfbHWDnsmtuHbQcD+Hq1Z9mys70m7eDo0/7iSiOhnTuaZBcrpDOj5MrEEKgnRiIbeRqtrjrQ7rmjiK1eyHU8NFiCqhAgnfzFrp8GVEqhrO5o8l148lq2fxIdLM8axWPp4VuV4tKDHhPDEyaLPLe4NeWgtLDDWAptUs4WxqYcvC3DuVmF0bIwxSeZuIFXSNaUxvyCWNy0TIOun7BMSA9QK4xOTiGJVf79aZhSY+dm5MDY2FhoL8zLvNQgVG6+aNcPo6Ei0qPAR63OGZYmxYY2FsIC4Hd1gadXmAbtDQh3jZWxhUYgxDkBoEMvTajbCmsMOD3se3y3tV8I1OjoardJ049KgI6tCu9lk/8YmJsPcoUNh1arpsHfffrHI62FodHw86hUZCTALqK3d6MMgQaDsclGEtavXfIdZDDypacS0SS3bBEBHxBfC+F4JOtKHbAuwnEp7I14mnhqxYCJTJp76DeWJaMBPUlpaHasxaEx+Twaq3puLHgNjxHRmdCBGjfZtdOYW6UafTyQLdpqkD1MkJ80awYeeuBpSMw3+blUr4DbgZqaLABmndg9XMJ+0EQA2TfucnhjNvyYToEdWevEIaad6m9ngpm+nGbtOeprm4Emcb/aekKskoCU5mfAzOuhiC8yCEgld/+LLLprpXM3PGHSp/9PGAD5HNwTubxkUar7j74qFnXrldCde0XiiNGJhLMosItF6Ik/SToLxtJ8E+sj1JNo93eTkeYkJLsYhwCqgVoaUpPU9IV1k48KpZhAz9VvAkZ0mLX6id1IRexnGv41J/ItxwoWgz2TcG4O4ztNP3BR+/ud/MYyPjYZrXn1NeMUrXxVecMXlDEj85n33hUOzh8Ipz3pWWD0zE37ti78afv3//o3w7lveFc4+6+wwv7AQXnvddeHev/py+Nb/+t9h62OPhTe/9c1c8DAWzz/3/PDjr/9xns6e97wLwpFHHyeuNSU+0S2nC74FzaWkEddJ44pS1wEwtGsNEsJIVJPNXp6pWX700DDgljMykGLb97NezywNXEDV2mZjFp9PCQ1itugOsLGWTg4xY/UFQPOSSTyKjbNo0dLgJW68tpGaZ8A8DvRty3rMfuv9zZghG2QH+UTRdcdr2VghMzDlPIvsl4bjc5gDkhWCuC7N+pLcDonx0g0ZBzvL3EoJNecCXSDqJk0scjb7ZFXNwvyhQ2FkdDTMz82GF7/05VwDDjvs8PDnf3FP+Md/+DvNxsnD2MREtBFJX4QIHDp4kO3BBnv1i38gbDh+E8f1r33hrtDpSkB2bWQkFDUNvuPOK/MYFof5+QVaJ4888uhw3nkXScZYWYZf/7W7Y2AwrAi0JGkchBFdWC7oHtV1E23nuFU3h2UfjI2KBYTfo7tTxgWC+vFdWO5BtC99/gvCH/7B74aRkbFoYURbEN8X9zaseax/1GbbESC7MD8XTn32c8JFF10afvd3/mvYsX0bHzXmD+YnyJVttXY454FY10XsaZaNwr7AqqBBijNT0w9nm054RtWGX6WLaHbJZDBywMXIgv7sNACfDYefWgKUGNjCK44dCSSRIDnxmcjpKtoKSEOFwRpP6L3PxieWNLPNpzwkPaGTFUX/Y+TA/b42nQC2rfZMuBJFSis3fGomIZ0s5qm5MzUjp6cRkAUSCNv49WcLxtNxYRYiYcuJiTuNVo4TTgNPIv2JUtc94mIbfHryNKNMSnSiCyGxGnBgJPEhfSe1xPLRe7aKXnKiTYmMccR0c40WmYhNL2g0JWBx8xjgQBKhr+lXA4Fv9iyMaPK0N7BxpPjYYDN3RxwDA5YU2wT4fnKqsplmiwIXWhvAqak5SRmzTQLftWh86yI3QW2vjI8e0umzsPiZ3nTqT/XEqdEmuSwGWTj+uKeFO+74WBgdGQnnXnB+WHfEEeH9770tbNiwka4GkBJkDBw8OBvu/vxnwgc/+KGwd9+BcN9994UPf/gDJBQvuvrF9Ll+97vfDe+97dZQH4EFIYRzzjo7vPKV1/CU8cMvv1osCOort5M2OSE3BxkV6KvhHt0hyRizuRAD0yzgcMCV1BcoqkBqcqINTt3t+kdtL32vh525TQetUdZeG89GtEnkojtK3WeaImyLcrpZyq6b+P7jNqeuW83yEKuSnMrjWqZbds8Oqs5V4In1Gt1Dmkg0eahv2nYDuCqQ4aHPQawBvfmLPnGzB8nRFHNeium7sEoEybRK5iOi6bGJgkAambf+jiIbBhka+I4u1PgX30GsESwERjhsjTx04AA3wAsuujR896H7w8TkdPjWt74RfuZnPxXedfONmkJahanpVTHVz/oBcjY7N8f2Xnnli8Pv/95vhKKoh3POPZ9j8x1vv0GselUVxicmxOKhpAmDGD5/WA6wsW/afFI4+uhjwvojjgzr1q0PP//pT0gGUpEznoCBi0ksAK7UXFjgs4IbZNOmE5gxhEMrLAYgPP/4j3/PjBkQdPW+aLAh9tQQIA2A74IQrV93RHjWKaeGb33rvjA9PR2+8pW/5DjDeBsbH+uLHeGQ6sL6AJdhPcysXh1OOukZYfPmE8Ov/spnw4+99o3hs3f9AokBvg8CxmeduqLMdaoHL3OlcT1VwgBysnp61cPZCSc9q2o2JUCDWgjqH43mNzsVJOZCpAPRmhB38cEtREdVHLySNiI+cbUaWD676SQgEBEpkGRaapLGQ7EToIV6cuHQ/FI9oZn5KxqHddSWyHfFJExzfC14Cg83K2gNkcVZ2DIXr7jwKKHRTcAsA+lGlEpYDp5SbKOx4Mu+DSkxP8aNTjeJvo0vCSSMi09ycrST2+DClJ6UjSgkK4ScbBJ9g3gyAgFUP5idbLjIKwbiz5PBYJYFsVhw6Kr5T3EzdqqYI0iRhUGSLAa0P1pYdNEyMoPnhs+blSCeTBN/MrEC0UlNu08Szc4NSu8dsUG7NYrXTL+2McdMnMQ/F4mDkhZrj+mF4Lvms8RiaZslzYIa3GYbRiS4RsLVeiKkRFgzTkByMpQ8dDs9CzHpua1t3DGgUTdiuA/ecuPNXKDfcsPrw9p168Oxxx4XXvHKV/NZWvtwbabqtVokCvv27Q9vvuFGphTSQldV4fE9u8JnPvOpMDY2wTl84olPDy98wYtoHr3pHW8kQcA1ce94uNBTpxGfPuzMv588J7yPE46EoyipGLACpC4HGW296PR0Dsm+LFYvxhXgdDeQ7vVkpN++Z/9a8B0PSklb4jxPDgT2nZTk2d/ivE8OWzyvWzCgbsPCJdSKFsezjlYNFqRjQNMGmf7LgDWx+xM1QqIrmLAZta5oOrfFeOlJ0Z5b7HOWiUaJ7gWRVDD9uZRTL036kmqOF+YoxhD+3mg2hRCquwE/m/aGnL4t+DiE2YMHAgICr3jh1eFvvvl1nqQfefSx8Jv/9TfDy37opUKRulWYXCUEweamtKEd5uAiGB0Nr3zlq8PnP/eLTFseHx8Nd9/9q+EHfuDFtLxhDMAMT96UEFIUGMSYh68e8+L44zeFF155NV0K77zpJxjLQLJUKzV9FBZOCeLEWMAGz3TWoggnP+u0MDExEeojdaZiH9i/L9z7lb/kugUXiR0C7FHhwc/Pz4XRkVHG76xftz4858yzw9/+r/v4nb++9yvRJTg5Phbaerg2jQ3ELQBnzL+TTzk1/NP//gfOZ7hcbnv/B8MHP/C+MDI+EVoLjTAKgoJnlJACgqFW/TQGgXhrXALmzNTY+NZs84knV2R9OAEgDsHSG1M/qQ5mAVlEjOJJIW6mdopXE5BFevZxUGPvCS01n5bYjeQNMxWoJaG3sYnpShh9T2uBC6jqJtCEw3GbRDT3307wSQZLat60r8vJWK6TmrF7nKd3OkonkQ3k9JbxhGMulWRh5B0SM3f8ft8p/UkigO0G0QRjM0CDEJPFi33VPGEjPzZhYtsTX2l8BImYD7+fdsruq39LT9Uy/jTTwJ6pNk9cCJpESatNz2wfN/EYCCp3tE0mksXBYDZdBK2BPC1GkRLB165jPrie6co2Ght/sozwgJYElz6Zmyee8tNnYI1IxrJhTqkrJUt940NPmRLvI32mZ9AsIsnilloRjEhZ9LGlTeGr0Od42Q/+KK/27b//VoA/8xknPzscPHQwzM4eYu79qpk1mrIsC/H9D3w7nH/uBWHn7t1h69bHwtOOPTa0FprUl5if3x+mpibDjh27w84dO8OzzziLG8nDD/xjOOroo0ks/vTL90jhtjSa3+ayEp2UAAlEgo6daBkVrzne0SyeghX3vuix70ud7Pto8tz7SHJKIAfWBjv9ynLUE7npPeseOY4BiTEroUdYLKOhj4jYmpPELMU5lbgc7SRvaxrHYx+ZEHeKfDe1JtnfVXeCuCaWg8SCYZhz7TPCLn8kqcSGwzmvhxHAzhTaouDGGlPw4vzHd3Vua1ttPhtRS1PMcb25uTkS6pnVa+jq2rFjWxgbGw8/8IM/FL7y1Xu5YYKoYizb/OX40UkAFwPG4FFHHc3xfMQRR4S9e/eE55zxnPCn93w57D+wn9+NGRjWVs2+mZ+bI7HZtHFzuOSSS8NZZ54ZxscnwttvupG6JY/v2hlQLhnDKBXfwvrVXGhwz4QVIH2BuDz3uZeG+775jbBn316xAOjzs9GOsdRYaIhLQ13Tr77mx8Iv//IvhacduyGcespp4U/+5I8YWEyCohl6+ni4IDJ+AXoyeR5eeOWLwqOPPhJmZlaH5136vPAnf/Lfwle+8heyn+qhCzjLdNMYO9WhSK0H3PMoWJbx3+mJqa3ZphNPrpjaqP/ZoOhzMxgj1wkdT8R6akgnimzcMoliPICs8DFOIU42Q6x33I3btgTACPTyefM9WQ1rUU8z1a1kP5VFDxH2sd0SH5BaBlRqZWB5kF8tgMOsA3HT1k0vntj0AcRTw2Cq4oBFIHZTFxQjKbIQSfsGsyIMWzNnsx9J6t6TdcCijK12Bjc7XXTtJIo28zSfMHObhDGmQYN9IjkYIAmD340D0FwBGkhnanSRCGn8ADdCE/9I+mV+VSFpQtCs/4YV+5SQj7iQ6T1NM8Keubkq0o3IBFX4HNTakarbxRTcZEMxU74p23F82uKu8Rg8bSaR8KmbIbpDtL9msbOJi/vjvtE6YSlo9ncNgLS0u3Qs2vjiQh5CuOyKF/E6qLEi1hPxL+7YvjV845t/HY4+6pjw7NPPjqmKglkVvvH1r4Zt27eFH/rBHwnzjYbMCVWvg8n0y/f8t3DBhc+T9DYOGpywO+HPvvzfSUDkT71MJsMDz5XuoqjeqIIvRoCSU63Nh761YsCaY2M/ffbp540YEsvUymRZKGkQYZr5k4yrdH6l1gGzKFj8iFl97HnamBLsEPskT8cOG6KL2osl6LlmdNtX91+kyNEFIcqRhrtZSqydYuFT4biBxSHOhWSjlHmkVmwj7DZ2bUPRtttcjS66VN8jWTfTQ4iNScGulxoPfCDxj5M8TsIYe+uPOCJcdNHzwo++8uXhi7/+pfCrv/b5MDY6RjeAbgRyWFDsFubn6cs3AgFrxAUXXRJuvfmmcOt73xPuvferYXJysmfJQxqlWtjwTECUkRKJuQfysm7dEeHlP/TKcMYZZ4T//NEPhwce+A6JtWWu0QKicx0uiLnZQyQ0tPSFLMzMzITLLrsyvODyy8P7fvI9Ydu2rRL/YI3W/Y7rabvDTR7Xx9jcuGkz97IfeeU14eGHHwqf++xnRJVTxyLXHU19xG6BGAjMowLuoG5F98jJJ58aXvaSl4X/9/d/L/zu7/5GmJic4tgjEbFnrnEGtg7i+tgHDF8SCsSK5XmYmZremp349FMq3AxuA5jhbIDHhUsv3Dc5ElaZbqg2aLnYqZJWGrwYowP0CUvQYxoYZ49eRgE3wsS8zQGmLonIvBNzs33bAo1sE0nb3jut91w7No/iSXMgi8AWPNtArU19J1PDKZmUPe4uf4wbau+GfVNYTIS9NMQ4rgZO6+bDNYbOwNJkAKSLTeoDTjdZ22i5eSnhEA0BkYi1SZ72Fe3hApQsMHERTiL3+dzMhDoQPGgn4LixqavKYhXoKxM7s/hjUzN0QvJEnU1iZHDN2B/7TOL7Ngzi9dD+REtB5+2ArctGa08/gPjpf3yWpn+heNByocXMBgM+YxxFYqrm3FH3jAUCp23k4p/0I5pIE1upbRAk9Pp5jAYsrM+//EqehNhd5pi3wt/8zTfCI999MIyOjpEYHH3MceHoY44Ja9asDQ8+8J2wa9d2RlOjry968Q+JKp9uBCDpuO5f/sWfhjPPOl/XFFEtxHt/ds+fhAMHD0RTblQAtI3dBo5aF20f5jpgYjxJdgMXyGSiJ6tD33i3X1JSMkgs0olm8yrOz4GxEC0ziasjXRvYDm0nY7R0U+Z1ExdmXC96DYzWsHTPiOuLbuz2vdgfc3HqiT51fVi7etCqUqqeTPH3IgHOdAGg3WKbj8WHmCX1yVJCrU02Pqltkx5oLINogEykc8vGso1rNAH6BQt6Gka64HHHbWRcwj/8w9/ShI+MAsP0CXiGEA7NzXGMYqNdt25dOOaYY0l4vvb1r4VavWZRB7L+JusWfoSVBKZ+uAVgSVizZk047tgNYWFhlrE4uGZcO/S76LdNP8x1WCGQCYE2rlq1KsysPoxrwPbtj4WsSGTeNbiSmzxSLRHjoQrGUDhF9tDq1WtYXAkplyDqiJPgvOZBVBpgFiHcD+QKgYhYd8bHx8PGjSAZeXjooQfYHosVofVA5zBTtPUwNFjh0bQRRF47D6smJ7dmJz3ztApMhi4G1QyPJEEfdt8DSjaIOO6xNjFyVQykduJkEEyijtg3SREMmOWhrf/aZJAFvyfTan7XlBBwwUsYa7oRK/9WnQT97V84EaQT7MlOHzZ5DdTUfGonddvsYgaExU0kWNjp2tpqp5pIWGzwJmbl1DVg+PAkYvoBSUYCN0kZQTEA0lL74snhSU5MNnNE+KrnThkUbkqtChxsNnCfpI82XkwvQJplplDZTPoWNpOvtPYPWA7YxlS7wAZSunkmAYMgndTsTwJN+xaIARePTr2oxY5RY8/Wnn/83cazma8H5kM80WE+ab8FY8TV9PuXbZ6kVgWbP70u9rTrexjKEyUBNpKRpD0Cd/pY4Semz1r8x1gIU8Ebs4YwEvq0MxgkBZ8s7kM/c7MhP2s2CvdB1h3paVyQnKqADBZU23RSbY1BDK0fZt5M1wkbZ5SxtfvqydaCdfu0TZJFJbUk8J5JFhLnB+W0e+mY6Zpii37MSNC5YmM9PamnBw75WQ46ce0zN1LiSrC53LcGxpO6qb9IPI6Znc3CaGtdurHa84/tHlgT7e9pcJqtD3YSTq8RT/1JFldc3+Oa8kSK9mRELFpT9LSe9rnvZ7UMI0ge5nR8T6yaXZ5+2Qfa9/UApBbbGPipz3dufl7krDFeSkgrhzCzaoZpgGyxrXsD6yOXlapisKNha+vSxORkjNNKn3f/HibibwhYlHkAWeQaT+AIDqabRu0dcg11Ierhl+OGWhDzYj2G5DeUiaHdgGVc6xDFtV8tKVw3oqw+5AlUSA/WgnotjI6Os+/cJ9NgX+ClZBjkC7ikwc3caxMCsWpyWgiCqVCRCZtAUlRq0mhdZcmDm41FpMbBlPjZ+AB040rNToN/l4Hb54XoPYc+C0LPLDfInAcnXnq/qEL2z47UJ38jPTWYH42m2sTCkP4cN33bEAbMiIPftcll6g7pJm95CulJv0cjbUv7FzqUTnSLR9B/U1acWltsI0s3x/hc0z4nJ3mbAPoIo+mzd4yUJzH4/NPr2rIT8baTehJ/IHNbN8akLXZtnn4s5dIsXElsBy1SGolM87DWWzACajjbhiBpTT1Tv93fghfjs0vuxXGdBMPFiHvMpcE0USNYmqIrFjOTUlVCQdxkexDChg1EMxaMvNsCmKavJnEO8fkmlikOT7OEJMTLfMSp9cieTTx9WaBdsuji86kqY3zgkM9Ng6Msd18LGhmm3AiitUQlogdwlftrnFPiYuvbeJNgULMqpe5P3o+fsQyr3oEmbp4prjpIbY6n/w7OvHRTlEyERMY9kaGXxd2OMXKVFGPDPhLyZA2R8S+fNmuezYkYSGxt1n/jyfFfyLixdccIrRF8s5TENa7nO5bnlZBTW6/ScRL7lgiuRQKZnOj71gddoyw2wtLx+tqkLuQozjRgpbQaHKnvP12fDEWa05PYLFtD0mdkz5nPRce+HfKsr/xX90erxWJCg+K+6MV5pOMmBr4mFmCkXUKAScyiak01yWcG7Sd6QPqzhTaH3wAAIABJREFUkXgQd8REIPtk0DpAt625K3QeDMrQY26wbxprsmpyamt20jNOZbEmmsogpIK+WiaDLngaGitiM4MnRv097Xgfwx7YHKIZbiB9yRYLm2h9vviBk0C6KceNpu+U2jNPx0GqFSh7wY2JVvXAQtA/+SUP3dhsX86znR6TgLTI9rg5SedjipXumk/k4b07xglm6X2Quk1lJgYIEydBoujGQWAuCYsZ0BmB9yLj7ztF99JEbUGV5xxXJ1nzNQvAFnQjh/Ge8hB70cIDkcdxwbGIflvEbAyZ5UXAloN1+hnbSAakltNnbG2KJ74klZC+74TAxoXC+pZq6av7IB2Xxr6lv9LXNFpb1ome1SrOAw0+tPwYC2DD50VURU6fcSwP/G6bV9wgWQxH3S8I6oO0ql7ATlx2euYzT/CNYy95TukGEIlSJPdJ4B0brFaQZFEUy5kcBWR8QQlPCJYt7OmcMgJqcSK0+HDRl8A7EunkWdjCNmjFsvHEZ9S3DqUmWRnHVlgH17L7x8wQnWsseAYLQxJrZK4vGzeR9NlJPxG6YhsUH1pFNAUS0zNdE4mRpkzGA1RC4s1dZC4tI0/Wf1oY0kJGiSt2kGykJ3x7HjGuJ06cnvvT5gTuabEw0e2ZTBgONyW+yULR5+rrW9P1hEytEd0Qba1PxwY308SlEi1RcW3Q71umFSyf1I3QOJP0eZjlwywPOmYjERjIHErHkywUveNPnJ9JnFk6Z2382VoY34trcC8FPhKKeOjpiaXJWO4dp/ralJD8dB7b80mt05aNx+c/cOCiVUmzGOJ8VxJn9UyKej2sXrX6m9m55z7373fvefwZTFGimUYVExPTKR5oKuKTjKu+SNe4wA2c8MjIkhNgn9/YThUDpvUnO9naNWzBpAnSNpDk++nGFVP1TIDH+jWwS5switUZsIUEfZdCVFKaln3RimGcRGqOZc6tpt/UC4kCpmSlmkoR1CIlixGEljEH3fJ0OdeS+gYInhPpawll6rah9a06/xFkY5i9uIDe6aOXEJJOvnSxFhiqUI6MhXZDlMTyXCrMwfyEz8JMtoBUmdHRaC6D+WtifFKrayJ1SkxjZK1lIalwnTZ930ixgQ/RRENAeBlg1WmH+ugY8UTe78jouAZWFczvhU8PL2TXTE1O0XcOHGDpajTmqeiHSOu8qFGiFdHMjBZGdPA8zH2dMD01HeYX5hkpjfbj83iKqMCI/GYIBsF/h5Skw9au5cI2MT7B/ux9/HFeA/eFWR7uitHxMRYmQ9Q0fJvAh2InGlFMMTlVOls9s5p+0GanE1ZNT4sSXKdFTA477LAwrylSCw24AaqwenoyrF6zOjy+Zy/73FhoMhf9yPVrw549+2h2XjU9Gfbu2Rtm5xfCsU87KizMN+ljHB2th/l5KLLVGKy1a/eesH7dYWHPvgNh/4GDbOfc3Gw4eOCQ9KEQE+bePfvCyGidkdAYiyz5rlr8Bw8cDFPTU0zDospqV8yYeC7wdc7OzvI95sXXSrYZWQzA+uCB/WFsfDysXbs2HLZ6dZicnAiHH7YmHJidDbOH5gLMwcAa42X20CGNAq9CrTbCtQfjHIFfhw4h00KqHh62Zo2WXO6G+UYzjNbx3CcoFtNsNMPU9EQ4cHA2ulPQJ6Sczc7i2Y+wj1u37wiTExPhsNUzOsZRRVFEalbPrApI9QZ+IA8LjSYFdGyOrF17WNizZy/bPTs3H8ZQFbONZzvFCqUwiDDNT6t3wg2D8XVoVvzjU5Pj9LNj/h86NMf2rJpZFYpCotnxQobIoUOzPKjNzc6y/egf2ojvIZ1v7759odlsh4nJiZ6YTpGz3QcP4ZmMhEazFaYmJyTlkBVk8zDBVDm4dKX2AZ5Xq9nm82f1VLieChEew1xGZdR9+w5w/UG7ZudmmYI+OgJ8Co5NPBuscVZ5Fc9zfGyMegeYO5iXaDvaU4OSoRIz1AyAeuLE+DjvDewx7jG/MZ7QZsgXo2oqsmfa7S61BIA7niXGw4GDh7iusvor9HvaLfYfOKxbe3hAVVxgOTs7z/GHa2LeA4fVa1aFvXv3B7QDzx5zYffuPXRNdFrtMDomax7mU6uFg7NoXxh5pOIjf8/CHGSiMf+bTaZc1kZqoVbUuO5gPUf7Ma6OPHI98UPVX7Rx67at/B2fgYx5WatTO0EIlZRJRzVdZItInQYoTraFsHWrgHUDz4j7j1ZQxRjB78wCgpuF7jlIJmuQJDUvWlxr6X7AHGT9C2g35GHfvn3EF+u1xbYdvm7di7MXXPmD7ynK4kOYcLaBYHBTixriF5RgxoKPySTBC1z0tUa4WFYSaU2aelH2VYFEw2mREOENLO7N5oIEhtTF3ymMXvzGDLow5cQ8pxgEBgDaJn7UMtRKpL3I7xhkuJZEbHY4SRg0EgIfMn1CyIWlf1SiaDnhxkZ1INQ52LGZMW1EzWbiQ8JgRynhGgVl1nBwHaDGtmycI9EMhAUA39GjDAc8gMdDkPLJLW4o+Aw2GAxGSt+iZPTICBczbFzYQIET2oeHjMW/Vi85obmxYRFC3nEdk7stghhtWdwx6fA+pHKxmYHUYEDPzcnA5KBvI79XBiHM17gmxVLUEiF+ZOnG3HyDixsWKpBwtHPHjl3hsMPX8J4mdiWDV8qG4np4YRGFbxGLCRZcPC8McEw6XNxK/GJsYDHEhMbmI5NP5D+BKZ4v2o5JaH8H7hhPLKGtBIzfY1VSydG2VC3gzZOcnjjsPXwPCwlwsmqKmHxYgNAWTCxMQjxrxOhQK0SMBhy3CCDCe1LcTNqCsQYSgk2LvnwjTlpWeHJiLOw/cIiYYKNAP9AnGzu4BwNxEUOg2iQUNUKgFnKZC+R1CzZY9DAugS3KIxMHkFKeMjDGsUiI3oGUZa/JYo2SyjruUOhGIzzl5NfFeEHJ8RrHqllhOMdZghxl4UFaNe0usUKIpKxYGzhOtTwyroNIccxh20RlMesdMxh0x9Ncxs9ijKI/PdlYs8poqh1jLFBWWeaKlDSXxRKbklnizWKEOYg2sUR1wMI+x3VFFB5l/WEJYgjotLB5TWjxoBjS0wtMY3EiPBOpXcMaLaWU/Ma8wvdZVhzpgMgewZgw3QBsgiSXGKsgSSg0hE1WFnt+rt0WHzRqCWiKHuoVMF6DVgkEjcrPuL/hbM8HQaTYmFiynCR/lKTbFn1gJaXgsaZLPAae+UitHgPUOZewYbaFAIDUYe0YHxvn5gcMQdb5HEmGZMPBs+ttWighLkX9LGAd48rK0mP9xMaP74lyY4drlVlXJILfioNJ7RJcH58DpqYjIKW0pQ3oo5EXzEX8nXuLPifZ5IGZaDhYZhfmkwg8dWU9TQ5rMZ3UtDsscFaDDdvQRoiOH62DoRZGKU1extgwpkdynZD0RilXgAKJEpMV91gtr43+yjqFMSWEFeNLnq20FWtTLxZO1F1xbZGnlj3XXjEbBKSm3RSxQ85ZOS2LhVmsC3sefzx0W92rsldf+4b/fuTRxz2PJ7n6CIu3mCYRpFWbTWkABtrs/BwHEn7HAwSLxgNh1TdMtKKU72t0ORoK4PGvTEKJSJVCITJ48bDwGUwGAMETNiQmk+p4ZEU5TuVg+UIqsIjgZ9nYUEsCk11quiP4Ee/z1KjmeVkIRCxEaq1LbXngA1JCQmNm2oCNAoU25A/4HAYWJzMrZok5VLApONlpHcDHq4obHk+YSEXRiYzv8vSsg0Ymupz54TeS0xK+J+ZZvI+FBwNfNqsaSYmd1G1Q4DsISMOGZOTBBhrIDcazmDpVNVHN7KhlPzo2TplSngIYfiIbABYxkEQsBlisLGpaCogUDCjiPbBZITCnPhLKMg9zs6IOhmeIjQ3jA6cHtGMKJ/35eUlroqiK4CkRtppfjY0hy8Pk1CSLuKA/PJmMj3NBYvAsiB83RiyCEGhRIjWnBAtpSySPNbLyPCuaHF8gcywQI+MEvy/MN4i3TFB53DlzviToDP2m1aibKMSRwMComWcjo7Wq3erohlOTwimYK2PjEFIh+Ea6xToINRu2IcuLWiUkuqKEMebR7OxsrVarl4iM5sae5zwtou/INOI80I2Yi0OzSYvErl279PQIElXy1ARrg5WunZqcnIPVYtWqGW5aB/YfIDnBgorrAlOcDqG6tnfvXj4v3AcFn9AOjDsjIFxkslA2mo06iBLK9GLOsZIcvocceixKumpSzCfI6RMWD/QfmxPaj3mMeUiFSWLcmq2VtQpjDmuBFK3Tgl1KmuKchGVPSaeY20NVljaPETxm0e+S2mlWQMxfM3NbG+hi1fkpm5qmBWMdKAVniW+RcYWce2CGcY51a0GDOSfGJpgWKsFmomIoZDvn6RIXljHdpJWl2RALCaYmrCazh1CoCOtHLRw4eJDro0T4gyA3hFjnsm7JJiB1M+TkKSdEWAFhheE6C2tRCbLXlHZkInXexOag7cMYwZzHuKELizLEYlnB/ChqJTNe5uZnw1gdlj2pq8M1CoczSAHrBoP1AIc/bPRSqEgsx/VyJHSqthQXgpWgCXIwzmcra5XsDTj44TkstBqhrutsC++jt3qItCh+lp3WmBRck3sHU/qEmNEiZVlvGEcd0dcgjrbmNht5BtMJS0mYgB8PT5kUbGOlxwprRbfViZ8zQtrzMCtZa7X57DDV0X5WqlRrOkXiWKlWSHtZFiLCqrt3JICaBcXPBhDeBvHhoVvcUpmQCd3vlMzE1OFuFxbTCuMmWox1zuHv3W43y7OMYQXmKi1rtQr4Wfwh7rd37z50/qXZ9Tfc9P7JqZnbwZrJXrG5MShCfNuc/Fwoe+zcTv08A5iPhSRBczXlyKFsUSIubUByE6PJSRicnVLs5M3TrT5onIyKAgsvJhaZ8/9utlqPZ1m+EzfoVJ1mWau3qGetAOI7cgotcZqY73RaDVyj02l1+TfUnGh3HxIzcysva7UuhT+qqhqp1bpVlVdZ0c3atAGFbp7lnSxnUlBooRRuF5oRXBCrdqfqYJFpt5v0wEqIh77XblcdJt2KklgXJ+eATRFX6rCOA09qCy2Goo+SAMjpQ14Ub+ZAkD/hQlyVqHIGYoA/w8zOEr0YRDh1L8jJkqxTNcgD7h2FH/AD3B/6B2sPPgKZb95a7o3fGCGrVgFpV+/v6Ev6FlrQSks6a9RKpysRtbQy4AtGDrQNnVYnthU/S1ul7/IsQcIUFbpd5Frx/l1pd62GNENSOm1zEUZr2d9186LKux3WuJN8m/5XPjLagdxJo7FQ5PlopxhVWZQWrlkLbD0JXA2LEKa1XKdWh17x4OWwoDbz0aIdmnj2nTaWJNCT/Y1Gd7Iss3YbLKTRbeS5hGdrRbvHtu64pd3tvEVO73JqEpVG/TeqMfZiPSydVFTW8OqdZ2zRufC884+EhVBesNLM0QT8ZK/ZMBdmd4q585973fu1e6+dX2h8lBuAppvKQqiWQJW4NZOLWQfsenkGS6ScVkyeFhvxMUcdcfTY2KbHzz9/XS9vV7908ODB6pJLLqnuueeeDP8Otu1LX/pS+OEf/uH074nbWCI0Kszp5EXCtgxeVfXEMf2vdOuf63cfPv8GaJ5wHWD6VHEe7M8999yTf/vbU9mJJx7k/Xbt2pVPbp+Utm4OYceOHdnevXuz1atXV/j3wIGJf6Ef20IIR/KrMzP5VJZ1MTXjq1UU2bgwgIB5W3ZQcxHpmI1apyyrop1nnVrVqXVqVbO5UMM+kH6/KLDxd/MAI7eqHTYaVZ7nWdEtulUt1EOnaGed+XaBfjabzbIoCpj+8g4KSPwrr263kzUaDbYPBDHAEq3fGSnyqtHpZqsOn1kIocY1qyhKXrsoiqrT6VbdopPlHSa+BuhPVVW9Va+PxkUsH8u73W4374R89s0/9oqt/2qD/rUG+/uOgCOwOAjc+I73fGJ2dv5tjAegW64bKlZgRPUTCVEc1CexILReIB9OSmIpk0VgNPzK5z+9qPP8mmuuuz6E7E6STFrItOSvkgRUZc0KmNKtnJmcviWFCv8JMRBLZE5CC2vETD61/vafedfOxUHTr+IIOAJPFYFFXTieamP8+47ASkbghhvf/bFmo/UOuERgamXgKsiBRsGbSJVkTiSGkDQdI8n0AGmAefqXP//zizrPf+Sa664vsvxOSuvqAxNLhwTs0WaeyGnTtQOXDWOHJDfbrJD015clXWQzmROElTz+ve/Dh8CiLhzD1z1vkSOwdBC46aaf/IWDc7NvEn9qJ1SINtbca8b1qOdD3A89XQj00CwGEmjUm9bwkf/y5+9c1HlOCwIIAp05El+U0f2BMARxHYj/GZYF0XbHy0RYxIog1QRBEBAXgLiU1dPT62+/3S0IS2fEekuXOwKLunAsd7C8f47A9xKBt9/0k78wmxCEmDaHNENNoWDUtroPLPNnkCBYXA82bsSq/PLnFt/FkClB4L011CpKdKNKKoL+1M2AwDkhCEoU1PrBVDWtiAcLwsTo6BEf/vB7d3wvMfZrOwKOwL8dAScI/3as/JOOwPcUgZtuuf2XDuw/8HoppwsXQzsERKQzk0ZUGi0q2v5NC5al6cJGEuDb/14QBFgQmBKMkuqaK26KoCQDJASS+soUA9URkfckjxaxEpayS30NJwjf0/HlF3cE/r0IOEH49yLmn3cEvkcI3PSu99998OCha02DABYCKcEuQf3Mu7diT6agqW3BRhvf09QqM9/f/bnFjUGgi6EYuTPW1FARL5AYuhvQbrUsMIVV03tNlwD5YiAMzAeHlQPaJrVamBwfdwvC92hs+WUdgf8TBJwg/J+g5t9xBL4HCLzzltu/cODAwWuQxUBxsJhujDx9IQlMK6bMb094WZS2RXOBJ/REshpZDHd/9lOLOs9/5Jo3XF+U5Z2WR12BICBvXOWRLQ6CaY8qntTLYhDdizQGQcTPSicI34Mx5Zd0BJ4KAou6cDyVhvh3HYGVjsC7brn91w8cmn0lXQyq1GfFbTqtppZG71XDFELQ0x+g3T5WmxTxKYjPfO6XPrGo8/ya17zp+rws7xQxmR5x6Wn2Wx3CwSeqAY3CYqiDEi0IUPosiiPvuOP27St9HHj/HYFhQWBRF45h6ZS3wxFYigi86123//ah+fmXRYKgJaJFoNNkPrWwE3XXJd1RrAfMJ0CuA33/FgOAk/ldn/n4os7za17z5uuLWikxCFY50qwWIsSs1g4tvGS1WZKCO6alb7EI0KOvF7kThKU4cL3NyxaBRV04li1K3jFH4D8AgXfd+oHfm52dfRGkny0gMf4rRU96VR8TnVZzP/RcC6QHTCOE+f6XfvFjizrPYUGo1UfuNOsGXR8sEiO1UawCorhC5NYiVawvtR7Y36XGSi3U8swJwn/AOPNbOAL/VgQWdeH4t97UP+cIOAJPRODdt37gt+YWGj8gxX1EhdACE7kJa/yB+fppVdAaEjHlUU/rjANAzYl6Pdz5qY8u6jy/5rVvvn60PnonC+ig9oIWZort0iwGIwWpLgP6Yb+bxjwk0CHnPblqYvMHb7vlfh8bjoAjMBwILOrCMRxd8lY4AksTgXfd8lN/3Op0L0chLakUKAGJeFmFucFgRVYGZKW3XoCi1gjiqR11VO789H9e1Hn+mte++frJ8ak7ac/QYmSWVmk6DZZVwSJOSm5gTIDYk1XltFoRqM6HIjszU2Mn3nbbLf+0NJ+et9oRWH4ILOrCsfzg8R45Av9xCNzy7g/8cbsLgiDl1WlBsNgDllvupTvaKbwnmiTF0oxAaGEpEoSfX2QLwmuvu/H6iYnxO9E2sxpQ8VFdCpbFYO/HsuxaxAmWDfs8hZKYxVAL02umTrztlrc5QfiPG3J+J0fgX0TACYIPEEdgSBAwgmBlcLmJaonrlAhYSqO5HKz59ncrBS7llIvwqU/+9KLO89dc99brp8YnmOaYpldaZVcqLVujVCjJYhFiyWotAQ+NBLgX8P7G444984YbXvs/h+RxeDMcgRWPwKIuHCseTQfAEXgKCLx7ywf/uArh8mZTqq+yHgNq0nfakkGoGQJIL+yZ7UX/wCwNcUJrcCBO5p/8xAcXdZ4jBmHNzJo7oYgobZSS3Ghg6goxooB/kXKJQEa8qIFQqPwyYyUyCiVt3rzxgjde96N/9RQg9K86Ao7AIiKwqAvHIrbLL+UIrDgEtmz54P9oV+FS8+OLhaDLqo6REOQ5N9pBK4KVUY7pkHpCRwDgJ372pxZ1nsOCAIKAU3+ni7YhUlJkoCmrDCKAjT9Nz0zSIGE1IFGA6mKObIs8lLUyPH3zpqtf97pX/sGKe/DeYUdgSBFY1IVjSPvozXIElgQCt9zyU/fkZe3idgcxCCZA1I2ncmyovVM44g06MfURJ3gQCavRILLGECbKwsd/ZnEJwnVvuPH6VdNrJEhRq0xaHQgSmW7FzR/kRiwGPXEnqcMg7cILZAHcoVavh43HHHPtj7/xml9ZEg/LG+kIrAAEnCCsgIfsXVwaCNx66wfuCWXt4m4HUsttKg3CdYCfZaPl/082Xpj4sQnr35jiKKdy2ZQlY+Bjd7x/Uef5dW94x/WrVq26k2mMcCu0O+b/YFtReAltaDUaIS9rtCQwmDGHdaFizAFeKNbEYEsQhFotHLNu7ZtueOt1n1kaT8tb6QgsfwQWdeFY/nB5Dx2B7x0CN99821dro+PnML2xC8sBXAlSELEvvZEFlmXqIj4BWQAgFTiV0/UQ3w1MH7zjI7ct6jx/7RtuvP7ww9beiTZSv0nrLVgAYgxc1CCE9HeQHouZiGmOlFwuwrq1Mz/x9hvf9KnvHcJ+ZUfAEfj3ILCoC8e/58b+WUfAEehH4B3veM9Xx6ZWnYNTeMaNVxQKscGigBNeTGWs1O2g2QI4ieNv+ByIAqwG/B58/FkW7vjI+8osyySQYRFeb3jTO66fmYGLAWmYXcYQmIKiEBQJRIQLBAqJHVhANBgR1gO6IExhUUs/wyWyZmby5ptvesvPLkIT/RKOgCOwCAg4QVgEEP0SjsBiIHDLLbf/VW1s/DwLSuzAh6+qRzDjM6Av5HHDtXTGVFkRp3ls2KasiA35ox96T55loByL84IOwtp16+4MWpMJ1gzcF8QE7SRZUGllizUQOQeJTSDRUYElqigiHiHLwvjYWHjvrT/ha9LiPCa/iiPwlBHwyfiUIfQLOAKLg8C73v2TXx2fnDmn1WqFCu4FjSVA0KIxBUkthDVBHAko3QSrgZRerkKVYfOVYMayXuN7H/3we8azLJtfnFaGAIJw+Nq1d9ZqqKFQhkazSasAMhFg/QAp6ba7/N0yMlinAe9lqDIplg2+VFkxL8Xq8YH33+xr0mI9KL+OI/AUEfDJ+BQB9K87AouFwLtvvf2rI6OT54jlQHME1FVgGy3uhUlraY3cY2myt0BAVHSsQoHjPQhGnoe3v+W1U+vWrTu0WO18zWvfev0xxxxNFwOtASELaHOUewZxqboBlSSpz6D1ISRts+cmoRR0WZIsIDah2WiGD/2nd/uatFgPyq/jCDxFBHwyPkUA/euOwGIh8M6bb/vG5PTM6baRQmNA4g86EnaYZ6ELE367E2r1Gk/nBawFIjggpZdZ+llqOHDzDSHc8KZXH37MMcc8vljtfMP1N73h8LXrPjMo9wzLBiwERVnQkgCiYloIpn0A94m4GSTVsUT8ROiGWq0eDh04EO746E/6mrRYD8qv4wg8RQR8Mj5FAP3rjsBiIfDuW95/79jUqrNhEWg0G0wXpJJiqx0FhXAyxwukAf57EAMEMNZrNamqqKmEiDiA2R5Kitde89IjN2zYsH2x2gmCsH79EZ+R1MWc+gtlrRYrT7LCY6slgYlJuWcSGtaLQOPE8mCCSghS3LN7d/gvP/dhX5MW60H5dRyBp4iAT8anCKB/3RFYLATeefP7vjExtfp0RvpXVUAsAoP91N3AE7qmCUq2QMWgRQQkcqPuduR3hiP0rAiv+MGXHXvKKZsfWax2vvkt7/rxNYev/b9s82e9CBIXSb6UtkhbmVXB+AK0Viwc+B8qUMLiQYlmzXrYuWNH+PQi141YrD77dRyBlYiAE4SV+NS9z0OJwM0gCNMgCMgGaNMyICmLEmMAHz2sAth8rUJiDjcCLA4LC6E+MiLBjFAqLIvQXGiE0dHRcMmFZ5916aUXfn2xOv2WG29946qZ1b+IjR6ujmarFTrtFlMaraKkpDl2aTFAP5gKqS4Tc4PAvcBATEovV2HXzp1OEBbrIfl1HIFFQMAJwiKA6JdwBBYDgVtuef/XJmbWnJklxZes+BEllJPaBlJaWQISWfxItRKwacMCAYLBzIJ6Lezetav56U/+NNjDorzedvNtd4+PTVzLapFwJ6BWBNsnqoiW4kixJ2RcwFJQijvEXAr4O75fr9XFEpLnYdvWreHORS5NvSgd9os4AisUAScIK/TBe7eHD4Gb3vm+b6w+fN3p9N9bMSOxvzMdsM3CSPLCxGVmg0oWI2MAG7UoK9YCSAY/nwUGMj76yMO3fPaX/ssdT6XXVVVlr3jdW9Yfc9jabZPTU7wU4g9GRkZDs9UMZVGGdleICV6QT241W6HKqpDB75FB2bEU90mzFZAmCeJgiopwMXzy44tbefKp9Ne/6wisdAScIKz0EeD9HxoE3nHTlm+sOfzI0xGIGKsyqpoi3A7YVOHPt1N4G8GLWstArAh5qNdr1CXg5q2nd1xrfm5+dv+Bvb9z3MbjPnTl8y96eP369dWBAwcYAFCv1/NmsynRjyGE6enpzuzsbDkzM9Ndv3598/7771+9Y8f+137mrrvOm1615rI1q9dMShKmKCbixayJogwN1F/Q9EoKPlmQYlFEcSTWa6jVpLCUxlgg4HLPnj3h4z9zu69JQzMivSErHQGfjCt9BHj/hwaBd978vm9Pzxx+AlwE2OylqmNHNv5aLcw3FnjaphgRNARQwbHbjemN+BxO6diYoUuADRuuB+zlEFTCZn7wwMHO91PFAAAgAElEQVRw4MA+tT5IsQRINZNQINhRazywoBI1C6Tw08TkZBgbG+P1+lIpaTXolaOO7gVUo0RGhQYiwuUBMoB/kfFgksy4Xq0o2d59e/ctemGpoXm43hBHYAki4ARhCT40b/LyROBt73hvddjadVLxMJf6Cwz2g5sA4kMsAY1qiAUzHJgBoHEGOLlbYCBM+/D/M0tAdRJYIIkFoJAeidoNImBklgqY/i2OAemVCwsLYWx0LDSbDX4WGz/+s5oL2OQty4JaDUixRGaF1Y7gvU31MbDN+AzaxloT+t7oyCiJEK79+O7d4ec+9p98TVqew9t7tQQR8Mm4BB+aN3l5InDj299TrT/iSNEzoOBRCCUCDrHZM5WwF5hoGzKlilXSmG4GTTGk1aCSLAj1AfAEz81Z4xtMTIlVGcVPQJcATvkMKrQyzbAroF6CJjIipiB01b2gCo72RFLXCL7BLAyNVcC14/tWBTKEAJIAl8Wex/e4BWF5Dm3v1RJFwAnCEn1w3uzlhwAIwtHHPC3MLywwPVAyFyBbDL0AmOc7TF+MG7f69xGLYHUPcEIHeeBJH98ucooltdotcUeoLoGd+k1XIRZX0swIuCvwHVyv2WzKRs+KS6KAiPfKXGSSGeuQaC8w07KAdHJDshRQ8VEtCHCLWGVKiZ8QlwVSHnfu2B4++YkP+Zq0/Ia292iJIuCTcYk+OG/28kPgrW/bUq1bf6S4EUwyeeAUD+IgaYX4v35pZSnYJCkORhTgBoDLgO6FNmIFKm7eVtCpAxeFChkx46GAM0PknVk3gQkU4opI3xPp5Cq0UMpZAxThKsC9aPFow5WRS9wBsi1imqa0D4QBbUCTYdWAi2PXzl3hkx93F8PyG9neo6WKgBOEpfrkvN3LDoEbfuLd1VFHHRPaPLnXxVIAN4G6BiitrCZ9qeioZZbVrWDBg6JWCDlmsIWKMQz1DCf3Tmhj44bYkloSxKqA8syFuDUkG5GbOk71ZAj6MuKQyieb64PEBHEOQWpAYPOfn58PIyMjdHtAOhqpmPgYgidhgQDhMOsE/rZn757w8Ts8i2HZDWzv0JJFwAnCkn103vDlhsBbbry1OurIozUDASd0MeXTBI8Td47gxKac6JMKjlRVhLoisgG6KOaEkstyQgfBMOVFXMeCG2MMAzdsMfuDAFiBJQYxqgATFRE1TZHWiyCnfloUNDAR34fVAr/TpdFq8d60HGhsBMgAXA5SggGBjUJ+WD+iqsKB/QfCHR95n69Jy21ge3+WLAI+GZfso/OGLzcE3vzWW6ojjzo6muMtqA8pjpAztngAC0TExi4Hd8lQ+P/b+xIwO67qzFv19te71K19s7aWbNnClg1mSTImBD4WJ5kQG4wNBDDGifkYQ9gSZ4LCZPgIMwzJR4YkhAQmQ/iImWHYwpIAJgQCBAy2sWzjVdbSkqVuSa1+/fZXNd//n3uq7ntqb3hpdes+kLtfv3pVt05V3fPfc/7zH7dxk1ZA6LZwxEgHqF4CqhOkVFLKFBnuR7fITsc0WuLIReaZbESu/gEKCBxs2kMrGxR4SORCCI0KDLCt8hf4fQskUFoJ8JNwH8LQHD8GkqKPICy2+9qfz8K1gAcIC/fa+ZEvMgu86bq3M8WgzhX6AHDI0sExMOViwVRrdfveVhGwBBHiSUbKBamFELCbIvow4CfSFQjxxx1p6gSNA+b9EQEAcLAlk0m5YmxYxYDIBBpAAZxoNQQiDExPoE2zrZJANAIvVzRJIwsYufIpUPyAigscD/tW8iSBRRCwisELJS2ym9qfzoK2gAcIC/ry+cEvJgtc++Z3xsuXr0iEi9iV0eoKJA4YFYbslIh0gP08xEpfiIuoclCtAxVUgvNFaiBv5Zg1KgAwgf24fR3U2SeaB1b/QKMUGg1QMEFNBdu5EQCFvAVWXmhbaqQ+MqaVfCZXLAEj8oaAwesgLKa72Z/LYrCABwiL4Sr6c1gUFkAEYfXqtdLLwJYNwlEXCwXThMxyJjStqGOKubyZrVatLoJoH2g6QpUKkTZAxIDNlFot9kvAyh1VA+QfoHKhLa2YucIH/wDliChbpIiSVBtoN0akHnKoULAVFEgjoLwSG0I0iSWQVjqZ+3f4DIhGsOwSFQ38jrSE5nfQn8EKN0Hl8YMf+EM/Jy2Ku9mfxGKwgH8YF8NV9OewKCzgphjAO2hB94CqRqJUyJy/7dqIE8bviAwgVA9HDd4BIw5OVYPyAwAU4PRZOdBqslIBjhs+GmkEKhzC+UPFETLLFjCozkEimWxFnBCdAC+BwAQRBMtXiFg2KWkEVkvY6IJGNQB+tHujXjRyKeLY9mL4Iz8nLYq72Z/EYrCAfxgXw1X057AoLAAdhKWjY4neAEl8yM+D6W9FkfDAqvQxuQCsQBAOQMsKGunqXJ22phqwTalYJFkxkV3GSt5aD05cKxa0QoFAIAcAklYu6HcJTMKAUQZWLdhqB2zL31FFYbUa8DkABY5dyBcYOUC0g9UXNsKAFMNHPvx+PyctirvZn8RisIB/GBfDVfTnsCgscPWbro/XrF2fVCto6B0OFQ4WL5IEmQrAKt8wegACIp2y7bNAJ1woSEQhEShKUwDKa6AEsq1+ANFRG0EBEFDPIAxNE3oFYcZAg6HZgpaBlDDixWhEu2UKVEu03R2ZRmglyokqt4wxoTICPAUSGJWHYAEIwMnMyZO+imFR3Mn+JBaLBTxAWCxX0p/HgrfAtde9PV6xcrVEBWwoX/QHQlYSUIEQaQXbzREkRlQ6gAuAcL7k/iUlAYfNHgvQS8igG2TeNBr1hECo/RhQWQDQ0YFSovICLEcApMYGeAtIZ4h4AbdVRUWkJtjfodlKJKCFPCFNpgBQ2CnS8h5QUsljtfE9aU/Nc7IpEZQ5/ukH3+vnpAV/J/sTWCwW8A/jYrmS/jwWvAXedN074hUrVtK5osWyzSowMoAVN6IC6LKolQPsjmhLIdm2GZyCpPGSjTeA8JgJRY3RkgoZKaDzFq6BchBYqYCvOR0fEcVoNJuJmBLGUUREAwJOSGtYmWRNLwhZ0VDsqZDPS8dHq7GQ9G3QdEUYmny+wOOD/4AIwgc/8B4/Jy34O9mfwGKxgH8YF8uV9Oex4C1w7XXviNesWUdOAVfzDhGRlQ2hKCoyggBVRKdtshIY2dgpqRAQyWVpywxRpZjf1/A+gAdQiBIJE26BVUQk30HTFAQTEsHAMZD26HTaQmy0L9UzYLllJiS3gFLKSDvYjpSIWAhvIRVK0tLJymzFfOC/3uDnpAV/J/sTWCwW8A/jYrmS/jwWvAXecM1/itdv2MgVuFQd2N4G0BFot+nY0SGRHAFbscBKQYTrqYoIKWZIHFs+gKYabDMlbEdNhHbbtJoQUBLSIASVpLcDfLd0ccSrr1w2lUqF5Y3gHiDB0Gg0mbLQskcGHNodafjEFtOQVpZLMdDXZ+r1hmlC/jlpGoXGT6kEM4iWLONst8zs7Kz5wPs8QFjwN7I/gUVjAQ8QFs2l9Cey0C3whmuuj9dvOEvkioMg4SJoPwWSEFmaGCccBRU0YuRAKx5gCFQQMFWAn5FUE9h0AngDKGfESl47QOIYWk2gqQDpkyD8BfSAoAaCVT2krdk9Uvar/RX4d+ITkCklYpG0d7ZdIgFwAEwQjdDoAqIIaO70vve+y89JC/1G9uNfNBbwD+OiuZT+RBa6BV5/zfXxpo2bmWIAKRCMfwACpgBsaB8rfHR7tDpGSS8GahGA9Gf7IJCkaCsYtGcC0gEI8VOSOQy5byUTQsAom5P3ABRUK4giky8UbLOorKnVa8n3AD5UmyEpwbRNmZREmZIZoc0gxEk2eQLIQVfKNjQcsrxsmt547x/+rp+TFvqN7Me/aCzgH8ZFcyn9iSx0CzCCsH6DCTIZrszhUJnDByfANmRiqWC7LT2ZuVAXpwvNA7y0RwLj/VbEiOJEto0zQAJSCkgLaCtpjQxoNQF+JkqImi+wThxgACkBEBc1+kDhI8uJgM4Cmj0BiDBSgfOwJZFMi7AfRGDTFKLjwIiILbf0AGGh38V+/IvJAh4gLKar6c9lQVvgNa/7nXjT5q1cTcOJw9lXa1VZ1VuyIPQIWJgI0p+oIScCRIwYZEI6Z234JAqG0nTJVTVUEKD8BZRRQvdAsgPYT8ZiEAAV6Z3A6ANSEWEm4SFoN0ZVWmQ3yEbT5At5ggxEOxS8MB1iRZpAcoQcNF74O76PFMP7//j3/Jy0oO9iP/jFZAH/MC6mq+nPZUFb4Lfe8OZ4w1mbeA7FQlEEkNhZMcNIgjpThuSxEucfpCJABYik34KE81EWqS2aketvNKTFM8L6cNrs6IjqBoT7laRoqxWwb1n7CwFSSJEopURjqFhaQwOkQM0xKxEPvFCeqXwEjFm6NgoZEjoIOCcAB3AjcHxEGUCAFKGl2PzhDdf7OWlB38V+8IvJAv5hXExX05/LgrbAa19/HSMIcPgacqdqIlbebJKEPgkZOnpWOdjVPj9HDwa6c6opifO1hEIVXlJOAlIPumpnJMH2etDtWVLJQIJUG0CrAKv7QrHAY3TQBAoNlkBE5HElfyFNn0RhUSMe+D4AgKZFmqyCQLmmcCtwHhrtwHHf8wceICzom9gPflFZwAOERXU5/cksZAtc+dpr461btyWliAADcKTQG2BoHpUKWPkjbUAQIHoJcNiFQl6LB2xOX5o7aegffRqwP612wO9w6NBHgPIhhJNUkZEgwL7P53MJl4Hllb0llFZlUQBBJJ0dreYBohmFkvAdFEQI8JDqBt2XNnJCeuKPPElxId/CfuyLzAIeICyyC+pPZ+Fa4KrXXssIgkYMlHuAn8z12/JGbe+svRO4SkdDJRIb7crf5vbhuNk/AT0V0Duh2ZQ+DW2pQoDGgaYHKNCkpEGAD2obxAQRIqokfAElMLJyAukHS6CkQJL9DtIKaDON74KH4EYttMICx9LjYZ8Y23/Z/XYoMmn/qIV7Mf3IvQUWgQU8QFgEF9GfwuKwwCuvujreeNZmrsLhIsErgONXh4qzRGkg+y7YzokapqejhiSzrV5QTgHaRjfqDZYwquphkl6ADoGjq6CtopmqUB2FnKQy4MChjginTyASBBxbuVgyM7MVRjjK5bKZrVZNuVQy9UaDAAQchVw+l/AiwDlgF8dOh2qM2n46n89zmxve9WYPEBbH7ezPYhFYwAOERXAR/SksDgtccdXV8fj42RLet90PlR8A1UM4eCH6oR+DaBZovr9arTIyoOJG5CzY0kSE87EtnDaqI5DrR9pCyxARAcDfwW1QHoIqKuoKX7s+4n0iqISeDtA1cJtLIdoA5URELlTxsYMUhkQrAEI4Liu6xGZOACAZiZC854brwyCgILN/eQt4C8yzBTxAmOcL4A/vLaAWuOKqN8Zbx7eLkzbotSBpAQUJWO2DSyApgjYzA1i1N5sN8hFQWYDIgwoSodRQVRe1VwOjEZZICI6AiBkhWiGAAmACL+0CqX0VWLEA5w5wEUFaOWvLJyOmHhANAJExDKWLIz5XMqVbIYHUBqsobCpCPyNXIgxRxeABgn8kvAVOEwt4gHCaXAg/DG8BcBA2btqS6B5w9W7z/HDgrAbotBMp42w+L2mFCLLGwgeQKgMhKEo4X9IOAgzipPpBHTNLIVvo82BVDm17ZjZqss2ZNFKB1X69UU8rICCi5Gg0aBUDfmIgAC0yDlFnVM6Eaido++dU9TEwu//zWz1A8I+Ct8BpYgEPEE6TC+GH4S1w+RWvi88+57xEZ4Ds/jBjmlAm1L4FcLQ2HK+9EOCN1fnT2WKbrDR4KubzTC1o6kGiA1FSFskmTyAUWqCB/SAagN4LSGOovgLFk1QZEVUI+ZyBPDPVGnFMRA1sF0iWNNqSTBxP0xAsvUSUAtuRiRiYVhP8iBwjE0wztKczu3fvljyEf3kLeAvMqwU8QJhX8/uDewukFnjFq94Qb9t2tsna5kiifJghKRGOFE58ZHDIzMzOmlKxRNEhSBvPVCqmXCozBaB8AAUV7LkQokOj9F+AM2f5Yb5A4AEAQn6D7RZJ8STVJmDPJ4lKMIKRy5GkiFQHSxfDwIAEiZQCogYot1TSJPZNkacMji+tnZHagExzUvVgTz0hWCJiEc14gOAfCm+B08QCHiCcJhfCD8Nb4JVXvTHetGlLQgKkRDFX59A6FgEi8hHYi0HI/qpWqKWOSv6DNZkmAG9Auy7a7+ATpiSwL5Y2ZgkiAA5yACe23TP2Qe6CFWoCcAC44L5tjwZ17tRXsOkJbAMlSO1Cib+rUqJGIVQICqBDAQaOf+ftP8h+5jOfEUKEf3kLeAvMqwU8QJhX8/uDews4EYRXvzEe3zRu+gcGTL1e6xIDQKifssZw5J2OQVmgRgTazRZD/kgtsG1yo05njXQBeAuoWIADx/b4HgGGMWy4pKREqCKicoEiRlr6aDsvYlsqJgai0Kg9FTS9oNUKIB/C2QsYkBdADssnjeGxsW2t3uD5gf+AfTYbDVY4YOy3/fhfPUDwD4W3wGliAQ8QTpML4YfhLXDZFa+Px8e3m0I+b9A8ScWRuOo2hqt3OGE4e9UlgPOFO1bHzWoAbGOlluGEa/U6v0fnjTSAkdU+wv+yLyO9EhxgQP0FCwy0AkL6KQB4yPEomGTVE9n+OYo4dmyPbQEg8qhmwLittDLACfgRVIR05KC1SuJne/7dAwT/KHgLnCYW8ADhNLkQfhjeAq969RvjTZvHySuot5pCNrTgAKmGTD5nIksMhINHlL+DltCNBlfn9Tr0ESQNgX8kH7ZaiUSzpBsMnTUAiMofIyqBnanSYjFfYLUCgAA5Bh2QGjtMSaDPA/6nXAMAhnq9kTRv4lVEOiSAlLJwDQVgSHQC3ASMVaMMqrNAMNLpmDt/+n0PEPyj4C1wmljAA4TT5EL4YXgLvPLKq+PNW8a5Ss8XCnT8iNZrN0flGSCSABDRQHWDddZw5IgGoPIB5YOMKCBCgEqILJQZI67q87k8Uw4ABNgWQIK6BEFoWh1JHyjZESAB+1J5ZYorBSHHwy6R6O6I9tIodURppXaIRLSCbaYlzQGgAwCAY5C64JZGWuKkch1uv+W7HiD4R8Fb4DSxgAcIp8mF8MPwFkCZ47btOxJSoKze0QNBHlMID7F5khHnjgiBdFOU7gXanpmliWgDjVW7MZJesFEAyh+jpDBAdCCflDFSTTFfoAqiNlHCbhPtBdtkCVEEpDxazRaPwZQDgIkVRwKoKRZLjBRo98ik86Q9j6TxFFQXbZQBQAdRitXLzxq47rrLK/5u8BbwFph/C3iAMP/XwI/AW4AWeNVr3hRv2LAxrWKwQkQiMCSliXD4cPIqLqRpBJD8oEsga3UBDGy2BM0DpCfQWwHtm9nKGcJK0uAJ+yJQiNpc4WvqgFwBpDHCgKkLcBm0hTN1GCiqGLHcEfuBboJGOxBR0MoLVWJMWknbxk4SUQiSbpRAOTinc7evG7788sun/S3hLeAtMP8W8ABh/q+BH4G3AC0AHQSkGJCjZ/kiGiVZ6WStINDeBRJZkHJD6biY6h3AkaO3ArZBOgIggh0hbVoBwkRKENRIBDtFWtVGbMeyxVzWtBpNfo8tppH64Hc7TH/gc6QWCE7aSG1kyFEAcZHKiWjpbKsfVHoZ58lxoGpCWBDcTkHPxRduH7v00ksn/S3hLeAtMP8W8ABh/q+BH4G3gACEK98Qb9k8blMK1tGyMqBAAFCZrTAN0Oy06IyhX8DSR3ACnF4KiBoAYMQ2jYDWR4gswEkr8GiiwyN0DTqoTMhSxbCYy5uZmYrp7+831VrV9LHPQ5PAgXoMxphSoWia7VZSNUHRpQKUF0UfASCCjj8TMnqhAksSkQhJjsQ2eGllhYIcgITnPmvHype+9KWH/S3hLeAtMP8W8ABh/q+BH4G3AC1wxauvYYoBZYqM1yMV0I5MoVigk2aI3/ZdQNRAiYna4jm2REE1p6tbkHRptCRELSskjwEkQqQc8DuYDIgeZDKm2WhSjwniSXLsiJwECinZyIUQIESUCWMDIVKElaxyIwmKAi5Y/thqMUKi6QqOS/INPOb2LZvWX375pfv8LeEt4C0w/xbwAGH+r4EfgbcALYBmTWvWrqeDhhPV3gVUVMTqHH0Z2k3UNvI9OAB9WO3Pzor2gU0R4DNNOyD0X+4vsyET/iH1MDs7S25BooaYCQkCuJ8MpJfRK0GrHMBlkM6MFFsyKJ+0qQNwI1B2GRqmGLTEslAsmlZdUhB6DnosEBxRVgmRJi2zVICBVMXmDWs3XXnly+/3t4S3gLfA/FvAA4T5vwZ+BN4CEkF4zTXxWes3mVw+l7R4ZnvlOGIPAzRdonwyxI3sCh6rf/wRBENwFrQlM5QV8TvC9ohA1Gt1HoMCSCAKosSR+gQBw/4QOEJkgCoHLEOUY2DfSGeISFJWogGWaIh9IVUB0iIiEVo2ifQC9BfwZe3gCJJkroASS1FRFslo6eegHAf8fcdZm7a/6nW/eZe/JbwFvAXm3wIeIMz/NfAj8BYQgHDVNfGWLePSECkvDZFUnZAdEt3OiJ02w/0sIYxjM1utkgtAJ43ywzDDKgQ0dNJoBLbXlICG+7HqJ1gA4JDQgzRuQvsHG/YXwBAlZZWqcYDUADgMoncg30UlRaFU5DkosZEfRTGBD8YFwMMUB0o1LWESUQrsb8Pa5ee8/vVX3eFvCW8Bb4H5t4AHCPN/DfwIvAVogVe86up4fHxb0iMBkQI3Z6+6B9o+WVss88tY1cexaCVkcwzvszdDNmOqtVrSPClt6gSVQ0lVQPwIGgTQSshlASwsV6BQSEAJfmk1m6ZUKtHxk7dgYgIBkigzGQIUkBtxDPyOsUgraAEHyoOATgNbVGM7NIeyFRvoSLmkr7zzjb/z2tv8LeEt4C0w/xbwAGH+r4EfgbcALQAOwoazNiVEROm2GInOQBPEQEkRiNiRNE9iN8YgwzA/Ig5s4GSEwAhHrqt9cAewctfWzdgGFQmQSS4U8qaJCAU1ElB2KL0f3DbMICWyJJFqiAG5EIhMYNWP1Ad4CcAbABsoc9QOktiHRgmYqkDZJTs4dkRK2gotsa+Dic2K0cFdb37zm37sbwlvAW+B+beABwjzfw38CLwFaAFUMaxdt569EkAahHgRnC6VDW3bZob/o9jkC3nyCsg7IM+gSMfNhk7QUag3uE076hh0e6Rzz2bJJ5A0RMhtBgYHElVErPiRLmAjJVQhBMJRSCoWjPAREg4ESJFW6wCRBPwOwABQg8iFtonG/ggIUOXgRCfY9KnZkq6TuRwBysjQwEVve9u1P/K3hLeAt8D8W8ADhPm/Bn4E3gK0AFIMW7aOW5EhWcUzSmAjAUrqE3ljZBUQRUD75zYdrBICEwlm27SJFQ3cj7SDDkN57FXfAFwD7A+AAI6cQKPZJOiAIFK5r4/RCYCAIBuSZ8AOk8AOyFSQvyAdIqWgkYUNJrbcBZIdsX8QEsFBQDlmKGJMjITg+DZ6UQ7jX/iD3e/+jr8lvAW8BebfAh4gzP818CPwFkgAwpo160ypXGJUQImCiAowHJ/N2CoDccokEcLhtttMH/SX+ihipBoDAA2zlQpLG7VFM7gBED/CS8spsf9yCf0TWgQScP66T1YuaPmkBRz4vrZrVjCi3AYFNNg/xsFKh0bTlPvK5CSQh4D/hRLtYHTB9pXgmGqVS/74/bu/5W8JbwFvgfm3gAcI838N/Ai8BWiBV7/ud+LlYytYBcBGR9QZkBA8nGqW/AKpKJBVvy13hKBSqyMAAiH+GP0V0LdBujuqQ2bIH6WFbAUtHRkRVQDnQAmEVESMjZV5hvARShuNabeaplCQNEatVpMogS2TTHkEVt8JhMZ2y5TLZYIAkh6bTaYg9CVRhZTMiGhEIV80jZPHPEDwz4O3wGliAQ8QTpML4YfhLQAOwpbNW0n6w0tX22yoBCJho8ncPlb34Bko5wC5e2gPUM3QOm6VMwaYQGdFEBLpqNmmWcoMuWK3zZtAHNSXcB5E/xARBEYMbOOnYrlsdRA6Joi7IwEaNZCxC1jQNtAaTdDohooqKTDBdwBYpif2veTP//rPv+LvBm8Bb4H5t4AHCPN/DfwIvAVogcte+fp406YtdMzqwLVqgQ2N2m2u6LEax+ocjhsOGM67WccKPSRwUHDBBkjQL0DJIx2+ScomkbKAhoFWGSgJUlMESbdIkhARt5A+Cw2AjVJJKhlYxih6CdgeqooYL7o/FktFKj1C90CPA44DSIoCeAocOyotlPgIAFSdPOQBgn8evAVOEwt4gHCaXAg/DG+BV155NcscAQ7gSEUrAH0SuNaXHgZxLA2XbDUBlQkhzWy5BQQDNm0Ax47PB/oHKKOMKANX8hBXshUP2DN7METoCBlwFU9+gyUYwvEjHSEExxDMQ5vysDwIK8nMz6icKIJLKvWM/SEKAR2EWrXKz9zoBvgRKOGUMs22mTpy8LV/9Vcf/jt/N3gLeAvMvwU8QJj/a+BH4C1AC7ziyqvjdWvXM0qAlTe6MQIMcGWezZK8yPQDGjZBx6BYNLV6XaoXoGgYSI8ErN6ZSrB6CficofwwMJ1Wx2RyGdFasGkGRCPAKwCYYLkhUw/SiXFwYMBUZirkN8C7AwhQH8F+DtCCVwRug3XyYT5nMjGqFESrQUECQADGxDJIVGKQS4FSypDng8mor1j45q9e+qKfBHHYDoNgwmTaHx8fH28FQSBa0f7lLeAt8LRZwAOEp83U/kBnsgXuuuu+13U6nd82sblI+yiwC6O4Y+oRvO2dN5iNGzfzL7rKTiSMEZbPSy8DfIY0A4CEag1APTEOJMzP1T9LG0NpBW15BwoAdHUPB81SQ+5Teilgpc99hAEVEsFf0O0Z2YC+AVo8okzS9lXgMVqSruCEAgKCjSLkclnToBhTgQqR/G4AzkQGdZYJZwLVEI163WzeuN485+KLEtKke8+EQebMlYcAACAASURBVHD91m2b/uxMvo/8uXsLPJ0W8ADh6bS2P9YZZYEf/ehH5aWlpYPVuPX1IAjOUaeJlbWoDkruHq/BoQHzu+/4fTN+9g7ph9BqmZbtvoiKAKQcIG8MnQI4YpQ3hjn0a4BwkrRhRqkjuQYABzadwJy/rXqgCqI2e0JqIJL8v67oa9UaAQJD/mFgiqUSj1WtVqXDo1VTRGQBZZENtoOWhkyqkIixa+WCqjsijYA0w+xsJRFdwri0UkO7UALIbN28wTz7mRcl94mkWtIXjhfF5tvZbHRlvZ5p5fOtThzHjfHx8UoQsHG0f3kLeAs8SRbwAOFJMqTfzZltgT179uRzmeKVzWbrBfCYoXjTzSaOdymHQADCqXaCowRAuP533202bxlnUyQCB4ohgUfQJiAwaNFsELJP5YpRSaASzEw9BLFpNZp07liRk7QYxUwXuKWRWPFTNdFGGHBM+Vtoms0WeQdUZLSaCSRLQtY5zAiw0W6PrJpIeQfYBpEHdnO0AkhMM1BpEakJKc0kgTGTJQhClAEvRCS2j28yF11wPt+zFNK+9DdWadgukww/BKZiYnMojuNb4yBo63YUhoqjr2eq0efDoXBmy5YtUhriX94C3gKP2QIeIDxmU/kNzwQLxHEc3H///YOtVmZJp9MciqJOOWtyBu2FwrATBnG4Mw7iXzaxOS+O402wCR0kPX+qTaC9EjRK4P6UYkTdVkDDwGC/eevbf89s3LiFq3hwDhCST8L4kDG2+Xx8BicOh4/Veb1WozQzgAQ5BOiyGEnInx0h0aMhCGxbZnH06oC15BHRiVw+a6J2RMeuXSJVJ0HUD4UvoOcM0KFaDDgGvgMQoBUQAgak9lL6O6BHBFINjYTvgOgHrEGA0m6bs8c3mV3n76RCpL40yuICBgFboiTJ8di+FNILQpQjqfTIHg/ykj8JyTKO4sOxMd/PZMOftNvxd4wJmmGI0I59tY1pm/ihXK4T3Xbbbfsuu+yyyEcozoQZwJ+jawEPEPz9cMZZ4Kabbsru2LGjNDFx7NVhED/HBGYrWxGJM4MfGYiNGYljM2BMXJJa/XT1n3IH1PGkwMA1Zu922DnLAtneQBybbjM0NGjeecN7zLp1G5iv15U7VuwqjIQyQFQpIOwOgACni3/tJsCAVB6wMVKrbbJ5lENCGTEkAZFlh0g1GCgYotFSgeNASSJJkZmMyeZzLJd0RY6UhwDn3d/Xx3QDiIXqaEFwRKQC4AFKjHD02BfIlEJEhNiSnAM8tbajVmevXR/xHuBmy8Z15sILzk94Dwo2sH+8NB2htusFDQQCFg3od7vBmb1meqGcNI9cYys+RelpczSGmHQcHwyCIApCpDCStNC+MGP+td2OWtXq9Cd27drVDIJAenL7l7fAIrGABwiL5EKeiaeB1f63vvWtzLJlq5G4z0eRGXfm/SCOg3IYBi82cfyMOI7XzeXYu/gAjOl3h7bnsqtGB8QPpYS83m0lTmD/07NfdyzVWt0sWTJsbnjPe82WzePSX6EtEQKQByszM7bXgqQEoD+AlX25XCJQiGxEIAsegk0D4ESQIkB0AfugdDPIgTIi8g6wescL/RHq9RoBQ6FYYiQCQAb8BgAEYieUQFqdA2yIY2K/6ril1wMiE/gppZIAJ6rpgOMiMqIVEC43IhtKSgWVGEtHhs1v/sdLzdTUFPUWeqMHam8VXNK+EuwlQV4Dm0Occl3U8cs1SmIKySWbK0qhx8K5JdfSuchdfyPok54TVJwQfYhvdKJ4OgjMTZkgMxsHcduYDv9PsBMEd2Sz2Wh6evL2Xbt2IUJhPzkTn2Z/zqejBTxAOB2vih9TlwX27DnS32lNXm9CMxCY8Oo0Nc3VXBAGYRE+IY7jojoCd6VJl2CT//gJUEDnRTljyevrS51/sn3iTNIhJWFqWykAhyDs/NT3aIkf9+6sUpPjYAxhaL71L98zL/yVXzLDQ4Pmzde/w2zevNVGAVpc3YPwRzXEZpPpBKzg2TbZ6hXA0daqs6ZQKlMOWVtBw0lr+gC/4+/tNlICAgqaTemLoPwIaf4k9pA/yslozh/bSqMn4REAjEi4RWSb83mIJ0kcH4AD48JnqLyQZpQoocTvoucA4KFghgJP2RzBz46zx83Fz7zQHJg4ZB58cL+54Pxzu66PXkvwFlTASXUXtGxTIz5ia7E/Ixc2EoTv6Uv+lqZ7LKSz59ZDkHSbT9kdkE+BXhX2pnQjGnovajMsBSYKJExg6gCDUSeqwdxhmBF4YaNMcRx/PYrjPblc/Kk4jvd7HoWfGJ9uC3iA8HRb/Aw+3j333FOoV9rP7gSmkMuEz25rEyDp/oeC+ueik3EQmIt11eY6d1n7yeSeOvXu3H/v9txW89MWCKhD0NXsKd+xuWp7oIQsqECA4EFz6+yPIOxDdTZ0VJbx371yFSesK8zK7CyjAI1GiwDgr/76bxi+R1Mj/IMTpxoivmMFk9xUhzocF/y4EY0UmDjIZa77z+IBN6oxV+jedaqpI7VuOJlJ5Bfxl/p7uqJXu4mtRFMBxEiChkLJbBsfNy978QtNZbZivvq1r5lXX3klz12jEQq4WJlhD5TaxoIahwjaGzV6fOeo5+ammOaKJTjg0SFWdkUl1OsnEtrJ1bOUFCeH5VwjHk3Bh0pp2+6ZQRDcFgThdBRHPzYmnskEmQ7hn8poB8GeMIqPd4KovW3bZnTI7HgexRk8Af8cp+4Bws9htDP9K1i1w6fffPPNhVKpVOy2R7E/DKOzOq32ZUGYuU6dlOaDOX/ZVaxO9vgb2wz3OJRTwr6OU+7dXseQfkcWwrrC63Zu4qh1la9hYV3ZJY5VSW12ctdVogKKJHJggQsjCxYAsOrA5szd7XEsWckLoMCq+Ytf/qrZdf4F5stf/SczOXmE4ACRA4kCCDiQfUkE2rWLCw7S/Hl3qcRcIGUuIJGseJ20ySMBhUQ5McnbW/BmIxPKtRAyoUQWFBiAq4CIBH4CHBRLZTM0OGx+8XnPNnffc6957rOfaQYH+hM9CAUcCpC6gVLKHVACqHvd3WvtRnTSyEE6DWJbcicsAVJskt5L7jXF70JQVV6JjSZA5MqmOtz7ToCMAAwXnLqAyiVeyt9ln3IsiWgAUGl7bN0mif7o/SHIgncmzkciY2mUi6ArkzlsouizJjS1QiH7PxqNXKvZbHelOfL5crtYrLbWrFkDsSrPsTjDJn8PEM6wC/5YTxdle8YUV2Sz4XPiTuclUMmDhC/Z7JkgG8VmKI7iDWEYnM2VIh0u5HoldO++3PcP93sy0dnOhToxu6vQh3OAvekEd9LsnWTncniW1Z6w3hXEYEJNyuucc+vdh07gKWvenj97HomDiTqiXEinJCx62rLZapvZWs38+Me3mIeOHDXHjk2ZiYn9DOEjpQByIB2cBQqae1fQIICB/+0CDy6QcK9F0qSp51q5gEGdl3ueaTRC9tZrg2SVm6ygRXaZNmSkQFIU4C3AwenvOFYuVzB9fX0kQa5bt86cv3OHKRXz4hAJLGwayAJEF8B1lSjY3D/vQXsfacTCBT+9AMu9Z3tBae/7uapTekGwgKBuUNF73891HyrRNKn+cCpd3IiNmlgrNJJ71MZsuvadpD7kFtEIHK9hSswVeyXpFttsS26rY3EcT5jATIRh5mgAEU/nFQedrwZR0I6C3HdnZh46cuGFF7Ye6xzjtzv9LeABwul/jZ7QCLHav/feexG+H4uibL9pNQeMrTtvt9uF0ASbgyDzy3EQj5sovggOrXfF6ToE9zN39SqTUpo/dXO53eFo2UZfidO38r4iC6yr5DR/nDh6hz/Q66go+GOdCmV8nfxyrxGTSV2z7Q43QSMclAC2x1MFQ7zXyoLeyZYRCTvpgkTYxYVTBr+zImxDSTCOTbVWMxOHjpg77rrLHD92zNTrVRFKarfMzMxJ8g5gMwAGWVFq2mFuUOCujF3H5PIrdNVrF6dGNIak94N8Xzsy4hqkkQG1Yy94UFsDDMgKXFau3eBAIggCEhA9yJN8iShCsVA0ff39ZtXK5Wbt2tVmsL/P5HM5EhULxbysmkmcFC4BQZblgLj3gVR8yEqZNQcu/8NJHSXXyrkx4KB7+QkuifVhQZdedwucep8fHa8CabWVHNo65qQcE+9FylrOS4CGjs0tqdVoSe9zQLsoULeiWRY7WXvIfUq+iY04yH2VlqX2Aiva0wF/fNaxPaMaKelTgauCuziKbjFBeJsxcdOY+H+hnNRVA4miOGq3zZF8vhDl8+2pDRs2NHwa5AlN+U/qlz1AeFLNOT87u/HGGzPnnHPRmDHRr2dDsz428S86jgFPcC6OzIowDAYg2ofPrGtJwvD8m+O5NbQ5l5N1wYA7ifWGfWXykdCmu3+dtHuJfOp8ZYJTJ5WqDboRBNdB9UYs5roKuo27WtRzlACIMM9lynZIbLZu3t2nkhRdsmLXakxBFiZp204ZpYTIxhTzeTM9UzH33HOv+emeO82hw4fM7OwsHYJGCvC7cA/wM7JRBNuemdEEbdcskQUFDXIthMnvRgp6wZgCAYT8sR0aPaFioVQqS7QDpYkZEA8LLIkEYEG1BJw1qivkuqYNmVJwIIAO/6iZYFMKuJYC/AQ8oDMlIiQaMs/n8jz2smWjJo46ZurYcXPy5LSpVStMP+CfSkqzUVUuZ0aXjpktm84y27dvMytXLDelcpHnMDNTTWyp15XjUVKqrUiYU7HKSd8ogOgCGNaQKbi05NRT0Kf1mU7EIwVtCcRKwEFCEHX4C133my2L1WeoO0onwC4Zk8OF0ecFqTEF/okypUY47IFSoJ6CCwUNBDEabbCRB42CCam1xwCngAmZB9xSEJ1qwjCIoig6FMQBEjBHw5A9N/gI8pxwP7bj78RRZ3+t2fzKrl077vcA4unzMx4gPH22fkxHiuM4vOOOO8rZbGlT3O5sieII6jOIUWPlmu9E8fPCTLgiiqJfCYOgiAefBDkgeRvmp6Owc9QjhUxlUjg1FOpOim5OVBwYcpc4ls6WcqDu74jT0tWJAJL0b/pdTkB29eWuevndZLWnq+RHLj/sDRvrsecKH2v4OQEWPaFrd+zS08COxzL5IVQEB47yRJTjTZ88SSePlTCqETLZnJmenjH79x8wd99zj3noyEMkIRYKRbtytg2ROEvK+Q0NDZuVK1aZ7du2cj+333GXufPO282hQwe5b4wV1QK68paQvazE3XNVkKD7RbRBKw90hk45AamyoUuClLQAyvQE4EgpoTghiQq4v6cpBN1GuAeyrVRBWLlnq5YIkKFAAzYZGV5iVq5aZdasXs1jThw8aO6//16z/8ABU6mcTHpJsOJE0z62egL7llbYUIqEzoLITi9ZstSsW7fGbNq40axds8oUCjlTrdYJdHDtkNIYHhoyS0aWmOHhAam0ABhDgyvcrzYClaSPeqIDfHYcpUi9Bon7fxhnj897wS/BIbgClrfiThS9ETu9N5WToZ/z7wnw15JLCQOdGul75GdJS0cTYMlIgcvTkE80IkVCsfJQFEzAXlZAzK0SImizVSRK99Q0nAIl7JtiXqx+EQ4OritshJ/4F0XR52rN1o2N6sxPLr30RXc9psnVb/S4LeABwuM22RP/AsL+Bw4cKM7MVC8JgvA3TRS8RB/KqBNBPRer/pIxpoznTB05HjR5mAKG0hFSTx5ip4xPnIQlzNnt3e3c1bdu69b2u6tPDRe7DjxdydjxYFxORYK7L06cNr7ZW4EwV1VAchybd3ZXTbridCdjjQK4KzQNE6sjc8GDm0N2JzkdJybpvr4y/6HXwH0P7DW33HKbufWnt5NACKeMyoNSsY8gBoRDVBvgp5QTioZACo4kMiD/ZCWV2lcUBBFmh+DQsmUrzKpVq6kHcPToUbN/315z5OhD1EEAaZEgIRPa/gdYiYsoEVbqKPvDtYLDxXuG7YtFvi+XyiRDlsqS50cXSIT0y/193N/IyJDJZUSLIJMNTb3RNJkgNNMnKxzv5NRxU2/U6eyhq1CrwdE22DAK543xStQDP2EHiX7AGSsxz20YJUATzacKplzuM4ODw2bVylXmrLPO4j4e2PegObBvH8FRpTJjWu1mwgURop2AYVaKOCtY3gMoOZV4eOK01HnaWL11bIaRCdimkEcKIyOdMzsQncqadWvXmYsuvMCcffbZZsvG9SbMhqZRb1qQIQ2seu9D3k82JaXPm/I53PuYnSu1rNQCCU2NuETYU1IeBGyIyInjVOCm+9b7vRdguPOBPPuaTkpTR91/Fy2J3pcA5ZQ0qftV7gQfc12spDOT5T7YdIntFaLPm0bAXHtqSS62QTkveDqYEHW+w3vdpt3uzNQatR9ecfmlL/CRhSfum3r34AHCk2/Trj1+7GM3bg6z8WXlUv+2cqnwGijhIbcKWVt04FNlPG2jq04wdW7ysLqrfX0w7QwlP5x8ZeqcunPHvauRXiDBHTEcm67+e82jaQA2DbJhW3c8SWWAHVQSru8hSJ16I7rSuKmgj6stIJO+zZ8+wgoN+5aVtjhKTCbTJ2fMxKHD5shDR8xsdZYOtb+/nyvSqWMnzIGDB83ExCHm/GE1OF44bjhbjZzAyip9LD/V6UskQIBJ6jgUELg55LQiITKNRp2THkSMcN1HRpaYpUtH6dj37dtnJicfkjbMbXRXDC04EHEi3i+IIODvuI+S6EIuCcsDHOQLRa6ooViI94ViwZSKJVPE+yLAREjAkM+jGZM4Htx76JEAh4lujvU6yi7rrK6Ao4fjbzbq8rt2imzLytzVX1CuBPaJ7+NcZmamTb1W5XcBEDA+joVjLVAf4eTMSVOZmSYQqTVq1HeQSEbG5AuioYCxA6x1Ra7kBBhR4D1pbzI6P1fvwkanBIejJFXJqBLp0utI/kRC8hOxJOkpkWHUY8WKZWbVyhVmbGzMFAt5RjEarSYJqeW+slmxbLkZGx1lp85SqSB9NGijTqIsmTwHOiYF9g7hMIl0OQ9NGklIFwIamdDnf66FgH4217Qnc47cA+7cIDaWVKEbXXOjjwnusHOIG83Q8WsaTY9NO1jwzAgBwIOt1sEY1FZMs9FuEUEpn5ko4j2K70vFT2eqMlv5yNvecvVuqF4+xdP6GbN7DxCeoku9e/fu0Wan9O3h4aHtcKQAApiosWrBZI6JGZMyVi/ITWMlp++Rr87nxBFouDcdpjgldvfDis/+xOdurhHvdVXvonNd0WiZoKy6utcL7qTrrtB5DArlKJFNctXqNDEjJyQxTDJOmaCb158THNhIg2r9Y8y9YEnPCT+xcsWxuJq3+eeJw0fMbbfdbm7+yS1mYmKChymVy3SIyFvjRScGlULsw2oMCFEsTFb/KSCwKMcOWOyok6iWHmqEQKIDams4cExgqOc/ceK4OXH8mDk5PW25DpIS4vnpShigBCtaVC5EEUWS4JBlUrXznZ1MWe4YxXSSOP/+gWHTNzDAMkFEIiBIhHsJDhROGIqKgwNIfYAHUWJ4vVQo0CZIifB+ygKAZHlM3Kdw4KiuYCvoLDoxVrmSx084+5PTM7QjHP5stWqOn5gyx6em+L5Wq7LFMwAG7skAnSetcJIb9aKYkrUDjgGgAPsBEACUtGw7abWRlg4mztE2suJ9yUhKYIaHRszQyBKeI4CWhKjlvmS6xYo9KQBn8sQqPgIwMIpCQqTc4/JcWdKjE67vqvSw4FedHVb5uLfwwjnKdcgnJYvY7fDwErNh/Xpzzjlnmw3r1plVq5abUrHAqBV6cMDp4cHUZ4Cy2nNweR7O0euCIq0CSvkpcsvJuWmPDQUGGgFxwYXOKwlocCqN3ONrFEJBpoIRjEXBAEAUgZatplSbMcLE1I7d1nJyGC1AlMqCUdgFz5WWAAM847MUNLS+eHyy84oPfehttadoaj+jdusBwpN8ud/61reWGq387jg27+SqDBNELmfy0Khn7XeWYAHELEQSFDBgFVgo4G9ZrvYwMRTyEn7GPy0Nw98BJtxabX1w9aGWEHY3eUm2SfnD2rBH+QNqhq7afpueUKDhrh50ewUQJJFZLQMN9bod/9xcKZ0oF3VS162TtTg1ONaOOXT4IfPAAwixT9IxwbHB8WECPXFi2hydnKTjZWthu9rXULKysVlJYNnuutp3V/j6ecrwFkeiuXRljIOoN1upmsrsDFsWQ+pYOR+wMiYphODxd2zrTpCJXVW8xvIOBD/pSk0cJaSI+0pl04ljU6vCEUMo6VFKz92LSnEmCbNLrwdEYrT7oYARDQcLyxwOSCMSEimBLdlAyYozYXJmOyU4WJvjlusmk7lCKJVtVqeg1xUOhzwZudIKteR3Al1oQWT5D2AZNynsKOcOZyIcm+RFx5buR+5JtxeGwl2Hu2KfBXaozOZMrlDgvYRj47uiLyGcCfSs6CsPmD5UUeQBWAQouKvf3lC+m/rS/XRPK2mkScG3AEmJijB1hGiVXb1LqkfG2t8/YJaPjZrhkWHTPzDAyJY40ciUyiUzunSpWbZszCxdMmL6yiWeKXpwEGA494Ye140y6DXSuaG3gkOfGRcsdOs7pCRZPV8l0NL6tnJHZL1Fd0RSUhINwHUFAOB3LJcKP5WkCyAA58+fSN9ZoIBza3ZapsPPJWpF7oitCuq0O/vbzfqvffjD7//Jkzy9n3G78wDhSbzkL7vsNauDVusAyrXwULE1Lh26gAM83IwOIOeJ3DO732Uk5cBctORCMVkgZMmQKkGEfAcOVHLNElrO5TCJYHKVFRpXaz3pASXpJSsmXvE0j9gNKtIVy1yhRNdUrsNPw+uyhbvyx3aY7JHXhiNFiBhjRu746JFJc+fd95g777rbTJ+cpp0wKScTFghJkawehAVNgXsTWa1/bOeCIZHTlZWSOCo3lxrbqAM4A8idS2tj6XvQZugYoe1prPZPnDCNei0RUsK4VBmRHBDmmrWpj3Vgabw1cWjK9HZDxBoN6HaZwvIHEMTKF6OerVRsBOGR5Pl7Yz8WBdpVsbpkvS9IaLQVBnCOnJMBNm2XRrp9BYU2n45JF5CDzsOSYHk+NvIBYOBGlIR0Ki9VNHbc+ylPG47JZ8OCZZx7p9UytXo9jZ64AEFvDnt8BQ/Sh+KRI8s98MQh6CanY68tMxIy/ghhcHwunImBwUGzdOkYHXcuX+DzyhSILZPFMywpH0l/CNFTZLXTSJ6C4vRZUQClvIKUZOp0rAxFMlr/CQEV1SYoB+03AwMDXFzgmADUiBKtWrXSrFu72qxYPmYGBwcZAUKKCM4bcwn+cT7KIIKmlTL63HTfpTp+jRRwexs1xPg7bam+kUwbnl3cG5IqwPHoxBFdwfNmQQIjAJ1Oki5QJ0/uAdIJiA5AJrzTSbqAAiigBBjRLe4HsuMWWLjPWrtp1n/0o3+y70mc4s+4XXmA8CRd8muvffuOvfse+Gomm1ktK25hnEuJl+TCudJFeRdAQMYCBEswwwQpocicAAqupi1AsJ/hYcbkQ5CQzZgCJoaCTFKac8ffCURs6BarpqSGGSs2W6Oup93LS1Dn7j5obu21rkTwU1TwZGKemjpuHty33xw4eIiraEyU8vAiDF3hv0p1lpOQgBXMIVipYmJB6Zys5GRChaqiOGJZiNi1NiYB6/hlRWenVYkTC1u+0yHz/fjx4+bY1KSpVmclVEswIBMsJh5MMJjJRPNAjuSulHrBEO2kZXBzgAEBJLGJbR68GxSk3ATdb8eOHY4I+0XlAyJLKPfDd2uzs+yIqOqJc96m6iTdKILdEGF9fWVsVQFz6k4VAsP+YhyJmjBPrzY3JibhUso/xQHaVbk2enIIa65wU3JvOSCh254C9jTHz6gY1BQLAg5VavpRoydkylvi3hwVAI/2aLv3vm6b8BbUjg4HwX1m5Aa2d6fm6O1igCmeAlJakqqAA8NPIWWWmQIB3wQgIwhQagrHKUBY70M3PYj5Q/5ur43VRUijEem9q2kujVAkpaWcZ3JJiSyeaTy7o6NjZnR01CwbHWMPKcwdhVzeLBkZZtpjbHQJAUSlMmsbg0l7bjkvLc1FSkWAopBRpTqqE8V81nBXAeiz+iC23AH0F2khOgBHj9/F4eP5BDgQEiJAQoPzSwKMLOdFIxUKEhS0KnDHXBAE5vZysf+XPvSh3cce7V7wn89tAQ8QnoQ746Uv/fVdM9X696g3YHPnjCBYhjlX95ZMJqkCYZxjsmbKwdaFE0SAm5CTum84DAEOiCpkyTQn2gf4sOz3AsGCpCKwb6zOkapguLSQt+kMgI4UsKTRBI04SKhTStgM0fzJmRkythHaI9M+myXJ7NDhI+aBvfvM1PHjjFjgIcb+GDq0qB4PqazmXG0Fy552yIpJWDpZIdoVjA2U62SB4yInj2NJHjaig5+ePkEQgDLANvLdjNDYhkJW6CdZxib0QVu/z1DDqYSsLsCUKB/awn/nXtHtFAhoZMEFBqlDSVdkXI06+9HqMc1TF6E1gNUSzhmVA4+yKk48R08YXkPvdCw2zaD3JNs1a68IfI7rTiICOl4JUx3vE26JTS0QAHWlSoS178r+umenICg9XYl4aDRIRHYCk7XRE5AUMS6kGOpYPSJSpLHqh31O7X1lezs8CY/zKbtQ+yVqg/Z2YOrBlsGqs04dueUvzKEsKnU9QZLKiSIBYri3+wf6zeDgiFkyOkYOBRYL+AzPFpytRB5zpn9gMNGHkOcP4EJSD5gH5NUbM1GQkZY+6niFp4GVfMsCEQCIghkaHDJLli5l2SgWJOftONusWbPSzJyc5c7I47FRJDpygMdOLCv8SAiELSstDsePc2HaCiRDpg+kGyl5BYwmSEpBnv1Wsi0+c0mvmiLV1I8b68Dv2iwsMOYDH/3LD77rqbgvzoR9eoDwJFzlXc/6xePZbHZYnYOQz6QOWGqbhcynynICBOS9/BNOASYDrCQFQEj4D6AgtGx8TA7YBqth7JegAJ+FGRLWmGNFp2VK/gAAEP9JREFUiBOrgGKeKwFphCM8hhw/F8Y7wAPyrfv2T5j9+yfMsePHpVEQytcaLVOtVU2lUiGyx2qPD35SrpeS8VLz2Ym6q+xABYiseiJW63YiJ7E8DLl/rPIPTxwwDz10iCV9CNmGNt2CNS5zjDYXDsfFcG3CsrDHcDgWOhL30uoKQ7IU6W3vhsu5vSUiwsZYncz1ckOtXOFjPDbc2uX9be6baRAbsk7TEzpuqRrBP1ybfLFIW7dAUmw10yXjHOCEk7ujmJds0uMsGUGA/n82y02UMKhWYHRFV/u4Lta2EioWeinsLm+FeyDpk/SeENPZbR72mXIAY7L6FrDCVFkOlRTiONF+WvPSc+/OnboS2UcSIl3tjifh8T5lF3r7sDolGcbDdYV8mNFrGSajOGlZsl5P5dOImbQ5mAB5jd7hI+bs+XwAqIuextLRZWb1mvX8HSAD4JorcYb65drNVcYo6TlVLxWgocBHO2dioYII4RWveIXZsmWzqVcbplKtShkuoz+SvqODb9mKDeoYABQIARXRBqYOCBJaTO9pxIDPuY26YHucGzkJiThYak+CA9onPR23NTfGjnu93ar/3t9+7M/f/1TcC4t9nx4gPIErfNlllw3d+8DEzdlcbpOEyTUOKKFazUHqhExRFy1Rs0pzGmWA00Y40G1iIyBCog0CICRyINEIy2uwxEeSmggClNAo0QYp11OyY9asXrnc7D84YaYmp8zRqSmS/ZoNEOtEiETSyzac3jORyGQhTiElw9nwvCWKYfKYqZxkDr06O5u0U8b+Z2dnSCzEZxTKobKecCe0sPGUqWuOVslubmGuFXsvMHD5FFzt2rC+HuuUHHlvztvuMNk+cZY2MtC7PVZjRnPxQhpEvX0cBHuKxdKD9Ub1/mq1VovbqN0zZnhkxGxYdxZq/m+uN6rVYq7UCcOwMzV1JFiyZHS5MXFhcnJq7PiJY0MYvjqlkeHhDY1mc3MURZsazeaQ8DFcpMS7UHgZ9mfaMEm0NAiEVGKXxMFUXEdtq/eDu1ojOJB4AEPJOIhIJucxYU/l8vlKPpefbXdae40Jj83OVqbqtXoDwwN4XblyVbR0ZOjOtWeN7734wgvvO//8bdOXXHJJRa8deoFMT09n9u7d23fLHfctvf3WW7dNTOzrq1WbO/fte8BECG8bY/oGB/oGBwZ2zs5WluZz+e1Tx6YSIKtk0+6YTS98fPxToAuFdbzufStVld2VEOrMpbSyW5lQLplEbvTe7kp32WhPel8756B5B6b9BYDzZe9RrrotkKPuQ7nPLFk6yvQG5hY4bDhpHI+aFEPDyWf4LqIWdoecg5SLQtv3lc0LX3CJWblyLVOMACtCGpQ0AQA2owYJ78CSDi3nR0p8JTWhVSbyXsofk/stWZicqvaqi5beabyrAsqYnzXrUxd/4hOfOPEEpvsz8quP/+k4I80090n/0vNfeGlltv6FBBwkjGtxeNqshhMCSr0sOmdlA4FCWv4lqwKpuxc+gQABVcwTUJCXqggLEEhytKkLRitsh7yUkyDhSLDDO3Fkfv1lv2L+51/+rTkxfdJxeZye5nhv883W+UlOz4KBIDBTUyLks//Ag3T42Fr5EeQDWGEgIWel+v4uoQ3fURU2uho7DFfdXZcHmtvvWTc+4t3opgsS5/lw33BJb1qL7pRzqjPkClUccScGc01iRTQWHN+aVWu+vXLN6juuuPwVH7nggh0TO3funJ2PR+bGG/fkjx37yeYH7vzp6L/f/O9r7t+7d8mSsdEN2Wx+NAyCvna7uRQg5LY9e16A8fF+y+aEkNhux0JAQ8IhNuc/44L3r1o68oMlYytnf/F5z9k3fu74wQsvvLA6H+f1eI4Zx3Hxn//5u0s+9cm/+63v/+gHS3PZ3EsOThzcMFOZsbtRaWjermEQBCGUTB/PMebaVlISD7cXce4KsAUcnHpIl/fD9APSQPqUOuJnvMe1XNY9ZE91iwK/rlHZ7wqwsPOAliTSebfoqIeHh815Oy80K1asIvgXkClYRkHkh/7b+8yXvvotwSbgU3QiRiO5+rcRBTp/AEqbYhC+go1qJCW8acpKS6MT7ouCBmfecFN9LkhjxozlqgQaUa3T2vDpj39k/xO9tmfa9z1A+Dmv+BVXXLH8rnv3HWZo1jJ3lagl+V3pFpM2RbF173Z1oXlgyZXB+StYkO3g8NOIg6jlaQ5ZRJVUSc+WqZGXIFEGJUFC/Q3177vOP9fsueMuc8edP0skj/XBYkQjzLB878iRw+bE8eN8sJWzgFAv2P34HA+6VEvYtrF2muOkQHKelW62kKO33I+TSbrAkfClJfU96mVwJ8VH3Vg2mHN10cVstNu5E6TdN5sFFYq39g8M7mvWqzcfgMoSQEAuZ9asXx8NlAfuu+CCs+96+ctffuySSy6BfvyCfI2OrnzT0NAQx47yP7za7WY1NGErny8gHmxuv+vWzy7Ik3sMg47jOPO+G943+jef/d/LytnC+gMTE2OzszU0N5NXJmPWrli59eixo5sH+vq2Hz9xckMcxzmW9HaVXKYHk7iN/CedYOU3YR/Ih+Jkxa09HEG2NxtA3QhHJVKP2ptWcTkRso2NOjgRh4czTy/nVccm/TpKZnRsmVm1ag2jDSQW230+9zm/IMTEFvgjQjJkZIAiSAIOWO7IdEPacMw68RQ0JTwlGbOmrjjXKlHW/uw9T0QwwVnCGIr53A/bnehTjUbrji9+7u//6THcDn6THgt4gPBz3hI7d138Z8Vi+S3IkQnRpjv8pQ9sWraUMo2x0md+zIYVBSBYx+vkiGV+EnCg6nAqvKL5NY1CSOpC+AmsmshkzejoUnPBM3aaL/7jV2zeXkrzWMLXicxtt/3Y7N+/T/K/qj6XRpm7adPWTrLQ1gc33QQfY3LgA0v+trwAALgCch7uuUwuoEpeSvhzt+slIfXuww2HJ3lz7RkQhq0wzFTjOJruRJ1qJDKQ1BxYNrbs/vVnbfzuReft+PLzX/T8vc973vN0eflz3hn+a2eSBb785S8P/sMn/+EZt915x3MatfquiSNHttabzYxU4hg8W7nYBKVMEAx2ok6pE8V5hvwdL+yWJ3fZbm6qQFrK7OgoKGfBBRpaCfGI18MtjdANHQJr73cxz8DB43kbGh4y288+1/T1oZcFCJJtc9FFF7MKRVILSD+JqJfwSVLuUgLerYiVYJg0ddJdxZomAZWToZwEAAFohrRajebhQ4cefOC+u6fPOWfHn95009c+5aWXn/iT6AHCE7Dhy152+aXZXHjFkcmjLw3D7CBQMQh3ohKWrgykt5ElI9n2qFRItM1nCBRsxKBb3lVSDF3iNgQNIJuhSkIb5Ui6QiMMCBevXLGS+vZoISw6AgJgfvTD75nZyklWKWhrZJhAQ6Jau548q12rIBtWtA8ziGsRgI5yF3SdksYfSeBThoEb5pcVll1VWc6DXgoCDKf1bhfPQGcOGyFQoFUul4+PDA/fnclkvhOGmZ8+8MCDB7E/RGZWjI7Uxlaunt66dcPha665Ztr3rH8CN73/6uOywMc//vHiJz/5/4ZqtZNjDx08PHiicrJcr8+ypDCTzYTbN41vrVRmtpoweM6xY8e31Ov1wU4M3oASExVpz8kr7BqLEgxVs4MAnf9xGqXp7pwVeM9OUh0P/d4jRB3wnG7bdo5ZvmIldwOS9Pbt55jKjKQdAZTcSJ6u+Bk10GieLaUVkCALEOXFuMCf1VGdjsmF5u+jKPjE9GzFZOJowze+8c8PDowMVH/1JW/4sVdQfFy356Nu7AHCo5rosW/wzF3PfO2+Q4d+Y9OW7cWo3d55YvrEcgiXoDIB+TxXt4cpBstCV43zZBWtXAUDgJAyi2UCsJ32yNAVUKCkRQUN/f2DZnx8m7nnnns4eDxkJ0+eMP/23W9xxlB5U8XrCYnPstXd94lzRtkmdATch9pZcSRWsmVfynhXEEDMYMlsXcp49ovaTpbnksnMBGE4aWJzuNFoTGLdEcbG9A/0xctHR+8aHhr5zgte9OLb3/3u6x/0q4THfn/6LReWBT7/+c8PfOELX9m8b+++Z04cnjh3curY2mpVqB9BEOTy+exgGGZWtNvtkXanM9LptEXWglU+ludgAXUCyB+GgKvzhN13l6FcLs9cqQpwsJ5x/oVMPWB+Atlxw4azWJHkOnhGH9wyWYfDkBzQ8UitdivKZLK3NBv1A0EQ/WzTslUfuuF9NxxaWFdxYY/WA4Sn4PrdeOONmQ9+8IOje/fuLa9fP26Kw0MmbDYzq1atufTw0YfefXJmZhkb8NgUg6qsuY1h1LG6aQgr/pHwjTSykIqhiBofwnwP7H1AGssEgbn3vrvNXXfuSZYiGsxPEPwj5SVtTbzwB3TFL+x1rZc/pQrAAQ69KnL4DiIXxULhoWXLln2/mM1+Lczl/3XPnjtJ5kNZ1oqh4WZheLS+fv2S6mc+8xmvqf4U3KN+lwvbArt370bWLv+97+0pT07eX5iamiocP36cD+j27TuLq1esGD82ffIFR48e2TlTOfms4yempRmJXdXPVeboOnC3oqLXUomUtzMnYFI6Z8dORhKQXh0bW24G+gdZrSQRgW6VywQ4YOdIRdj0A8oxS4Xi/10yMvLe+yf2n1xSXjH5kY/sTqpbFvZVW3ij9wBhHq4ZmNK///Y/2nr7vXf82rETJ5YXC4XNnXb74lqjPka54B5lP62NpqIa2skyTQH/LGxiBQpIM6xZs87k80U2zMGDet+995if3bXHqUBIW8UmC3oc0aoUdpnDLbvScKUFDIIV5MHPZjKNfD63LxNm7262Ww82oXRjILSS76xasfxgJpO59dJLf+Oe3bvfdWAezO0P6S3gLWAtcNNNN2Vvv/32Zf/27R+cc88D962bnp4ef+joJLSqTBhkwr7+vsF8Nr+l1qhhLtpUrVazym/oKgtOBAgkVYjpAGDgWRc/15T7+k2xWDLnnbfTTB6dTKS4iQVsyaXIJ7drmTC8qdOJ7641qpMXnb/tL972trd51cPT6G71AOE0uhgYyp/994/s+uEtt/zJwcMT/wFd89qdDmp1lPKclDSlanjCU4DDRpnhsy9+nnlw314LIELzuc9+mk2AuHJIiwi6zjqJDoCnAJa0gIEYL5S6oVEP+BL95b720qVjn1m/eu0/fuEf/8+nTzPT+eF4C3gLPEUWwKLmS1/65spvf/vb7//ox/7iKk1ZsLLAki4xb6Ch1I5zn8HFw7LlK8ySkSVs0YxtIB0OYPDA3vuiZvXYyA9+8AOtt36KRu13+0Qt4AHCE7XgU/j9G2+8sf/rN33/xffff+/ybCY7kM3nrqhVa+ei9BASp0LQU8392Oy68CIzc3LGtJoNkhC/+fWvsjkSvb3UCJE97TZ4Hhsbq2cyme91OtE3JyePUkgEEYo1a9cfXLNuzb4XPf91t7/lLS+hwI1/eQt4C5zZFsCcdPVvv+W3MOtks9nMkuHh/kwuv71SmVmbz+bOOz59fBgtt5958XNJjh4eWYqqqU4um/vSxKGDX7/77j1m66atX/nKVz5335ltyYVx9h4gLIzrlIzy5b/68vP/5fvfv3Hjli2jw4Mjw/gAkQakH8477xlmcnKSD+a99/zMHJzYT/QOYiEudDabRSKhEpqweuTw/hUL7NT9cL0FvAW8BbwFnkYLeIDwNBr7yTrU7t03Zb/xjT/eeqIyu37jxo3B0qGRba2o89JOJ3pWs9kq7Nt73w9bzfqtpb7Svx2YmDg+M1PrdNoNs2z5sqiQyR8+99zxY5/+9Ke9qtiTdUH8frwFvAW8BRahBf4/4sExZnxT9zMAAAAASUVORK5CYII=;" parent="1" vertex="1">
          <mxGeometry x="-480" width="1110.24" height="980" as="geometry" />
        </mxCell>
        <mxCell id="2-DyXFUpKXOvbhoUi8-5-48" value="" style="rounded=0;whiteSpace=wrap;html=1;strokeColor=#B3B3B3;fillColor=#f5f5f5;fontColor=#333333;" parent="1" vertex="1">
          <mxGeometry x="20" y="40" width="580" height="650" as="geometry" />
        </mxCell>
        <mxCell id="2-DyXFUpKXOvbhoUi8-5-39" value="" style="rounded=0;whiteSpace=wrap;html=1;strokeColor=#666666;fillColor=#f5f5f5;fontColor=#333333;" parent="1" vertex="1">
          <mxGeometry x="-440" y="40" width="460" height="650" as="geometry" />
        </mxCell>
        <mxCell id="2-DyXFUpKXOvbhoUi8-5-42" value="&lt;font face=&quot;Garamond&quot; style=&quot;font-size: 33px;&quot;&gt;&lt;b style=&quot;font-size: 33px;&quot;&gt;Move CUBE in UP Direction&lt;/b&gt;&lt;/font&gt;" style="text;html=1;strokeColor=none;fillColor=#f8cecc;align=center;verticalAlign=middle;whiteSpace=wrap;rounded=0;fontSize=33;" parent="1" vertex="1">
          <mxGeometry x="-380" y="110" width="360" height="130" as="geometry" />
        </mxCell>
        <mxCell id="2-DyXFUpKXOvbhoUi8-5-54" value="" style="group" parent="1" vertex="1" connectable="0">
          <mxGeometry x="202.34000000000003" y="203.07" width="237.66" height="237.93" as="geometry" />
        </mxCell>
        <mxCell id="2-DyXFUpKXOvbhoUi8-5-55" value="" style="group" parent="2-DyXFUpKXOvbhoUi8-5-54" vertex="1" connectable="0">
          <mxGeometry x="-14.723479409687476" y="-11.231103017561122" width="252.38347940968748" height="249.16110301756112" as="geometry" />
        </mxCell>
        <mxCell id="2-DyXFUpKXOvbhoUi8-5-56" value="" style="shape=cube;whiteSpace=wrap;html=1;boundedLbl=1;backgroundOutline=1;darkOpacity=0.05;darkOpacity2=0.1;fontFamily=Garamond;fontSize=20;strokeColor=#0D0D0D;fillColor=#FFFFFF;rotation=45;size=43;" parent="2-DyXFUpKXOvbhoUi8-5-55" vertex="1">
          <mxGeometry x="40.99819607971308" y="37.172465684656906" width="179.84708725026132" height="174.81617164824726" as="geometry" />
        </mxCell>
        <mxCell id="2-DyXFUpKXOvbhoUi8-5-57" value="" style="ellipse;whiteSpace=wrap;html=1;fontFamily=Garamond;fontSize=20;strokeColor=#82b366;fillColor=#d5e8d4;rotation=45;" parent="2-DyXFUpKXOvbhoUi8-5-55" vertex="1">
          <mxGeometry x="133.64" y="59.62" width="86.29" height="36.12" as="geometry" />
        </mxCell>
        <mxCell id="2-DyXFUpKXOvbhoUi8-5-58" value="" style="ellipse;whiteSpace=wrap;html=1;fontFamily=Garamond;fontSize=20;strokeColor=#6c8ebf;fillColor=#dae8fc;rotation=-225;" parent="2-DyXFUpKXOvbhoUi8-5-55" vertex="1">
          <mxGeometry x="41" y="57.39" width="77.28" height="38.73" as="geometry" />
        </mxCell>
        <mxCell id="2-DyXFUpKXOvbhoUi8-5-59" value="" style="ellipse;whiteSpace=wrap;html=1;aspect=fixed;fontFamily=Garamond;fontSize=20;strokeColor=#d6b656;fillColor=#fff2cc;" parent="2-DyXFUpKXOvbhoUi8-5-55" vertex="1">
          <mxGeometry x="91.66889608835034" y="127.98622576815036" width="66.11312632873313" height="66.11312632873313" as="geometry" />
        </mxCell>
        <mxCell id="2-DyXFUpKXOvbhoUi8-5-60" value="" style="shape=image;html=1;verticalAlign=top;verticalLabelPosition=bottom;labelBackgroundColor=#ffffff;imageAspect=0;aspect=fixed;image=https://cdn4.iconfinder.com/data/icons/essential-app-2/16/volume-sound-speaker-lound-128.png;fontFamily=Garamond;fontSize=20;strokeColor=default;fillColor=#FFFFFF;" parent="1" vertex="1">
          <mxGeometry x="-50" y="200" width="20" height="20" as="geometry" />
        </mxCell>
        <mxCell id="2-DyXFUpKXOvbhoUi8-5-96" style="edgeStyle=orthogonalEdgeStyle;rounded=0;orthogonalLoop=1;jettySize=auto;html=1;fontFamily=Garamond;fontSize=20;strokeColor=default;fillColor=#B3B3B3;" parent="1" source="2-DyXFUpKXOvbhoUi8-5-61" target="2-DyXFUpKXOvbhoUi8-5-95" edge="1">
          <mxGeometry relative="1" as="geometry" />
        </mxCell>
        <mxCell id="2-DyXFUpKXOvbhoUi8-5-61" value="EMOTIV BCI INTERFACE" style="text;html=1;strokeColor=#6c8ebf;fillColor=#dae8fc;align=center;verticalAlign=middle;whiteSpace=wrap;rounded=0;fontFamily=Garamond;fontSize=33;fontStyle=0" parent="1" vertex="1">
          <mxGeometry x="300" y="780" width="290" height="130" as="geometry" />
        </mxCell>
        <mxCell id="2-DyXFUpKXOvbhoUi8-5-98" style="edgeStyle=orthogonalEdgeStyle;rounded=0;orthogonalLoop=1;jettySize=auto;html=1;fontFamily=Garamond;fontSize=20;strokeColor=default;fillColor=#B3B3B3;" parent="1" source="2-DyXFUpKXOvbhoUi8-5-62" target="2-DyXFUpKXOvbhoUi8-5-97" edge="1">
          <mxGeometry relative="1" as="geometry" />
        </mxCell>
        <mxCell id="2-DyXFUpKXOvbhoUi8-5-62" value="Custom Experiment Environment" style="text;html=1;strokeColor=#6c8ebf;fillColor=#dae8fc;align=center;verticalAlign=middle;whiteSpace=wrap;rounded=0;fontFamily=Garamond;fontSize=33;fontStyle=0" parent="1" vertex="1">
          <mxGeometry x="-450" y="780" width="350" height="120" as="geometry" />
        </mxCell>
        <mxCell id="2-DyXFUpKXOvbhoUi8-5-63" value="" style="shape=flexArrow;endArrow=classic;startArrow=classic;html=1;rounded=0;fontFamily=Garamond;fontSize=16;fillColor=#B3B3B3;strokeColor=default;" parent="1" edge="1">
          <mxGeometry width="100" height="100" relative="1" as="geometry">
            <mxPoint x="450" y="80" as="sourcePoint" />
            <mxPoint x="450" y="590" as="targetPoint" />
          </mxGeometry>
        </mxCell>
        <mxCell id="2-DyXFUpKXOvbhoUi8-5-92" style="edgeStyle=orthogonalEdgeStyle;rounded=0;orthogonalLoop=1;jettySize=auto;html=1;fontFamily=Garamond;fontSize=20;fillColor=#B3B3B3;" parent="1" source="2-DyXFUpKXOvbhoUi8-5-64" edge="1">
          <mxGeometry relative="1" as="geometry">
            <mxPoint x="470" y="349.02999999999975" as="targetPoint" />
          </mxGeometry>
        </mxCell>
        <mxCell id="2-DyXFUpKXOvbhoUi8-5-64" value="&lt;span style=&quot;font-size: 33px;&quot;&gt;Participants move the cube in a UP &amp;amp; DOWN Direction&lt;/span&gt;" style="text;html=1;strokeColor=#6c8ebf;fillColor=#dae8fc;align=center;verticalAlign=middle;whiteSpace=wrap;rounded=0;fontFamily=Garamond;fontSize=33;fontStyle=0" parent="1" vertex="1">
          <mxGeometry x="690" y="249.99999999999997" width="330" height="195.97" as="geometry" />
        </mxCell>
        <mxCell id="2-DyXFUpKXOvbhoUi8-5-91" style="edgeStyle=orthogonalEdgeStyle;rounded=0;orthogonalLoop=1;jettySize=auto;html=1;entryX=0;entryY=0.409;entryDx=0;entryDy=0;entryPerimeter=0;fontFamily=Garamond;fontSize=20;fillColor=#B3B3B3;" parent="1" source="2-DyXFUpKXOvbhoUi8-5-65" edge="1">
          <mxGeometry relative="1" as="geometry">
            <mxPoint x="-360" y="609.9699999999998" as="targetPoint" />
          </mxGeometry>
        </mxCell>
        <mxCell id="2-DyXFUpKXOvbhoUi8-5-65" value="&lt;font style=&quot;font-size: 33px;&quot;&gt;A portion of Screen Randomly flickers at 20 Hz&lt;/font&gt;" style="text;html=1;strokeColor=#6c8ebf;fillColor=#dae8fc;align=center;verticalAlign=middle;whiteSpace=wrap;rounded=0;fontFamily=Garamond;fontSize=33;" parent="1" vertex="1">
          <mxGeometry x="-850" y="500" width="270" height="220" as="geometry" />
        </mxCell>
        <mxCell id="2-DyXFUpKXOvbhoUi8-5-69" style="edgeStyle=orthogonalEdgeStyle;rounded=0;orthogonalLoop=1;jettySize=auto;html=1;entryX=0;entryY=0.5;entryDx=0;entryDy=0;fontFamily=Garamond;fontSize=20;fillColor=#dae8fc;strokeColor=#6c8ebf;" parent="1" source="2-DyXFUpKXOvbhoUi8-5-66" target="2-DyXFUpKXOvbhoUi8-5-42" edge="1">
          <mxGeometry relative="1" as="geometry" />
        </mxCell>
        <mxCell id="2-DyXFUpKXOvbhoUi8-5-66" value="&lt;font style=&quot;font-size: 33px;&quot;&gt;BCI Task commands appears in the screen along with the beep Sound&amp;nbsp;&lt;/font&gt;" style="text;html=1;strokeColor=#6c8ebf;fillColor=#dae8fc;align=center;verticalAlign=middle;whiteSpace=wrap;rounded=0;fontFamily=Garamond;fontSize=33;" parent="1" vertex="1">
          <mxGeometry x="-850" y="20" width="270" height="290" as="geometry" />
        </mxCell>
        <mxCell id="2-DyXFUpKXOvbhoUi8-5-74" value="" style="whiteSpace=wrap;html=1;aspect=fixed;fontFamily=Garamond;fontSize=20;strokeColor=#E3E3E3;fillColor=#F2F2F2;" parent="1" vertex="1">
          <mxGeometry x="-360" y="325" width="330" height="330" as="geometry" />
        </mxCell>
        <mxCell id="2-DyXFUpKXOvbhoUi8-5-75" value="" style="group" parent="1" vertex="1" connectable="0">
          <mxGeometry x="-290" y="360" width="260" height="310" as="geometry" />
        </mxCell>
        <mxCell id="2-DyXFUpKXOvbhoUi8-5-76" value="&lt;font style=&quot;font-size: 20px;&quot;&gt;f = 20 Hz&amp;nbsp;&lt;/font&gt;" style="text;html=1;strokeColor=none;fillColor=none;align=center;verticalAlign=middle;whiteSpace=wrap;rounded=0;fontSize=20;" parent="2-DyXFUpKXOvbhoUi8-5-75" vertex="1">
          <mxGeometry x="160" y="40" width="100" height="30" as="geometry" />
        </mxCell>
        <mxCell id="2-DyXFUpKXOvbhoUi8-5-77" value="" style="group" parent="2-DyXFUpKXOvbhoUi8-5-75" vertex="1" connectable="0">
          <mxGeometry width="220" height="310" as="geometry" />
        </mxCell>
        <mxCell id="2-DyXFUpKXOvbhoUi8-5-78" value="" style="group" parent="2-DyXFUpKXOvbhoUi8-5-77" vertex="1" connectable="0">
          <mxGeometry x="110" y="130" width="110" height="110" as="geometry" />
        </mxCell>
        <mxCell id="2-DyXFUpKXOvbhoUi8-5-79" value="" style="whiteSpace=wrap;html=1;aspect=fixed;strokeColor=#000000;" parent="2-DyXFUpKXOvbhoUi8-5-78" vertex="1">
          <mxGeometry width="80" height="80" as="geometry" />
        </mxCell>
        <mxCell id="2-DyXFUpKXOvbhoUi8-5-80" value="" style="whiteSpace=wrap;html=1;aspect=fixed;strokeColor=#0D0D0D;fillColor=#0D0D0D;" parent="2-DyXFUpKXOvbhoUi8-5-78" vertex="1">
          <mxGeometry x="10" y="10" width="80" height="80" as="geometry" />
        </mxCell>
        <mxCell id="2-DyXFUpKXOvbhoUi8-5-81" value="" style="whiteSpace=wrap;html=1;aspect=fixed;strokeColor=#000000;" parent="2-DyXFUpKXOvbhoUi8-5-78" vertex="1">
          <mxGeometry x="20" y="20" width="80" height="80" as="geometry" />
        </mxCell>
        <mxCell id="2-DyXFUpKXOvbhoUi8-5-82" value="" style="whiteSpace=wrap;html=1;aspect=fixed;strokeColor=#0D0D0D;fillColor=#0D0D0D;" parent="2-DyXFUpKXOvbhoUi8-5-78" vertex="1">
          <mxGeometry x="30" y="30" width="80" height="80" as="geometry" />
        </mxCell>
        <mxCell id="2-DyXFUpKXOvbhoUi8-5-83" value="" style="endArrow=none;html=1;rounded=0;" parent="2-DyXFUpKXOvbhoUi8-5-77" edge="1">
          <mxGeometry width="50" height="50" relative="1" as="geometry">
            <mxPoint y="90" as="sourcePoint" />
            <mxPoint x="120" y="270" as="targetPoint" />
          </mxGeometry>
        </mxCell>
        <mxCell id="2-DyXFUpKXOvbhoUi8-5-84" value="" style="group" parent="2-DyXFUpKXOvbhoUi8-5-77" vertex="1" connectable="0">
          <mxGeometry x="30" width="100" height="110" as="geometry" />
        </mxCell>
        <mxCell id="2-DyXFUpKXOvbhoUi8-5-85" value="" style="whiteSpace=wrap;html=1;aspect=fixed;strokeColor=#0D0D0D;fillColor=#0D0D0D;" parent="2-DyXFUpKXOvbhoUi8-5-84" vertex="1">
          <mxGeometry width="80" height="80" as="geometry" />
        </mxCell>
        <mxCell id="2-DyXFUpKXOvbhoUi8-5-86" value="" style="whiteSpace=wrap;html=1;aspect=fixed;strokeColor=#000000;" parent="2-DyXFUpKXOvbhoUi8-5-84" vertex="1">
          <mxGeometry x="10" y="20" width="80" height="80" as="geometry" />
        </mxCell>
        <mxCell id="2-DyXFUpKXOvbhoUi8-5-87" value="" style="whiteSpace=wrap;html=1;aspect=fixed;strokeColor=#0D0D0D;fillColor=#0D0D0D;" parent="2-DyXFUpKXOvbhoUi8-5-84" vertex="1">
          <mxGeometry x="20" y="30" width="80" height="80" as="geometry" />
        </mxCell>
        <mxCell id="2-DyXFUpKXOvbhoUi8-5-88" value="" style="whiteSpace=wrap;html=1;aspect=fixed;strokeColor=#0D0D0D;fillColor=#FFFFFF;" parent="2-DyXFUpKXOvbhoUi8-5-77" vertex="1">
          <mxGeometry x="60" y="40" width="80" height="80" as="geometry" />
        </mxCell>
        <mxCell id="2-DyXFUpKXOvbhoUi8-5-89" value="" style="endArrow=none;dashed=1;html=1;dashPattern=1 3;strokeWidth=2;rounded=0;entryX=-0.025;entryY=0.925;entryDx=0;entryDy=0;entryPerimeter=0;" parent="2-DyXFUpKXOvbhoUi8-5-77" target="2-DyXFUpKXOvbhoUi8-5-79" edge="1">
          <mxGeometry width="50" height="50" relative="1" as="geometry">
            <mxPoint x="60" y="120" as="sourcePoint" />
            <mxPoint x="80" y="170" as="targetPoint" />
          </mxGeometry>
        </mxCell>
        <mxCell id="2-DyXFUpKXOvbhoUi8-5-97" value="" style="rounded=0;whiteSpace=wrap;html=1;fontFamily=Garamond;fontSize=20;strokeColor=none;fillColor=none;" parent="2-DyXFUpKXOvbhoUi8-5-77" vertex="1">
          <mxGeometry x="-45" y="250" width="120" height="60" as="geometry" />
        </mxCell>
        <mxCell id="2-DyXFUpKXOvbhoUi8-5-116" value="&lt;font style=&quot;font-size: 20px;&quot;&gt;t = 0 sec&lt;/font&gt;" style="text;html=1;strokeColor=none;fillColor=none;align=center;verticalAlign=middle;whiteSpace=wrap;rounded=0;fontSize=20;" parent="2-DyXFUpKXOvbhoUi8-5-77" vertex="1">
          <mxGeometry x="30" y="265" width="100" height="30" as="geometry" />
        </mxCell>
        <mxCell id="2-DyXFUpKXOvbhoUi8-5-132" value="&lt;font style=&quot;font-size: 20px;&quot;&gt;t= 1 sec&lt;/font&gt;" style="text;html=1;strokeColor=none;fillColor=none;align=center;verticalAlign=middle;whiteSpace=wrap;rounded=0;fontSize=20;" parent="2-DyXFUpKXOvbhoUi8-5-77" vertex="1">
          <mxGeometry x="-70" y="60" width="100" height="30" as="geometry" />
        </mxCell>
        <mxCell id="2-DyXFUpKXOvbhoUi8-5-95" value="" style="rounded=0;whiteSpace=wrap;html=1;fontFamily=Garamond;fontSize=20;strokeColor=none;fillColor=none;" parent="1" vertex="1">
          <mxGeometry x="385" y="600" width="120" height="60" as="geometry" />
        </mxCell>
        <mxCell id="2-DyXFUpKXOvbhoUi8-5-99" value="" style="rounded=0;whiteSpace=wrap;html=1;fontFamily=Garamond;fontSize=20;strokeColor=none;fillColor=#333333;" parent="1" vertex="1">
          <mxGeometry x="10" y="690" width="120" height="30" as="geometry" />
        </mxCell>
      </root>
    </mxGraphModel>
  </diagram>
</mxfile>
